<svg preserveAspectRatio="none" width="100%" height="100%" overflow="visible" style="display: block;" viewBox="0 0 24 24" fill="none" xmlns="http://www.w3.org/2000/svg">
<g id="Binance" clip-path="url(#clip0_0_48)">
<path id="Vector" d="M7.23543 10.085L11.8963 5.42436L16.5595 10.0875L19.2715 7.37547L11.8963 0L4.52344 7.37301L7.23543 10.085Z" fill="var(--fill-0, white)"/>
<path id="Vector_2" d="M5.3223 11.9991L2.61035 9.28711L-0.101727 11.9992L2.61022 14.7111L5.3223 11.9991Z" fill="var(--fill-0, white)"/>
<path id="Vector_3" d="M7.23648 13.9154L11.8973 18.576L16.5604 13.9131L19.2739 16.6236L19.2726 16.6251L11.8973 24.0004L4.5243 16.6275L4.52051 16.6237L7.23648 13.9154Z" fill="var(--fill-0, white)"/>
<path id="Vector_4" d="M21.1854 14.7121L23.8975 12L21.1855 9.28806L18.4734 12.0001L21.1854 14.7121Z" fill="var(--fill-0, white)"/>
<path id="Vector_5" d="M14.6477 11.9981H14.6489L11.8969 9.24609L9.86311 11.2799H9.86292L9.62939 11.5136L9.14735 11.9956L9.14355 11.9994L9.14735 12.0034L11.8969 14.7529L14.6489 12.0009L14.6502 11.9994L14.6477 11.9981Z" fill="var(--fill-0, white)"/>
</g>
<defs>
<clipPath id="clip0_0_48">
<rect width="24" height="24" fill="white"/>
</clipPath>
</defs>
</svg>
