<?xml version="1.0" encoding="UTF-8"?>
<svg id="Camada_2" data-name="Camada 2" xmlns="http://www.w3.org/2000/svg" viewBox="0 0 192 16.43">
  <defs>
    <style>
      .cls-1 {
        fill: #fff;
        fill-rule: evenodd;
      }
    </style>
  </defs>
  <g id="Camada_1-2" data-name="Camada 1">
    <g id="Blockchange">
      <g id="Group-150">
        <path id="Fill-148" class="cls-1" d="M1.18,7.6V1.36h5.82c2.54,0,3.97,1.18,3.97,2.93v.05c0,1.86-1.32,2.98-3.26,3.22v1.16c2.69.16,4.15,1.26,4.15,3.07v.04c0,2-1.73,3.25-4.45,3.25H1.18v-7.47ZM9.48,7.99c1.29-.52,2.7-1.61,2.7-3.77v-.05C12.18,1.79,10.11.27,7.02.27H0v15.89h7.37c3.43,0,5.7-1.68,5.7-4.34v-.04c0-2.2-1.68-3.29-3.59-3.79h0ZM179.9,16.16V.27h11.99v3.11h-8.51v3.22h7.49v3.11h-7.49v3.34h8.62v3.11h-12.1ZM168.62,16.43c-4.95,0-8.35-3.47-8.35-8.17v-.05c0-4.52,3.52-8.22,8.33-8.22,2.86,0,4.58.77,6.24,2.18l-2.2,2.66c-1.23-1.02-2.32-1.61-4.15-1.61-2.54,0-4.56,2.25-4.56,4.95v.04c0,2.91,2,5.04,4.81,5.04,1.27,0,2.41-.32,3.29-.95v-2.27h-3.52v-3.02h6.9v6.9c-1.63,1.39-3.88,2.52-6.79,2.52h0ZM153.05,16.16l-7.7-10.1v10.1h-3.45V.27h3.22l7.45,9.78V.27h3.45v15.89h-2.97ZM131.96,9.51l-2.11-5.15-2.11,5.15h4.22ZM127.74,9.51l-2.7,6.65h-3.56L128.28.16h3.22l6.81,16h-3.65l-2.7-6.65h-4.22ZM114.39,16.16v-6.38h-6.45v6.38h-3.5V.27h3.5v6.29h6.45V.27h3.5v15.89h-3.5ZM94.01,16.43c-4.68,0-8.15-3.61-8.15-8.17v-.05c0-4.52,3.4-8.22,8.28-8.22,3,0,4.79,1,6.27,2.45l-2.22,2.57c-1.23-1.11-2.47-1.79-4.06-1.79-2.68,0-4.61,2.22-4.61,4.95v.04c0,2.73,1.89,5,4.61,5,1.82,0,2.93-.73,4.18-1.86l2.22,2.25c-1.63,1.75-3.45,2.84-6.51,2.84h0ZM71.76,10.71v5.45h-1.18V.27h1.18v10.44h0ZM80.96.27h1.61l-6.95,7.01,7.24,8.88h-1.54l-7.2-8.84,6.83-7.05ZM59.89,16.43c-4.54,0-7.9-3.61-7.9-8.17v-.05c0-4.49,3.36-8.22,7.94-8.22,2.84,0,4.54,1.04,6.17,2.54l-.84.86c-1.39-1.34-2.98-2.34-5.36-2.34-3.81,0-6.7,3.11-6.7,7.1v.04c0,4.02,2.93,7.15,6.72,7.15,2.29,0,3.86-.89,5.47-2.47l.79.77c-1.68,1.66-3.49,2.77-6.31,2.77h0ZM46.31,8.22c0-3.93-2.86-7.15-6.79-7.15s-6.74,3.18-6.74,7.1v.04c0,3.93,2.86,7.15,6.79,7.15s6.74-3.18,6.74-7.11v-.05ZM39.53,16.43c-4.81,0-7.97-3.84-7.97-8.17v-.05c0-4.33,3.2-8.22,8.01-8.22s7.97,3.84,7.97,8.17t0,.04c0,4.34-3.2,8.22-8.01,8.22h0ZM17.99,16.16V.27h1.18v14.8h9.33v1.09h-10.51Z"/>
      </g>
    </g>
  </g>
</svg>