<svg viewBox="0 12.92 192 21.61" fill="none" xmlns="http://www.w3.org/2000/svg">
<g clip-path="url(#clip0_24213_5173)">
<path d="M6.12007 18.8501C9.01007 18.3601 11.6901 18.9801 13.8801 20.9401L12.3901 22.3801C7.45007 18.2201 0.690074 22.4701 2.36007 28.7801C3.35007 32.5201 8.43007 33.9901 11.5301 31.9101C17.4901 27.9301 24.2201 13.7601 33.0401 20.1501C38.4501 24.0701 37.0601 32.7301 30.6701 34.6701C25.8101 36.1501 22.9101 33.2001 19.9101 29.9301L21.4101 28.4401C23.9801 31.3601 27.2501 34.6001 31.3701 32.0501C38.5201 27.6301 31.5301 16.5201 24.2401 22.2601C19.0201 26.3801 13.1201 37.1801 5.55007 34.5901C-2.50993 31.8301 -1.31993 20.0901 6.12007 18.8401V18.8501Z" fill="white"/>
<path d="M192 23.2397V34.1997C191.45 34.1097 189.92 34.4797 189.71 33.8497C189.43 30.8097 189.98 27.3897 189.68 24.3997C189.38 21.4397 186.68 20.0297 183.99 21.2297C183 21.6697 181.67 23.5697 181.67 24.5997V34.1897C181.12 34.0997 179.59 34.4697 179.38 33.8397C179.1 30.7997 179.65 27.3797 179.35 24.3897C178.92 20.1297 173.64 19.6597 171.94 23.0797C171.84 23.2897 171.35 24.6997 171.35 24.8097V34.1897H169.03V19.3297C169.03 18.8497 170.93 19.0397 171.35 19.0097C171.38 19.5297 171.31 20.0697 171.35 20.5997C171.45 21.9397 172.19 20.3397 172.63 19.9797C175.26 17.7697 179.45 18.5597 181.15 21.5397C183.9 17.2597 190.95 17.8797 192 23.2297V23.2397Z" fill="white"/>
<path d="M102.25 34.1998V25.0298C102.25 24.5298 101.78 23.1198 101.5 22.6198C99.76 19.4998 94.14 20.6898 93.63 24.4198C93.24 27.3098 93.91 30.8898 93.58 33.8598C93.37 34.4898 91.84 34.1098 91.29 34.2098V19.0398C93.66 18.8598 93.78 18.9898 93.61 21.3598C95.67 18.2298 100.82 17.7698 103.18 20.7498C105.54 23.7298 104.17 29.9498 104.57 33.6898C104.4 34.6098 102.94 34.0898 102.25 34.2198V34.1998Z" fill="white"/>
<path d="M152.39 19.03V28.62C152.39 28.99 153.14 30.8 153.44 31.15C154.81 32.77 158.01 32.7 159.56 31.37C162.28 29.04 160.51 22.68 161.06 19.38C161.27 18.75 162.8 19.13 163.35 19.03V34.2C160.98 34.38 160.86 34.25 161.03 31.88C160.02 33.05 158.77 34.22 157.13 34.41C147.99 35.45 150.37 25.34 150.07 19.55C150.24 18.63 151.7 19.15 152.39 19.02V19.03Z" fill="white"/>
<path d="M119.95 20.2997L119.1 22.1897C117.47 21.1497 113.14 19.7397 111.93 21.8597C110.3 24.7297 115.72 25.4497 117.35 26.1497C119.87 27.2397 121.18 29.2197 119.89 31.9297C118.85 34.1097 116.14 34.5997 113.94 34.4197C113.03 34.3397 108.65 33.0797 108.81 32.0297C108.84 31.8397 109.78 30.6597 109.94 30.6597C110.03 30.6597 111.08 31.4897 111.44 31.6497C113.2 32.4297 116.57 33.3397 117.81 31.3297C119.77 28.1397 113.79 27.4697 112.01 26.6597C107.39 24.5397 109.31 19.1897 113.93 18.8197C116.14 18.6397 117.99 19.4497 119.94 20.3097L119.95 20.2997Z" fill="white"/>
<path d="M51.63 18.8699C53.65 18.5899 55.68 18.8499 57.44 19.9099C59.4 21.0899 59.5 21.5399 57.69 23.0199C54.76 19.6199 49.51 20.0599 48.05 24.5499C45.98 30.8999 53.43 35.2999 57.91 30.1999L59.28 31.5599C54.26 37.5799 44.76 33.7799 45.38 25.8699C45.64 22.6399 48.34 19.3099 51.65 18.8599L51.63 18.8699Z" fill="white"/>
<path d="M136.17 12.9199H133.85V34.2199H136.17V12.9199Z" fill="white"/>
<path d="M85.3998 19.02H83.0698V34.21H85.3998V19.02Z" fill="white"/>
<path d="M127.75 19.02H125.42V34.21H127.75V19.02Z" fill="white"/>
<path d="M144.61 19.02H142.28V34.22H144.61V19.02Z" fill="white"/>
<path d="M85.6 13.3398C85.62 15.4198 86.06 16.1898 83.59 15.8798C82.32 15.7198 83.03 14.3298 82.86 13.3398H85.6Z" fill="white"/>
<path d="M127.95 13.3398C127.97 15.4198 128.41 16.1898 125.94 15.8798C124.67 15.7198 125.38 14.3298 125.21 13.3398H127.95Z" fill="white"/>
<path d="M144.6 13.3301H142.06V15.8701H144.6V13.3301Z" fill="white"/>
<path d="M70.2098 18.71C65.8398 18.71 62.2998 22.25 62.2998 26.62C62.2998 30.99 65.8398 34.53 70.2098 34.53C74.5798 34.53 78.1198 30.99 78.1198 26.62C78.1198 22.25 74.5798 18.71 70.2098 18.71ZM70.1998 32.32C67.0498 32.32 64.4998 29.77 64.4998 26.61C64.4998 23.45 67.0498 20.9 70.1998 20.9C73.3498 20.9 75.8998 23.45 75.8998 26.61C75.8998 29.77 73.3498 32.32 70.1998 32.32Z" fill="white"/>
<path d="M28.4299 31.2997C30.9318 31.2997 32.9599 29.2716 32.9599 26.7697C32.9599 24.2679 30.9318 22.2397 28.4299 22.2397C25.9281 22.2397 23.8999 24.2679 23.8999 26.7697C23.8999 29.2716 25.9281 31.2997 28.4299 31.2997Z" fill="white"/>
</g>
<defs>
<clipPath id="clip0_24213_5173">
<rect width="192" height="48" fill="white"/>
</clipPath>
</defs>
</svg>
