<svg preserveAspectRatio="none" width="100%" height="100%" overflow="visible" style="display: block;" viewBox="0 0 19 24" fill="none" xmlns="http://www.w3.org/2000/svg">
<g id="Group 15025">
<path id="Vector" d="M0 7.42C0 7.29474 0.104396 7.19158 0.231162 7.18421C4.06397 7.06632 7.1511 4.01579 7.27041 0.228421C7.27041 0.103158 7.38226 0 7.50903 0H18.7688C18.8956 0 19 0.103158 19 0.228421V13.5137C19 13.6389 18.8956 13.7421 18.7688 13.7421H12.3411C12.2143 13.7421 12.1099 13.6389 12.1099 13.5137V8.09053C12.1099 7.85474 11.7892 7.76632 11.655 7.95789C9.13462 11.5463 4.96625 13.9189 0.231162 14C0.104396 14 0 13.8968 0 13.7716V7.42Z" fill="var(--fill-0, white)"/>
<path id="Vector_2" d="M19 17.2348C19 17.1061 18.8956 17 18.7688 17H0.231162C0.104396 17 0 17.1061 0 17.2348V23.7652C0 23.8939 0.104396 24 0.231162 24H18.7688C18.8956 24 19 23.8939 19 23.7652V17.2348Z" fill="var(--fill-0, white)"/>
</g>
</svg>
