<?xml version="1.0" encoding="UTF-8"?>
<svg id="Camada_2" data-name="Camada 2" xmlns="http://www.w3.org/2000/svg" viewBox="0 5 192 37">
  <defs>
    <style>
      .cls-1 {
        fill: #fff;
      }

      .cls-2 {
        fill: none;
      }
    </style>
  </defs>
  <g id="Camada_1-2" data-name="Camada 1">
    <g id="Kenetic">
      <rect class="cls-2" width="192" height="48"/>
      <g id="Kenetic-2" data-name="Kenetic">
        <path class="cls-1" d="M49.78,24.31l14.37-14.54h4.45c.07,0,.28.29.2.4l-11.34,11.51,11.61,17.17h-4.39l-9.79-14.41-.34.13-4.79,4.92v9.36h-3.71l-.07-29.09h3.58l.2.2v14.34Z"/>
        <path class="cls-1" d="M123.46,29.15c-.03,2.08,1.33,4.87,3.2,5.9,2.35,1.31,6.73,1.22,8.75-.65.54-.5.94-.98,1.01-1.75.96.52,2.18.98,3.07,1.58.1.07.23-.03.16.23-1.61,2.6-3.92,4.14-6.96,4.64-9.93,1.63-15.25-7.06-12.41-16.02,3.05-9.61,17.81-8.96,19.61,1.05.3,1.65.17,3.35.03,5.02h-16.47ZM123.46,25.92h12.96c-.19-2.15-1.18-4.45-3.14-5.55-1.78-1-4.52-1-6.35-.09-2.1,1.05-3.29,3.35-3.46,5.63Z"/>
        <path class="cls-1" d="M73.26,29.15c.3,2.34,1.37,4.94,3.62,6.02,2.51,1.21,7.37,1.12,9.05-1.4.21-.31.29-.7.51-1,.27-.06,2.11.94,2.48,1.15.16.09.73.32.66.52-.24.7-1.55,2.08-2.14,2.58-2.94,2.48-8.07,2.75-11.58,1.45-8.62-3.19-8.44-19.48,1.02-21.81,7.2-1.78,13.06,2.44,13.2,9.88.02.83-.35,1.74-.22,2.6h-16.6ZM73.39,25.92h12.96c-.18-2.19-1.18-4.43-3.14-5.55-2.72-1.55-7.03-.72-8.69,2.03-.65,1.07-.91,2.31-1.13,3.52Z"/>
        <path class="cls-1" d="M95.26,38.85l.02-22,.18-.19c.44.29,2.68-.06,2.85.08.37.31.13,1.11.2,1.56l.27,1.55c.71-1.51,2.68-2.79,4.27-3.22,5.03-1.34,10.67.88,11.51,6.4.72,4.76-.23,10.48.16,15.34l-.21.46h-3.37l-.2-.2v-14c0-.4-.57-2.15-.78-2.58-1.7-3.47-7.4-2.98-9.6-.24-.69.85-1.62,2.98-1.62,4.04v12.99h-3.64Z"/>
        <path class="cls-1" d="M189.13,35.69c-4.48,5.42-14.11,4.54-17.22-1.9-1.69-3.5-1.71-9.15.24-12.55,3.56-6.2,13.25-6.76,17.44-.91.22.31,1.06,1.68.88,1.95l-3.25,1.62c-.37,0-.61-1.16-.8-1.49-1.78-3.2-6.2-3.6-9.08-1.64-4.09,2.79-3.93,12.05.6,14.41,3.09,1.61,7.62.81,9.11-2.57.14-.31.1-1.18.55-1.15l3.19,1.27c-.4,1.15-.9,2.03-1.67,2.96Z"/>
        <path class="cls-1" d="M146.14,11.71c.09-.29,2.35-.9,2.78-1,.37-.08.75-.16,1.13-.15.05.15-.13.29-.13.34v5.72c.13-.04.29.13.34.13h7.9c-.22,1.03-.21,2.21,0,3.23h-8.23v12.59c0,.29.27,1.3.4,1.62.91,2.17,4.02,1.7,5.69.72.3-.17.57-.76,1.06-.66l1.12,2.92c-.13.29-1.15.93-1.47,1.1-3.11,1.6-8.32,1.44-9.89-2.22-.23-.55-.69-2.27-.69-2.81v-13.26h-4.12l-.2-.2v-2.83c0-.3.4-.2.47-.2h3.85v-5.05Z"/>
        <rect class="cls-1" x="161.66" y="16.66" width="3.79" height="22.19"/>
        <ellipse class="cls-1" cx="163.51" cy="10.02" rx="2.73" ry="2.72"/>
        <path class="cls-1" d="M10.33,6.69c1.33-.26,2.39,1.63,1.02,2.51-1.99,1.28-3.03-2.12-1.02-2.51Z"/>
        <path class="cls-1" d="M26.26,6.7c1.5-.39,2.36,1.72,1.16,2.5-1.92,1.26-3.11-2-1.16-2.5Z"/>
        <circle class="cls-1" cx="34.63" cy="8.07" r="1.39"/>
        <path class="cls-1" d="M2.37,6.69c2.08-.4,2.03,3.3-.1,2.74-1.48-.38-1.37-2.46.1-2.74Z"/>
        <circle class="cls-1" cx="2.59" cy="32.01" r="1.38"/>
        <circle class="cls-1" cx="34.64" cy="32" r="1.38"/>
        <circle class="cls-1" cx="18.61" cy="8.07" r="1.38"/>
        <circle class="cls-1" cx="34.64" cy="24.03" r="1.38"/>
        <circle class="cls-1" cx="2.58" cy="39.97" r="1.38"/>
        <path class="cls-1" d="M9.46,40.83c-.83-1.05.47-2.94,1.92-1.98,1.85,1.22-.69,3.54-1.92,1.98Z"/>
        <path class="cls-1" d="M34.49,38.6c1.66-.19,2.01,2.27.75,2.64-2.22.65-2.66-2.42-.75-2.64Z"/>
        <circle class="cls-1" cx="2.58" cy="24.03" r="1.37"/>
        <path class="cls-1" d="M26.4,38.6c1.79-.26,2.05,2.3.74,2.63-2.25.58-2.48-2.38-.74-2.63Z"/>
        <circle class="cls-1" cx="2.58" cy="16.05" r="1.37"/>
        <circle class="cls-1" cx="34.64" cy="16.05" r="1.37"/>
        <circle class="cls-1" cx="18.62" cy="39.97" r="1.37"/>
        <circle class="cls-1" cx="18.61" cy="11.52" r="1.21"/>
        <circle class="cls-1" cx="12.24" cy="11.09" r="1.21"/>
        <circle class="cls-1" cx="31.67" cy="30.51" r="1.2"/>
        <path class="cls-1" d="M31.25,16.39c2.05-.47,2.27,2.75,0,2.23-1.09-.25-.99-2,0-2.23Z"/>
        <circle class="cls-1" cx="25.14" cy="11.02" r="1.2"/>
        <circle class="cls-1" cx="18.61" cy="36.53" r="1.2"/>
        <circle class="cls-1" cx="4.99" cy="37.57" r="1.2"/>
        <circle class="cls-1" cx="5.68" cy="30.66" r="1.2"/>
        <circle class="cls-1" cx="32.23" cy="10.48" r="1.2"/>
        <path class="cls-1" d="M30.84,22.85c1.64-.36,1.93,1.93.89,2.23-2.07.6-2.27-1.93-.89-2.23Z"/>
        <circle class="cls-1" cx="32.22" cy="37.58" r="1.2"/>
        <path class="cls-1" d="M5.74,22.85c1.6-.41,2.13,2.09.58,2.34-1.71.27-1.83-2.01-.58-2.34Z"/>
        <path class="cls-1" d="M4.2,9.53c.25-.2.93-.23,1.24-.17,1.22.23.9,2.64-.78,2.26-.88-.2-1.17-1.51-.46-2.09Z"/>
        <circle class="cls-1" cx="25.13" cy="37.02" r="1.2"/>
        <circle class="cls-1" cx="5.56" cy="17.52" r="1.19"/>
        <circle class="cls-1" cx="12.07" cy="37.02" r="1.19"/>
        <circle class="cls-1" cx="29.02" cy="18.85" r="1.03"/>
        <circle class="cls-1" cx="15.05" cy="20.47" r="1.03"/>
        <circle class="cls-1" cx="15.04" cy="27.58" r="1.03"/>
        <circle class="cls-1" cx="22.17" cy="20.47" r="1.03"/>
        <circle class="cls-1" cx="8.22" cy="18.85" r="1.03"/>
        <path class="cls-1" d="M14.65,23.12c2.3-.54,1.42,2.74-.09,1.78-.74-.47-.78-1.58.09-1.78Z"/>
        <path class="cls-1" d="M21.66,23.12c1.75-.53,2.02,1.54.72,1.94-1.16.36-1.69-1.65-.72-1.94Z"/>
        <path class="cls-1" d="M12.7,14.43c-.94-.76.29-2.46,1.38-1.58s-.26,2.48-1.38,1.58Z"/>
        <path class="cls-1" d="M18.43,19.48c1.47-.21,1.47,1.77.47,1.97-1.5.3-1.84-1.77-.47-1.97Z"/>
        <circle class="cls-1" cx="18.61" cy="33.42" r="1.03"/>
        <circle class="cls-1" cx="30.04" cy="35.43" r="1.03"/>
        <circle class="cls-1" cx="22.17" cy="27.57" r="1.02"/>
        <path class="cls-1" d="M19.38,15.39c-.9.9-2.66-.66-1.39-1.59,1.09-.8,2.18.8,1.39,1.59Z"/>
        <circle class="cls-1" cx="7.17" cy="35.42" r="1.02"/>
        <circle class="cls-1" cx="7.16" cy="12.62" r="1.02"/>
        <circle class="cls-1" cx="23.95" cy="13.52" r="1.02"/>
        <circle class="cls-1" cx="29.03" cy="29.2" r="1.02"/>
        <circle class="cls-1" cx="23.81" cy="34.38" r="1.02"/>
        <circle class="cls-1" cx="30.05" cy="12.62" r="1.02"/>
        <circle class="cls-1" cx="18.59" cy="27.56" r="1.02"/>
        <path class="cls-1" d="M28.82,23.27c.98,1.06-.81,2.59-1.59,1.38s.95-2.07,1.59-1.38Z"/>
        <circle class="cls-1" cx="9.17" cy="24.05" r="1.02"/>
        <circle class="cls-1" cx="13.41" cy="34.37" r="1.01"/>
        <circle class="cls-1" cx="8.21" cy="29.2" r="1.01"/>
        <circle class="cls-1" cx="14.57" cy="32.06" r=".87"/>
        <circle class="cls-1" cx="22.65" cy="32.05" r=".86"/>
        <circle class="cls-1" cx="18.61" cy="17.37" r=".86"/>
        <path class="cls-1" d="M11.14,28.72c-.71.71-2.01-.51-1.28-1.28.85-.89,2.05.52,1.28,1.28Z"/>
        <circle class="cls-1" cx="26.69" cy="28.04" r=".85"/>
        <circle class="cls-1" cx="28.16" cy="33.53" r=".85"/>
        <circle class="cls-1" cx="10.54" cy="20.02" r=".85"/>
        <path class="cls-1" d="M9.66,13.83c.59.58-.11,2.06-1.04,1.38-1.09-.79.32-2.1,1.04-1.38Z"/>
        <circle class="cls-1" cx="28.15" cy="14.51" r=".84"/>
        <circle class="cls-1" cx="18.6" cy="30.68" r=".85"/>
        <path class="cls-1" d="M25.16,23.13c1.04-.11,1.28,1.61.24,1.71-1.3.12-1.13-1.62-.24-1.71Z"/>
        <path class="cls-1" d="M27.34,20.64c-.69.68-1.99-.28-1.39-1.19.55-.82,2.28.29,1.39,1.19Z"/>
        <path class="cls-1" d="M11.92,23.15c1.08,0,1.13,1.7,0,1.7s-1-1.69,0-1.7Z"/>
        <circle class="cls-1" cx="9.06" cy="33.52" r=".84"/>
        <circle class="cls-1" cx="22.65" cy="15.96" r=".83"/>
        <circle class="cls-1" cx="14.56" cy="15.96" r=".83"/>
        <circle class="cls-1" cx="24.67" cy="21.01" r=".69"/>
        <circle class="cls-1" cx="26.52" cy="31.86" r=".68"/>
        <path class="cls-1" d="M21.2,30.59c-.66-.55.06-1.66.85-1.05.62.48-.1,1.67-.85,1.05Z"/>
        <circle class="cls-1" cx="10.72" cy="31.85" r=".67"/>
        <circle class="cls-1" cx="12.56" cy="20.99" r=".68"/>
        <circle class="cls-1" cx="15.6" cy="30.05" r=".68"/>
        <path class="cls-1" d="M24.22,26.48c.37-.05.83-.1,1.06.25.34.68-.7,1.3-1.22.68-.12-.26-.17-.82.15-.92Z"/>
        <path class="cls-1" d="M12.21,26.48c1.42-.49,1.27,1.5.14,1.17-.55-.16-.66-.99-.14-1.17Z"/>
        <path class="cls-1" d="M15.18,17.46c.37-.05.83-.1,1.06.25.34.68-.7,1.3-1.22.68-.12-.26-.17-.82.15-.92Z"/>
        <path class="cls-1" d="M26.94,15.58c.06.04.3.61.23.78-.19.48-1.27.8-1.3-.2-.02-.65.65-.83,1.06-.58Z"/>
        <path class="cls-1" d="M10.25,15.57c.14-.09.89-.06,1,.11.32.46.1,1.21-.68,1.09-.62-.1-.56-1.04-.32-1.19Z"/>
        <path class="cls-1" d="M21.25,17.46c1.42-.5,1.27,1.52.14,1.17-.49-.15-.59-1.02-.14-1.17Z"/>
        <path class="cls-1" d="M11.74,30.88c-.27-.17-.19-1.09.52-.87.95.29,0,1.2-.52.87Z"/>
        <path class="cls-1" d="M25.46,17.96c-.45.28-1.32-.19-.76-.75.62-.62,1.14.51.76.75Z"/>
        <path class="cls-1" d="M12.49,17.2c.57.58-.28,1.08-.85.65-.25-.56.46-1.04.85-.65Z"/>
        <path class="cls-1" d="M25.45,30.87c-.33.35-1.36-.27-.58-.78.6-.4.9.45.58.78Z"/>
      </g>
    </g>
  </g>
</svg>