<?xml version="1.0" encoding="UTF-8"?>
<svg id="Camada_2" data-name="Camada 2" xmlns="http://www.w3.org/2000/svg" viewBox="0 0 192 48">
  <defs>
    <style>
      .cls-1 {
        fill: #fff;
      }

      .cls-2 {
        fill: none;
      }
    </style>
  </defs>
  <g id="Camada_1-2" data-name="Camada 1">
    <g id="MindFund">
      <g id="MindFund-2" data-name="MindFund">
        <polygon class="cls-1" points="41.81 14.06 46.13 27.44 50.46 14.06 56.83 14.06 56.83 33.57 52.09 33.57 52.34 20.51 47.61 33.58 44.43 33.55 40.01 20.67 40.34 33.57 35.6 33.57 35.6 14.06 41.81 14.06"/>
        <polygon class="cls-1" points="160.36 14.06 167.3 26.15 167.39 14.06 172.12 14.06 172.12 33.73 167.47 33.73 160.2 21.47 160.2 33.73 155.47 33.73 155.47 14.06 160.36 14.06"/>
        <polygon class="cls-1" points="75.12 14.06 82.06 26.15 82.14 14.06 86.88 14.06 86.88 33.57 81.98 33.57 74.96 21.47 74.96 33.57 70.22 33.57 70.22 14.06 75.12 14.06"/>
        <path class="cls-1" d="M185.19,14.06c4.01.99,6.28,3.74,6.54,7.81.49,7.55-1.48,11.54-9.55,11.87-1.98.08-3.99-.08-5.97,0V14.06h8.98ZM180.94,30.02c2.1.01,4.47.08,5.47-2.1.9-1.94.93-7.58-.65-9.2-.24-.25-1.36-.96-1.64-.96h-3.18v12.26Z"/>
        <path class="cls-1" d="M99.78,14.06c2.47.31,5.28,2.75,6.05,5.07.86,2.6.79,8.3-.63,10.68-.85,1.42-3.63,3.76-5.33,3.76h-9.06V14.06c2.81.26,6.25-.35,8.98,0ZM95.53,30.02c2.1.01,4.47.08,5.47-2.1.9-1.94.93-7.58-.65-9.2-.24-.25-1.36-.96-1.64-.96h-3.18v12.26Z"/>
        <path class="cls-1" d="M139.95,14.06v13.77c.46,3.24,6.36,3.25,6.79-.06l.07-13.72h4.74v13.63c-.22,3.62-3.25,5.97-6.77,6.21-5.15.36-9.34-1.25-9.73-6.85-.29-4.21.23-8.74,0-12.99h4.9Z"/>
        <polygon class="cls-1" points="132.11 14.06 132.11 17.77 122.8 17.77 122.8 22.28 130.81 22.28 130.81 25.99 122.8 25.99 122.8 33.57 118.07 33.57 118.07 14.06 132.11 14.06"/>
        <rect class="cls-1" x="61.08" y="14.06" width="4.74" height="19.51"/>
        <rect class="cls-1" y="14.06" width="4.25" height="20"/>
        <rect class="cls-1" x="12.41" y="14.06" width="4.25" height="20"/>
        <rect class="cls-1" x="6.21" y="14.06" width="4.08" height="4.03"/>
        <rect class="cls-1" x="18.45" y="14.06" width="4.08" height="4.03"/>
        <rect class="cls-1" x="24.66" y="14.06" width="4.08" height="4.03"/>
        <rect class="cls-1" x="6.21" y="19.22" width="4.08" height="4.19"/>
        <rect class="cls-1" x="18.45" y="19.38" width="4.08" height="4.03"/>
        <rect class="cls-1" x="6.21" y="24.7" width="4.08" height="4.03"/>
      </g>
      <rect class="cls-2" width="192" height="48"/>
    </g>
  </g>
</svg>