<?xml version="1.0" encoding="UTF-8"?>
<svg id="Camada_2" data-name="Camada 2" xmlns="http://www.w3.org/2000/svg" viewBox="0 0 192 48">
  <defs>
    <style>
      .cls-1 {
        fill: #fff;
      }

      .cls-2 {
        fill: none;
      }
    </style>
  </defs>
  <g id="Camada_1-2" data-name="Camada 1">
    <g id="Pantera">
      <rect class="cls-2" width="192" height="48"/>
      <g id="Pantera-2" data-name="Pantera">
        <path class="cls-1" d="M70.1,30.59h-2.18l-1.38-2.69h-8.06l-1.38,2.69h-2.18l6.33-11.97h2.5l6.33,11.97ZM65.59,26.11l-3.04-5.79-3.1,5.79h6.14ZM94.48,30.59h-2.46l-9.15-9.82v9.82h-1.98v-11.97h2.46l9.15,9.82v-9.82h1.98v11.97h0ZM118.73,20.38v-1.79h-13.44v1.79h5.73v1.79h-3.74v1.79h3.74v6.62h1.98v-6.62h3.71v-1.79h-3.74v-1.79h5.76ZM142.06,20.38h-10.56v3.3h7.01v1.79h-7.01v3.33h10.56v1.79h-12.54v-11.97h12.54v1.76ZM192,30.59h-2.18l-1.38-2.69h-8.06l-1.38,2.69h-2.18l6.33-11.97h2.5l6.33,11.97ZM187.46,26.11l-3.04-5.79-3.1,5.79h6.14ZM43,18.59h-9.76v12h1.98v-4.58h7.77c2.05,0,3.71-1.66,3.71-3.71,0-2.05-1.66-3.71-3.71-3.71h0ZM43,24.22h-7.77v-3.84h7.77c1.06,0,1.92.86,1.92,1.92s-.86,1.92-1.92,1.92h0ZM166.47,30.59l-3.17-4.64c1.73-.32,3.07-1.82,3.07-3.65,0-2.05-1.66-3.71-3.71-3.71h-9.76v12h1.98v-4.58h6.05l3.23,4.58h2.3ZM154.89,20.38h7.77c1.06,0,1.92.86,1.92,1.92s-.86,1.92-1.92,1.92h-7.77v-3.84Z"/>
        <path class="cls-1" d="M0,35.58h23.16V12.42H0v23.16ZM15.25,16.4h2.21v10.46h-2.21v-10.46ZM10.48,16.4h2.21v15.2h-2.21v-15.2ZM5.74,16.4h2.21v10.46h-2.21v-10.46Z"/>
      </g>
    </g>
  </g>
</svg>