<svg preserveAspectRatio="none" width="100%" height="100%" overflow="visible" style="display: block;" viewBox="0 0 24 24" fill="none" xmlns="http://www.w3.org/2000/svg">
<g id="Spoon finance">
<path id="Vector" d="M23.9617 11.04H7.67997C7.67997 8.67009 9.63005 6.72 12 6.72C13.8505 6.72 15.445 7.90905 16.055 9.55851L22.9526 7.09061C21.0763 2.91105 16.8782 0 12 0C5.37257 0 0 5.37259 0 12C0 12.3231 0.0132 12.6433 0.0382559 12.96H16.1289C16.1289 15.3298 14.1788 17.28 11.8089 17.28C9.95834 17.28 8.36378 16.091 7.7538 14.4415L1.02149 16.8502C2.8847 21.0614 7.09884 24 12 24C18.6274 24 24 18.6274 24 12C24 11.6769 23.9868 11.3567 23.9617 11.04Z" fill="var(--fill-0, white)"/>
</g>
</svg>
