<svg width="32" height="33" viewBox="0 0 32 33" fill="none" xmlns="http://www.w3.org/2000/svg">
<path d="M0 4.05071C0 2.08971 1.58971 0.5 3.55071 0.5H28.4493C30.4103 0.5 32 2.08971 32 4.05071V28.9493C32 30.9103 30.4103 32.5 28.4493 32.5H3.55071C1.58971 32.5 0 30.9103 0 28.9493V4.05071Z" fill="#0D0229"/>
<path d="M8.7793 13.2096C8.7793 13.1115 8.85919 13.0323 8.9572 13.0292C11.8709 12.9372 14.2165 10.5916 14.3085 7.6779C14.3116 7.5799 14.3908 7.5 14.4889 7.5H23.0462C23.1443 7.5 23.2237 7.57948 23.2237 7.67753V17.8973C23.2237 17.9953 23.1443 18.0748 23.0462 18.0748H18.1627C18.0646 18.0748 17.9851 17.9953 17.9851 17.8973V13.7268C17.9851 13.5474 17.7424 13.4771 17.6402 13.6246C15.7276 16.3865 12.557 18.2109 8.95717 18.2692C8.85914 18.2708 8.7793 18.1912 8.7793 18.0931V13.2096Z" fill="#E6E0F7"/>
<path d="M23.2237 20.4558C23.2237 20.3577 23.1443 20.2782 23.0462 20.2782H8.95683C8.85878 20.2782 8.7793 20.3577 8.7793 20.4558V25.3393C8.7793 25.4374 8.85878 25.5169 8.95683 25.5169H23.0462C23.1443 25.5169 23.2237 25.4374 23.2237 25.3393V20.4558Z" fill="#E6E0F7"/>
</svg>
