<svg width="30" height="32" viewBox="0 0 29.3333 32" fill="none" xmlns="http://www.w3.org/2000/svg">
<path d="M11.8644 11.4094L2.4581 5.80599L0 10.1942L6.98101 14.3461L11.8644 11.4094Z" fill="#D7CDCB"/>
<path d="M22.3523 14.3461L29.3333 10.1942L26.8752 5.80599L17.4361 11.4094L22.3523 14.3461Z" fill="#D7CDCB"/>
<path d="M14.6502 9.75527L17.1083 8.3038V0H12.1921V8.3038L14.6502 9.75527Z" fill="#D7CDCB"/>
<path d="M29.3333 21.8059L17.1084 14.5485L14.6503 13.097L0 21.8059L2.4581 26.194L9.76685 21.8396C9.99628 21.7046 10.2585 21.6033 10.5534 21.6033C11.4711 21.6033 12.1922 22.3459 12.1922 23.2911V32H17.1084V23.2911C17.1084 22.3459 17.8294 21.6033 18.7471 21.6033C19.0421 21.6033 19.3043 21.7046 19.5337 21.8396L26.8752 26.1603L29.3333 21.8059Z" fill="#D7CDCB"/>
</svg>
