<svg xmlns="http://www.w3.org/2000/svg" width="24" height="24" viewBox="0 0 24 24" fill="none">
  <rect width="24" height="24" rx="12" fill="#C26C64"/>
  <path d="M10.599 9.70452L5.8958 6.90283L4.66675 9.09692L8.15725 11.1729L10.599 9.70452Z" fill="#FFD92F"/>
  <path d="M15.8429 11.1729L19.3334 9.09692L18.1043 6.90283L13.3848 9.70452L15.8429 11.1729Z" fill="#FFD92F"/>
  <path d="M11.9917 8.87764L13.2208 8.1519V4H10.7627V8.1519L11.9917 8.87764Z" fill="#FFD92F"/>
  <path d="M19.3334 14.9028L13.2209 11.2741L11.9919 10.5483L4.66675 14.9028L5.8958 17.0969L9.55017 14.9196C9.66489 14.8521 9.79599 14.8015 9.94347 14.8015C10.4023 14.8015 10.7628 15.1728 10.7628 15.6454V19.9998H13.2209V15.6454C13.2209 15.1728 13.5815 14.8015 14.0403 14.8015C14.1878 14.8015 14.3189 14.8521 14.4336 14.9196L18.1044 17.08L19.3334 14.9028Z" fill="#FFD92F"/>
</svg>
