<svg preserveAspectRatio="none" width="100%" height="100%" overflow="visible" style="display: block;" viewBox="0 0 48.75 16.5709" fill="none" xmlns="http://www.w3.org/2000/svg">
<g id="Houdini Swap black text 1" clip-path="url(#clip0_0_204)">
<path id="Vector" d="M47.3255 8.18253e-05C47.3716 0.133561 47.464 0.234317 47.5562 0.33421C47.8556 0.655424 48.2141 0.873296 48.636 0.98094C48.6611 0.986967 48.6853 0.99644 48.7241 1.0085C48.7241 1.0438 48.725 1.08084 48.7241 1.117C48.6579 2.9659 48.5975 4.81396 48.5791 6.66372C48.5662 7.95287 48.5747 9.24289 48.6234 10.5312C48.6459 11.1409 48.6856 11.7497 48.7174 12.3585C48.7188 12.3964 48.7174 12.4343 48.7174 12.4869C48.1438 12.573 47.6659 12.8391 47.2937 13.305C47.1595 13.1293 47.0448 12.9536 46.9039 12.8038C46.7647 12.6557 46.6078 12.5196 46.4427 12.4033C46.2743 12.2853 46.0847 12.1993 45.8945 12.0924C45.8945 12.0494 45.8895 11.9883 45.8945 11.9288C45.9724 11.1151 46.0211 10.2995 46.0529 9.48314C46.1165 7.85642 46.1034 6.2297 46.0395 4.60297C46.0018 3.64796 45.9441 2.69464 45.8962 1.74048C45.891 1.63714 45.8962 1.5338 45.8962 1.41755C45.9254 1.40118 45.9648 1.37966 46.0036 1.35899C46.5348 1.07136 46.945 0.658866 47.2149 0.106004C47.2318 0.0715579 47.2435 0.0353893 47.2578 8.18253e-05C47.2802 8.18253e-05 47.303 8.18253e-05 47.3246 8.18253e-05H47.3255Z" fill="var(--fill-0, black)"/>
<path id="Vector_2" d="M4.23046 12.0477C4.32769 10.7715 4.34616 9.50989 4.34111 8.25605C4.33105 8.24484 4.32854 8.24228 4.32603 8.23968C4.32352 8.23708 4.32098 8.23364 4.31766 8.23279C4.29919 8.2302 4.28075 8.22591 4.26231 8.22591C3.7576 8.24228 3.25292 8.25949 2.7482 8.2767C2.73814 8.2767 2.72724 8.28446 2.70125 8.29394C2.7088 8.94412 2.73562 9.59858 2.78006 10.2514C2.82449 10.9015 2.88653 11.5508 2.94186 12.2148C2.66185 12.3276 2.40027 12.4946 2.16134 12.6996C1.92408 12.9037 1.74383 13.1577 1.56777 13.4342C1.37661 13.2146 1.17373 13.0191 0.9306 12.8744C0.684953 12.728 0.414159 12.6583 0.125757 12.6101C0.314392 8.77963 0.181928 4.95782 0 1.13083C0.295108 1.04816 0.56842 0.950848 0.814064 0.78034C1.06055 0.609831 1.25002 0.386792 1.42608 0.119833C1.6122 0.420377 1.78407 0.709726 2.03223 0.941375C2.28039 1.17217 2.54364 1.37712 2.85635 1.5261C2.80773 2.80492 2.73982 4.07945 2.71131 5.36515C3.24452 5.38581 3.76096 5.40045 4.29417 5.41682C4.25394 4.1621 4.1944 2.92549 4.13739 1.69231C5.15434 1.31426 4.92127 1.44343 5.57605 0.802731C5.90636 1.37195 6.38675 1.75861 6.98537 2.00232C6.98537 2.05313 6.98703 2.09877 6.98537 2.14355C6.9468 2.89448 6.90237 3.64542 6.86966 4.39721C6.8051 5.86978 6.78331 7.34322 6.84872 8.81666C6.87302 9.36522 6.90403 9.9129 6.9426 10.4597C6.96775 10.8197 7.01218 11.1771 7.04824 11.5362C7.0541 11.593 7.05746 11.6499 7.06332 11.7196C6.78666 11.8273 6.51838 11.9504 6.27944 12.1321C6.04302 12.3121 5.85187 12.536 5.67078 12.784C5.4654 12.5851 5.265 12.3965 5.01434 12.2768C4.76869 12.1597 4.50881 12.0899 4.23212 12.0477H4.23046Z" fill="var(--fill-0, black)"/>
<path id="Vector_3" d="M44.3167 1.63361C44.3167 1.69045 44.3181 1.73265 44.3167 1.77398C44.2948 2.37249 44.2729 2.97014 44.2496 3.56862C44.1816 5.32884 44.1556 7.09076 44.1807 8.85182C44.1941 9.81892 44.237 10.7851 44.3082 11.7496C44.3123 11.8056 44.3082 11.8633 44.3082 11.9184C43.3408 12.1905 43.5176 12.1216 42.8836 12.6392C42.5309 12.1389 42.0656 11.7961 41.4745 11.6273C41.4894 11.4853 41.5054 11.3492 41.5189 11.2123C41.5372 11.0254 41.5524 10.8377 41.5725 10.6508C41.5801 10.5784 41.5658 10.5164 41.5264 10.4553C41.2639 10.0497 41.0109 9.63635 40.7393 9.23762C40.3469 8.66237 39.9411 8.09747 39.5403 7.52822C39.526 7.50841 39.5067 7.49208 39.4875 7.47055C39.453 7.59626 39.4565 8.57368 39.5009 9.45205C39.5336 10.11 39.5779 10.7679 39.6182 11.4405C39.0942 11.5214 38.6073 11.7074 38.2064 12.1139C38.1236 12.0252 38.0512 11.9399 37.9701 11.8633C37.8878 11.7858 37.8006 11.7117 37.7093 11.6454C37.618 11.5791 37.5205 11.5197 37.4225 11.4663C37.3236 11.4121 37.2212 11.3647 37.1174 11.3216C37.0144 11.2794 36.907 11.2476 36.7921 11.208C36.8029 11.0951 36.8148 10.9858 36.8239 10.8755C36.8516 10.5586 36.8834 10.2417 36.9053 9.92397C37.0091 8.39455 37.0068 6.86343 36.9481 5.33228C36.912 4.40052 36.8475 3.47045 36.7956 2.53955C36.7929 2.50166 36.7921 2.46377 36.7897 2.41726C37.0748 2.31048 37.3438 2.17873 37.5885 2.00133C37.831 1.82565 38.0288 1.60347 38.2015 1.3391C38.5819 1.80929 39.0749 2.04524 39.6368 2.16236C39.6266 2.41038 39.6167 2.64719 39.6065 2.89349C40.2629 3.78996 40.9371 4.67951 41.6186 5.56308C41.6271 5.56136 41.6361 5.55876 41.6446 5.55704C41.6455 5.5183 41.6487 5.47868 41.6481 5.43994C41.6312 4.99903 41.6169 4.55809 41.5959 4.11718C41.5725 3.61857 41.5431 3.12083 41.5157 2.62308C41.5046 2.4319 41.4894 2.23987 41.4768 2.04869C41.4754 2.0263 41.4768 2.00391 41.4768 1.9686C42.0732 1.71714 42.5636 1.33307 42.8863 0.720785C43.0741 0.96277 43.2711 1.16859 43.5193 1.31498C43.7673 1.46138 44.034 1.55869 44.3167 1.63447V1.63361Z" fill="var(--fill-0, black)"/>
<path id="Vector_4" d="M8.18069 2.16424C9.3385 2.3046 10.4376 2.18576 11.4604 1.58468C11.4915 1.60534 11.5233 1.62429 11.5518 1.64754C12.0867 2.07726 12.697 2.3356 13.3552 2.48803C13.776 2.58534 14.2028 2.63615 14.632 2.6706C14.6614 2.67318 14.6907 2.67662 14.7335 2.68007C14.7351 2.72226 14.7393 2.76274 14.7376 2.80321C14.7184 3.22518 14.6949 3.64628 14.6781 4.06826C14.6337 5.21101 14.6052 6.35463 14.6354 7.49911C14.6538 8.17425 14.6756 8.8494 14.7075 9.52455C14.7301 9.9956 14.7729 10.4658 14.8072 10.9368C14.8098 10.9747 14.8123 11.0118 14.8156 11.06C14.6823 11.0738 14.5574 11.0867 14.4316 11.0996C13.9127 11.1521 13.4021 11.252 12.9075 11.4208C12.4246 11.5853 11.9769 11.8195 11.5753 12.1433C11.5636 12.1528 11.5501 12.1588 11.5325 12.1692C10.5013 11.5827 9.38544 11.4871 8.22346 11.5879C8.24356 11.0574 8.26539 10.5381 8.28132 10.018C8.29725 9.49614 8.30982 8.97427 8.31568 8.4524C8.32239 7.92625 8.32239 7.40094 8.31985 6.87475C8.31653 6.35291 8.30897 5.83105 8.29725 5.30918C8.28549 4.78731 8.27041 4.26544 8.25112 3.74361C8.23184 3.22259 8.20669 2.70246 8.18239 2.16337L8.18069 2.16424ZM12.3784 6.65775C12.3667 6.49499 12.3508 6.21168 12.3239 5.92922C12.2988 5.66569 12.2527 5.40478 12.1714 5.15246C12.1227 5.00262 12.0624 4.85794 11.9643 4.73392C11.8612 4.60389 11.7312 4.53414 11.5652 4.5393C11.5023 4.54102 11.4386 4.53758 11.3749 4.53154C11.203 4.51605 11.0672 4.58236 10.9683 4.72444C10.9272 4.78302 10.8928 4.84846 10.8627 4.9139C10.7512 5.15158 10.7017 5.40735 10.6648 5.66656C10.5667 6.35892 10.5709 7.05131 10.6682 7.7428C10.7084 8.02786 10.7595 8.31204 10.892 8.57038C10.9365 8.65735 10.9935 8.74175 11.0597 8.81238C11.1586 8.91828 11.286 8.95446 11.4294 8.92776C11.4797 8.91828 11.5334 8.91828 11.5845 8.9226C11.7245 8.93465 11.8453 8.89074 11.9383 8.78569C11.9953 8.7211 12.0532 8.64962 12.085 8.57038C12.1487 8.41194 12.2091 8.24917 12.2477 8.08209C12.3458 7.65411 12.3684 7.21752 12.3793 6.65775H12.3784Z" fill="var(--fill-0, black)"/>
<path id="Vector_5" d="M23.9566 2.7335C23.9926 2.73178 24.0262 2.72834 24.0588 2.72834C24.8151 2.73178 25.5688 2.69131 26.3199 2.60175C26.688 2.55783 27.0544 2.49927 27.4048 2.37182C27.5549 2.3167 27.6983 2.24006 27.8659 2.16256C27.8785 2.16945 27.9145 2.18667 27.9498 2.20648C28.4545 2.48377 28.9726 2.73264 29.5176 2.91693C29.8201 3.0194 30.127 3.10208 30.443 3.14426C30.5136 3.15374 30.5847 3.15719 30.6553 3.16322C30.6912 3.16667 30.7274 3.16926 30.7735 3.17355C30.6971 3.76086 30.6679 4.33783 30.6979 4.91741C30.7283 5.49523 30.8161 6.06188 31.025 6.60528C30.6804 7.84877 30.5503 9.11813 30.5798 10.4167C30.0844 10.4788 29.6223 10.6277 29.1662 10.8025C28.7135 10.9765 28.2868 11.2064 27.8617 11.4277C26.6234 10.7896 25.3214 10.6682 23.9624 10.8688C23.9624 10.831 23.9608 10.7948 23.9624 10.7578C24.0069 10.0094 24.0002 9.26193 23.9331 8.51531C23.8803 7.92196 23.783 7.33638 23.638 6.7594C23.6262 6.71118 23.6145 6.66295 23.6061 6.62681C23.6791 6.42443 23.7562 6.23669 23.8149 6.04292C23.9834 5.49266 24.0454 4.92601 24.0547 4.3516C24.0622 3.8513 24.0253 3.3544 23.9566 2.86009C23.9524 2.82995 23.9482 2.79981 23.9457 2.76881C23.9457 2.76192 23.9499 2.75417 23.9557 2.7335H23.9566ZM26.5472 8.20099C26.7517 8.27074 27.0074 8.28279 27.1935 8.2673C27.5834 8.23284 27.9028 8.06235 28.135 7.73598C28.3849 7.38461 28.5123 6.98332 28.5241 6.55446C28.5366 6.10666 28.4041 5.69157 28.1577 5.31957C27.969 5.03539 27.7142 4.84506 27.383 4.77186C27.1265 4.71503 26.8699 4.72623 26.6151 4.78478C26.5907 4.78995 26.5681 4.80287 26.5463 4.8106V8.20186L26.5472 8.20099Z" fill="var(--fill-0, black)"/>
<path id="Vector_6" d="M20.1411 2.95158C20.6576 2.81465 21.1053 2.56922 21.4398 2.11884C21.7743 2.56836 22.2085 2.84479 22.725 2.99377C22.7275 3.0265 22.7317 3.05232 22.73 3.07817C22.6856 3.74039 22.6395 4.40262 22.5942 5.06484C22.5791 5.27927 22.5649 5.4937 22.5498 5.70813C22.5263 6.04142 22.4928 6.3738 22.4802 6.70708C22.4651 7.09805 22.4601 7.48988 22.466 7.88085C22.4794 8.69463 22.5431 9.50585 22.6227 10.3153C22.6353 10.4411 22.647 10.5659 22.6596 10.7054C22.6118 10.7097 22.5724 10.7149 22.533 10.7166C22.1331 10.7313 21.7332 10.7511 21.3375 10.8182C20.6567 10.9328 20.0061 11.1377 19.41 11.5046C19.3941 11.514 19.3774 11.5218 19.3522 11.5356C18.3261 10.9698 17.2085 10.8742 16.0591 10.919C16.0591 10.8613 16.0565 10.8156 16.0591 10.7717C16.0917 10.2628 16.1312 9.75385 16.158 9.24404C16.2142 8.15899 16.2276 7.07307 16.1412 5.988C16.0985 5.45668 16.0716 4.92361 16.0389 4.39141C16.0096 3.91693 15.9819 3.44156 15.9543 2.9662C15.9509 2.91368 15.9543 2.86029 15.9543 2.79398C16.4724 2.66911 16.9092 2.40646 17.242 1.94832C17.5774 2.41593 17.9949 2.75437 18.5432 2.91368C18.5432 2.96535 18.544 3.01098 18.5432 3.05576C18.518 4.19507 18.4979 5.33526 18.4635 6.47456C18.4493 6.95422 18.4937 7.42529 18.6178 7.88601C18.6564 8.02809 18.7192 8.1676 18.793 8.29506C18.9045 8.48881 19.0747 8.58613 19.3027 8.5534C19.3539 8.54651 19.4075 8.55168 19.4595 8.55512C19.6213 8.5646 19.7513 8.49913 19.8544 8.37599C19.9508 8.26061 20.0145 8.12626 20.0606 7.98331C20.1495 7.7086 20.1856 7.42357 20.2141 7.13594C20.2484 6.78372 20.24 6.43066 20.2291 6.07756C20.2065 5.36367 20.1881 4.65063 20.1671 3.93673C20.1587 3.65687 20.1503 3.37697 20.142 3.09626C20.1403 3.0506 20.142 3.00497 20.142 2.95158H20.1411Z" fill="var(--fill-0, black)"/>
<path id="Vector_7" d="M32.4991 2.70229C33.5613 2.2674 33.4992 2.20626 33.9135 1.76449C34.2948 2.1899 34.7887 2.40002 35.3337 2.518C35.3337 2.60239 35.3369 2.68248 35.3337 2.76171C35.306 3.2672 35.275 3.7727 35.2491 4.27908C35.1919 5.41751 35.1601 6.55682 35.17 7.697C35.1744 8.18442 35.1828 8.67183 35.203 9.15836C35.2281 9.77152 35.2599 10.3847 35.3337 10.9944C35.3378 11.0314 35.3369 11.0701 35.3395 11.1218C34.8071 11.1873 34.3336 11.3888 33.9117 11.7487C33.7189 11.549 33.5109 11.3707 33.2679 11.2406C33.0272 11.1123 32.7734 11.0271 32.5067 10.9694C32.5067 10.935 32.5041 10.9091 32.5067 10.8833C32.7036 9.1558 32.7211 7.4223 32.6558 5.68705C32.6199 4.72859 32.5528 3.77185 32.5 2.81337C32.4982 2.77893 32.5 2.74448 32.5 2.70315L32.4991 2.70229Z" fill="var(--fill-0, black)"/>
<path id="Vector_8" d="M19.3138 12.8812H20.1513C20.4112 13.7122 20.672 14.5441 20.9327 15.3768H20.9629C21.2345 14.5467 21.5053 13.7165 21.7778 12.8838H22.529C22.7931 13.7234 23.0555 14.5604 23.3187 15.3984H23.3456C23.4873 14.9833 23.6147 14.5622 23.7505 14.1445C23.8863 13.7269 24.0179 13.3075 24.1529 12.8855H24.9251C24.5453 14.0885 24.163 15.2838 23.7807 16.4843H22.9071C22.6547 15.686 22.4007 14.8851 22.1475 14.0842C22.1383 14.0842 22.1291 14.0842 22.1199 14.0834C21.8524 14.8817 21.5992 15.6843 21.3318 16.486H20.4649C20.0826 15.2907 19.7003 14.0937 19.313 12.8821L19.3138 12.8812Z" fill="var(--fill-0, black)"/>
<path id="Vector_9" d="M30.1407 12.8821C30.1658 12.8804 30.1842 12.8787 30.2026 12.8787C30.7032 12.8787 31.2044 12.8761 31.705 12.8804C31.9413 12.8821 32.1736 12.9217 32.395 13.0122C32.9087 13.2214 33.1923 13.6675 33.1696 14.235C33.1471 14.8171 32.8384 15.2296 32.2911 15.4053C32.0898 15.4699 31.8827 15.4983 31.6723 15.4992C31.4626 15.5 31.254 15.4992 31.0442 15.4992C31.0116 15.4992 30.9789 15.5018 30.9354 15.5043V16.4809H30.1457C30.1212 16.4051 30.1139 13.0414 30.1398 12.8821H30.1407ZM30.9421 13.5659V14.8188C30.9681 14.8223 30.9856 14.8266 31.004 14.8266C31.2094 14.8266 31.415 14.8335 31.6195 14.8232C31.7409 14.8171 31.8643 14.7947 31.9816 14.7603C32.114 14.7215 32.2182 14.632 32.2844 14.5037C32.4805 14.1204 32.2894 13.6864 31.8795 13.5874C31.8325 13.5762 31.7838 13.5659 31.7359 13.565C31.4894 13.5607 31.2438 13.559 30.9973 13.5572C30.9798 13.5572 30.9614 13.5633 30.9421 13.5676V13.5659Z" fill="var(--fill-0, black)"/>
<path id="Vector_10" d="M26.1339 16.4869H25.3325C25.3325 16.4869 25.3258 16.4809 25.3249 16.4774C25.3233 16.474 25.3216 16.4697 25.3216 16.4663C25.3241 16.4551 25.3266 16.4439 25.3308 16.4335C25.8431 15.2529 26.3544 14.0714 26.8692 12.8856H27.6749C28.193 14.0774 28.7136 15.2736 29.2392 16.4826H28.3926C28.2903 16.232 28.1871 15.9789 28.0832 15.7231H26.4475C26.3444 15.9737 26.2396 16.2303 26.1348 16.4869H26.1339ZM27.2825 13.7329L27.2532 13.7304C27.0738 14.1773 26.8935 14.6251 26.7133 15.0746C26.8482 15.0996 27.7319 15.0944 27.8199 15.0686C27.6405 14.6225 27.462 14.1782 27.2834 13.7329H27.2825Z" fill="var(--fill-0, black)"/>
<path id="Vector_11" d="M15.6291 16.1417C15.7213 15.9307 15.8101 15.7292 15.8965 15.5337C16.0441 15.6086 16.1774 15.687 16.3182 15.7438C16.6469 15.8773 16.9881 15.9342 17.3393 15.8704C17.4332 15.8532 17.5305 15.8213 17.611 15.7714C17.8155 15.6448 17.8181 15.3813 17.6152 15.253C17.512 15.1884 17.3922 15.1445 17.2748 15.11C17.0417 15.0411 16.8036 14.9903 16.5705 14.9232C16.4565 14.8904 16.345 14.8422 16.236 14.7923C15.5016 14.4547 15.5871 13.5083 16.0709 13.1354C16.2511 12.9968 16.4515 12.9072 16.6703 12.8633C17.1733 12.7625 17.6672 12.8004 18.1467 12.9916C18.2364 13.0269 18.3203 13.076 18.4158 13.1233C18.3311 13.3404 18.2506 13.5444 18.1677 13.7563C18.1207 13.733 18.0838 13.7167 18.0478 13.6986C17.7518 13.5462 17.4408 13.4626 17.108 13.4756C16.973 13.4807 16.8405 13.5014 16.7173 13.5642C16.615 13.6159 16.5412 13.6934 16.511 13.8088C16.4775 13.938 16.5127 14.0585 16.625 14.1317C16.7089 14.1869 16.8028 14.2325 16.8984 14.2601C17.1314 14.3281 17.3704 14.3781 17.6034 14.4461C17.7568 14.4917 17.9103 14.5451 18.0545 14.6149C18.7353 14.9464 18.6573 15.7688 18.2934 16.1357C18.088 16.3424 17.8382 16.4543 17.5623 16.5103C17.0275 16.6179 16.5068 16.5525 15.9996 16.3544C15.8705 16.3036 15.7481 16.239 15.6291 16.1426V16.1417Z" fill="var(--fill-0, black)"/>
</g>
<defs>
<clipPath id="clip0_0_204">
<rect width="48.75" height="16.5709" fill="white"/>
</clipPath>
</defs>
</svg>
