<svg preserveAspectRatio="none" width="100%" height="100%" overflow="visible" style="display: block;" viewBox="0 0 39.2087 10.397" fill="none" xmlns="http://www.w3.org/2000/svg">
<path id="Vector" d="M37.7319 2.93083V0H39.2087V2.93083H37.7319ZM35.1423 2.93083V0H36.619V2.93083L35.1423 2.93083ZM27.8014 10.2686L29.6205 10.2686V6.54623C29.6205 4.96694 30.5003 4.25719 31.2899 4.25719C32.0795 4.25719 32.5954 4.74814 32.5954 5.94723V10.2686L34.4146 10.2686V5.58355C34.4146 3.87266 33.4741 2.79177 31.9534 2.79177C30.886 2.79177 30.0738 3.34298 29.6205 4.55669V0H27.8014V10.2686ZM0 10.2717L6.95569 10.2686V8.79249L4.38744 8.79249V0H2.86788C2.8094 1.22833 2.45202 1.54029 0.770476 1.54029L0 1.54029V2.93083L2.56825 2.93083V8.79249L0 8.79249V10.2717ZM23.1357 4.25719C24.0423 4.25719 24.7708 4.9664 24.8586 5.99001L26.742 5.99001C26.4788 4.04515 25.0366 2.79177 23.1357 2.79177C21.074 2.79177 19.4545 4.38094 19.4545 6.58901C19.4545 8.79709 21.074 10.397 23.1357 10.397C25.0366 10.397 26.4788 9.15427 26.742 7.20941H24.8586C24.7708 8.23302 24.0423 8.94224 23.1357 8.94224C22.2291 8.94224 21.3165 8.12443 21.3165 6.58901C21.3165 5.0536 22.1999 4.25719 23.1357 4.25719ZM11.707 10.2686L13.5261 10.2686L13.5255 6.5511C13.5255 4.97182 14.4059 4.25719 15.1955 4.25719C15.9851 4.25719 16.501 4.74814 16.501 5.94723V10.2686L18.3215 10.2686V5.58355C18.3215 3.87266 17.3797 2.79177 15.859 2.79177C14.7916 2.79177 13.9794 3.34298 13.5261 4.55669V2.93083L11.707 2.93083V10.2686ZM8.0472 0V1.8184L9.86638 1.8184V0H8.0472ZM8.0472 2.93083V10.2686L9.86638 10.2686V2.93083L8.0472 2.93083Z" fill="var(--fill-0, black)"/>
</svg>
