<svg preserveAspectRatio="none" width="100%" height="100%" overflow="visible" style="display: block;" viewBox="0 0 16.0588 16.0588" fill="none" xmlns="http://www.w3.org/2000/svg">
<g id="logo-symbol 2" clip-path="url(#clip0_0_229)">
<path id="Vector" d="M16.0332 7.38706H5.13882C5.13882 5.80131 6.44366 4.49647 8.02941 4.49647C9.26766 4.49647 10.3345 5.29209 10.7427 6.39577L15.358 4.74445C14.1026 1.94784 11.2935 0 8.02941 0C3.59489 0 0 3.59489 0 8.02941C0 8.24563 0.00883235 8.45985 0.0255978 8.67176H10.7922C10.7922 10.2575 9.48732 11.5624 7.90157 11.5624C6.66332 11.5624 5.59637 10.7668 5.18822 9.66305L0.683498 11.2748C1.93021 14.0925 4.74998 16.0588 8.02947 16.0588C12.4639 16.0588 16.0589 12.4639 16.0589 8.02941C16.0589 7.81319 16.0501 7.59898 16.0332 7.38706Z" fill="var(--fill-0, #0050F5)"/>
</g>
<defs>
<clipPath id="clip0_0_229">
<rect width="16.0588" height="16.0588" fill="white"/>
</clipPath>
</defs>
</svg>
