<svg preserveAspectRatio="none" width="100%" height="100%" overflow="visible" style="display: block;" viewBox="0 0 28.6765 10.7537" fill="none" xmlns="http://www.w3.org/2000/svg">
<g id="logo-word 1" clip-path="url(#clip0_0_191)">
<path id="Vector" d="M26.4042 10.4863V8.43615H27.8862V8.65579H26.6532V9.32651H27.769V9.54615H26.6532V10.2666H27.9067V10.4863H26.4042Z" fill="var(--fill-0, black)"/>
<path id="Vector_2" d="M22.9181 10.5067C22.7267 10.5067 22.5539 10.4667 22.3997 10.3866C22.2454 10.3065 22.1224 10.1884 22.0307 10.0322C21.9408 9.87601 21.8959 9.68562 21.8959 9.4611C21.8959 9.2932 21.9223 9.14382 21.975 9.01303C22.0297 8.88219 22.1048 8.77188 22.2005 8.68204C22.2962 8.59224 22.4065 8.52391 22.5315 8.47705C22.6584 8.43018 22.7931 8.40674 22.9356 8.40674C23.043 8.40674 23.1445 8.4175 23.2402 8.43896C23.3359 8.46047 23.4267 8.4878 23.5126 8.521L23.5858 8.55317L23.536 8.74064L23.4481 8.71721C23.3564 8.69378 23.2705 8.67424 23.1905 8.65865C23.1123 8.64301 23.0313 8.63521 22.9473 8.63521C22.797 8.63521 22.6613 8.66743 22.5403 8.73186C22.4192 8.79432 22.3235 8.88609 22.2532 9.00716C22.1849 9.12823 22.1507 9.27855 22.1507 9.45818C22.1507 9.63584 22.1829 9.78622 22.2474 9.90921C22.3138 10.0302 22.4055 10.122 22.5227 10.1845C22.6418 10.247 22.7785 10.2782 22.9327 10.2782C23.0127 10.2782 23.0957 10.2694 23.1816 10.2519C23.2695 10.2343 23.3603 10.2109 23.454 10.1816L23.5917 10.1347L23.6473 10.3192L23.5302 10.369C23.4306 10.4119 23.329 10.4461 23.2256 10.4715C23.1221 10.4949 23.0196 10.5067 22.9181 10.5067Z" fill="var(--fill-0, black)"/>
<path id="Vector_3" d="M17.2954 10.4863V8.43615H17.515L18.8271 10.0235H18.833V8.43615H19.079V10.4863H18.8828L17.5472 8.86374H17.5414V10.4863H17.2954Z" fill="var(--fill-0, black)"/>
<path id="Vector_4" d="M12.6658 10.4863L13.4947 8.43615H13.7963L14.6252 10.4863H14.3528L13.647 8.67923H13.6381L12.9265 10.4863H12.6658ZM13.0759 9.9884V9.76875H14.2034V9.9884H13.0759Z" fill="var(--fill-0, black)"/>
<path id="Vector_5" d="M8.21447 10.4863V8.43615H8.43411L9.7462 10.0235H9.75207V8.43615H9.99806V10.4863H9.80185L8.46633 8.86374H8.4605V10.4863H8.21447Z" fill="var(--fill-0, black)"/>
<path id="Vector_6" d="M5.04165 10.4863V8.43615H5.29055V10.4863H5.04165Z" fill="var(--fill-0, black)"/>
<path id="Vector_7" d="M0.872985 10.4863V8.43615H2.30221V8.65579H1.12193V9.34407H2.18506V9.56372H1.12193V10.4863H0.872985Z" fill="var(--fill-0, black)"/>
<path id="Vector_8" d="M23.4646 5.25552V0.000112017H24.0902L24.2554 0.670805C24.7926 0.223676 25.3832 0.000112017 26.0272 0.000112017C27.3386 0.000112017 27.9943 0.652452 27.9943 1.95713V5.25552H27.0683V1.94212C27.0683 1.16131 26.6796 0.770909 25.9021 0.770909C25.3715 0.770909 24.8677 0.992802 24.3905 1.4366V5.25552H23.4646Z" fill="var(--fill-0, black)"/>
<path id="Vector_9" d="M18.1338 2.60781C18.1338 3.87244 18.6593 4.50478 19.7105 4.50478C20.7615 4.50478 21.2871 3.87244 21.2871 2.60781C21.2871 1.36986 20.7615 0.750889 19.7105 0.750889C18.6593 0.750889 18.1338 1.36986 18.1338 2.60781ZM17.2079 2.62783C17.2079 0.876017 18.042 0.000112017 19.7105 0.000112017C21.3789 0.000112017 22.213 0.876017 22.213 2.62783C22.213 4.3763 21.3789 5.25055 19.7105 5.25055C18.0487 5.25055 17.2145 4.3763 17.2079 2.62783Z" fill="var(--fill-0, black)"/>
<path id="Vector_10" d="M12.1273 2.60781C12.1273 3.87244 12.6529 4.50478 13.7039 4.50478C14.755 4.50478 15.2806 3.87244 15.2806 2.60781C15.2806 1.36986 14.755 0.750889 13.7039 0.750889C12.6529 0.750889 12.1273 1.36986 12.1273 2.60781ZM11.2013 2.62783C11.2013 0.876017 12.0356 0.000112017 13.7039 0.000112017C15.3723 0.000112017 16.2065 0.876017 16.2065 2.62783C16.2065 4.3763 15.3723 5.25055 13.7039 5.25055C12.0422 5.25055 11.208 4.3763 11.2013 2.62783Z" fill="var(--fill-0, black)"/>
<path id="Vector_11" d="M6.43152 4.18443C6.79522 4.36462 7.20063 4.45471 7.64776 4.45471C8.7389 4.45471 9.28442 3.79904 9.28442 2.48768C9.28442 1.34317 8.74221 0.770909 7.65775 0.770909C7.19059 0.770909 6.78186 0.810948 6.43152 0.891032V4.18443ZM5.50554 0.215334C6.20291 0.0718529 6.92368 0.000112017 7.66779 0.000112017C9.35284 0.000112017 10.1954 0.832639 10.1954 2.49769C10.1954 4.33626 9.34783 5.25552 7.65278 5.25552C7.23231 5.25552 6.82524 5.17214 6.43152 5.00528V7.15749H5.50554V0.215334Z" fill="var(--fill-0, black)"/>
<path id="Vector_12" d="M0.200207 5.00516V4.20434C0.817512 4.40455 1.44149 4.50467 2.07214 4.50467C2.90967 4.50467 3.32844 4.25439 3.32844 3.75388C3.32844 3.28673 3.03647 3.05315 2.45253 3.05315H1.70176C0.567252 3.05315 0 2.53595 0 1.50155C0 0.500516 0.729086 0 2.18726 0C2.81457 0 3.43688 0.0834194 4.05419 0.250259V1.05109C3.43688 0.85088 2.81457 0.750777 2.18726 0.750777C1.31302 0.750777 0.875905 1.00103 0.875905 1.50155C0.875905 1.9687 1.15119 2.20227 1.70176 2.20227H2.45253C3.65377 2.20227 4.25439 2.71948 4.25439 3.75388C4.25439 4.75492 3.52697 5.25541 2.07214 5.25541C1.44149 5.25541 0.817512 5.17203 0.200207 5.00516Z" fill="var(--fill-0, black)"/>
</g>
<defs>
<clipPath id="clip0_0_191">
<rect width="28.6765" height="10.7537" fill="white"/>
</clipPath>
</defs>
</svg>
