<svg preserveAspectRatio="none" width="100%" height="100%" overflow="visible" style="display: block;" viewBox="0 0 11.2203 11.2203" fill="none" xmlns="http://www.w3.org/2000/svg">
<g id="SvgjsG1372">
<path id="Vector" d="M5.61013 0C2.51175 0 0 2.51175 0 5.61013C0 8.70851 2.51175 11.2203 5.61013 11.2203C8.70851 11.2203 11.2203 8.70851 11.2203 5.61013C11.2203 2.51175 8.70851 0 5.61013 0ZM5.48159 10.1344C4.78553 10.0629 4.27946 9.44081 4.3507 8.74474C4.42219 8.04868 5.04432 7.54261 5.74038 7.61385C6.43645 7.68535 6.94252 8.30747 6.87127 9.00353C6.81006 9.60068 6.33778 10.073 5.74038 10.1344H5.48159ZM7.96274 8.92372V8.86765C7.96274 7.56831 6.90947 6.51504 5.61013 6.51504C4.3108 6.51504 3.25752 7.56831 3.25752 8.86765V8.92372C2.32519 7.62438 2.62291 5.8153 3.92224 4.88322C5.22158 3.95089 7.03066 4.24861 7.96274 5.54794C8.68672 6.5569 8.68672 7.915 7.96274 8.92396V8.92372ZM9.54976 7.83788C9.88028 5.66399 8.38606 3.63383 6.21218 3.3033C4.03829 2.97278 2.00813 4.467 1.6776 6.64088C1.61737 7.03751 1.61737 7.44125 1.6776 7.83788C0.445598 5.66399 1.20924 2.903 3.38312 1.67099C5.557 0.438988 8.318 1.20263 9.55 3.37651C10.3342 4.76031 10.3342 6.45407 9.55 7.83788H9.54976Z" fill="var(--fill-0, #F76B8A)"/>
</g>
</svg>
