<svg preserveAspectRatio="none" width="100%" height="100%" overflow="visible" style="display: block;" viewBox="0 0 58.3445 7.06298" fill="none" xmlns="http://www.w3.org/2000/svg">
<g id="SvgjsG1373">
<path id="Vector" d="M3.40515 0.000244886L5.50975 5.62825H4.22486L3.79934 4.37494H1.69474L1.25331 5.62825H0L2.13618 0.000244886H3.40515ZM2.75096 1.38748L2.01792 3.45265H3.47616L2.76687 1.38748H2.7512H2.75096ZM8.22912 1.44281C8.82285 1.44281 9.21972 1.66879 9.41926 2.12075C9.72922 1.66879 10.1418 1.44281 10.6569 1.44281C11.172 1.44281 11.541 1.57159 11.7802 1.82916C12.0194 2.08672 12.1389 2.44124 12.1389 2.89321V5.62825H11.0195V3.27147C11.0195 2.91426 10.9656 2.66722 10.8579 2.53061C10.7502 2.39399 10.5754 2.32568 10.3337 2.32568C9.8345 2.32568 9.58501 2.66722 9.58501 3.35031V5.62825H8.46563V3.22422C8.46563 2.87729 8.41054 2.64103 8.30012 2.51494C8.1897 2.38885 8.01905 2.32568 7.78769 2.32568C7.57223 2.32568 7.39228 2.41113 7.24783 2.58178C7.10337 2.75243 7.03115 2.97718 7.03115 3.2558V5.62849H5.91177V1.55323H6.96798V2.10508H6.98365C7.29361 1.66365 7.70885 1.44305 8.22912 1.44305V1.44281ZM15.3154 1.44281C15.8777 1.44281 16.327 1.6399 16.6632 2.03408C16.9993 2.42827 17.1675 2.96151 17.1675 3.63407C17.1675 4.24885 17.0059 4.75346 16.6828 5.14739C16.3596 5.54133 15.9247 5.73867 15.3783 5.73867C14.8318 5.73867 14.4349 5.53374 14.1566 5.12389H14.1409V7.06298H13.0215V1.55323H14.0856V2.0735H14.1012C14.3693 1.65312 14.7738 1.44281 15.3151 1.44281H15.3154ZM14.1015 3.60249C14.1015 4.00181 14.1854 4.31716 14.3536 4.54828C14.5218 4.77941 14.7635 4.89521 15.0788 4.89521C15.3942 4.89521 15.6476 4.77965 15.808 4.54828C15.9683 4.31692 16.0484 4.00181 16.0484 3.60249C16.0484 3.20317 15.9617 2.87068 15.7884 2.63686C15.615 2.40305 15.3731 2.28602 15.0632 2.28602C14.7532 2.28602 14.5152 2.40158 14.3497 2.63295C14.1842 2.86432 14.1015 3.18725 14.1015 3.60249ZM19.7214 1.44281C20.105 1.44281 20.4466 1.53217 20.746 1.7109C21.0455 1.88963 21.2807 2.14842 21.4514 2.48727C21.622 2.82612 21.7075 3.21639 21.7075 3.65782C21.7075 3.69993 21.7048 3.76824 21.6997 3.86275H18.7594C18.77 4.18862 18.8554 4.44203 19.0155 4.62345C19.1757 4.80487 19.4215 4.89546 19.7525 4.89546C19.9574 4.89546 20.1452 4.84429 20.3161 4.7417C20.487 4.63912 20.5959 4.5145 20.6432 4.36735H21.6284C21.3395 5.28181 20.7037 5.73891 19.7209 5.73891C19.3478 5.73377 19.0023 5.65224 18.6843 5.49457C18.3662 5.3369 18.1128 5.09133 17.9236 4.75762C17.7343 4.42391 17.6398 4.03634 17.6398 3.5949C17.6398 3.17966 17.7358 2.80139 17.9275 2.45985C18.1192 2.11831 18.3741 1.86343 18.6921 1.69523C19.0102 1.52703 19.3529 1.44305 19.7207 1.44305L19.7214 1.44281ZM20.5808 3.15322C20.5281 2.8484 20.4309 2.62781 20.2892 2.49119C20.1474 2.35457 19.9449 2.28626 19.6822 2.28626C19.4195 2.28626 19.1935 2.36387 19.0359 2.51885C18.8782 2.67383 18.7864 2.88537 18.7599 3.15346H20.5808V3.15322ZM26.3346 0.000244886V5.62825H25.2706V5.10797H25.2549C25.0132 5.52836 24.6007 5.73867 24.0173 5.73867C23.4338 5.73867 23.0098 5.53374 22.6812 5.12389C22.3526 4.71404 22.1886 4.19107 22.1886 3.55524C22.1886 2.9194 22.3553 2.42802 22.689 2.03384C23.0227 1.63965 23.4576 1.44256 23.9935 1.44256C24.2405 1.44256 24.4731 1.49373 24.691 1.59632C24.9089 1.6989 25.0786 1.84997 25.1996 2.04951H25.2152V0H26.3346V0.000244886ZM23.308 3.58658C23.308 3.9597 23.3959 4.27113 23.5719 4.52062C23.7479 4.7701 23.9884 4.89497 24.2932 4.89497C24.6137 4.89497 24.8541 4.77794 25.0145 4.54412C25.1748 4.31031 25.2549 3.98835 25.2549 3.5785C25.2549 3.16864 25.1709 2.8506 25.0027 2.62462C24.8345 2.39864 24.5956 2.28577 24.2853 2.28577C23.9751 2.28577 23.7217 2.40403 23.5562 2.64054C23.3907 2.87705 23.308 3.19239 23.308 3.58633V3.58658ZM33.4446 0.000244886V1.04079H30.7252V2.34135H33.082V3.30306H30.7252V5.62825H29.4876V0.000244886H33.4446ZM35.1944 0.000244886V0.922535H34.075V0.000244886H35.1944ZM35.1944 1.55298V5.62825H34.075V1.55298H35.1944ZM38.4184 1.44281C38.9387 1.44281 39.3157 1.57428 39.5495 1.83699C39.7834 2.0997 39.9004 2.51763 39.9004 3.0903V5.62849H38.781V3.31897C38.781 2.98257 38.7271 2.73308 38.6194 2.57027C38.5117 2.40745 38.3263 2.32592 38.0636 2.32592C37.7588 2.32592 37.5382 2.41798 37.4016 2.60185C37.265 2.78572 37.1967 3.08785 37.1967 3.50823V5.62849H36.0773V1.55323H37.1413V2.12075H37.1651C37.4437 1.66879 37.8614 1.44281 38.4184 1.44281ZM42.6273 1.44281C43.815 1.44795 44.4088 1.8343 44.4088 2.60161V4.76129C44.4088 5.16061 44.456 5.44976 44.5508 5.62825H43.4157C43.3736 5.50216 43.3474 5.37068 43.3369 5.23407C43.0059 5.57047 42.5488 5.73842 41.9653 5.73842C41.5395 5.73842 41.2019 5.6307 40.9524 5.41524C40.7029 5.19979 40.5781 4.90036 40.5781 4.5167C40.5781 4.13305 40.6963 3.85467 40.9328 3.64974C41.1745 3.43429 41.6135 3.29767 42.2491 3.23989C42.701 3.19264 42.9872 3.13339 43.1082 3.06263C43.2291 2.99187 43.2894 2.88268 43.2894 2.73553C43.2894 2.55166 43.2343 2.41504 43.1239 2.32568C43.0134 2.23632 42.8296 2.19176 42.572 2.19176C42.3355 2.19176 42.1568 2.24048 42.0361 2.33768C41.9154 2.43488 41.8444 2.59132 41.8233 2.80678H40.7039C40.7301 2.3602 40.914 2.02111 41.2558 1.78998C41.5976 1.55886 42.0544 1.44305 42.6273 1.44305V1.44281ZM41.6972 4.46945C41.6972 4.81638 41.9259 4.98972 42.383 4.98972C42.9821 4.98458 43.2842 4.67707 43.2894 4.06743V3.63383C43.2 3.72319 42.974 3.78881 42.6114 3.83092C42.2961 3.86765 42.065 3.93204 41.9178 4.02409C41.7707 4.11615 41.6972 4.26452 41.6972 4.46945ZM47.6168 1.44281C48.1371 1.44281 48.5141 1.57428 48.748 1.83699C48.9818 2.0997 49.0988 2.51763 49.0988 3.0903V5.62849H47.9794V3.31897C47.9794 2.98257 47.9256 2.73308 47.8178 2.57027C47.7101 2.40745 47.5248 2.32592 47.2621 2.32592C46.9572 2.32592 46.7366 2.41798 46.6 2.60185C46.4634 2.78572 46.3951 3.08785 46.3951 3.50823V5.62849H45.2757V1.55323H46.3398V2.12075H46.3635C46.6421 1.66879 47.0598 1.44281 47.6168 1.44281ZM51.9048 1.44281C52.4567 1.44281 52.906 1.58334 53.2527 1.86441C53.5993 2.14548 53.7886 2.51983 53.8202 2.98771H52.7245C52.6511 2.52008 52.3752 2.28626 51.897 2.28626C51.6027 2.28626 51.3701 2.40721 51.1995 2.64886C51.0288 2.89051 50.9434 3.21124 50.9434 3.61057C50.9434 4.00989 51.0249 4.30418 51.1877 4.54069C51.3505 4.7772 51.5792 4.89546 51.8735 4.89546C52.3832 4.89546 52.68 4.61953 52.7642 4.06792H53.8442C53.7707 4.60925 53.5616 5.02302 53.2176 5.30947C52.8737 5.59593 52.4281 5.73916 51.8816 5.73916C51.2773 5.73916 50.7833 5.54598 50.3996 5.15988C50.0159 4.77378 49.8242 4.27064 49.8242 3.65048C49.8242 2.97792 50.0135 2.44198 50.3918 2.04241C50.77 1.64308 51.2746 1.4433 51.9051 1.4433L51.9048 1.44281ZM56.3584 1.44281C56.742 1.44281 57.0836 1.53217 57.383 1.7109C57.6824 1.88963 57.9177 2.14842 58.0884 2.48727C58.259 2.82612 58.3445 3.21639 58.3445 3.65782C58.3445 3.69993 58.3418 3.76824 58.3366 3.86275H55.3964C55.407 4.18862 55.4924 4.44203 55.6525 4.62345C55.8126 4.80487 56.0585 4.89546 56.3895 4.89546C56.5944 4.89546 56.7822 4.84429 56.9531 4.7417C57.124 4.63912 57.2329 4.5145 57.2802 4.36735H58.2654C57.9765 5.28181 57.3407 5.73891 56.3579 5.73891C55.9848 5.73377 55.6393 5.65224 55.3213 5.49457C55.0032 5.3369 54.7498 5.09133 54.5606 4.75762C54.3713 4.42391 54.2768 4.03634 54.2768 3.5949C54.2768 3.17966 54.3728 2.80139 54.5645 2.45985C54.7562 2.11831 55.0111 1.86343 55.3291 1.69523C55.6471 1.52703 55.9899 1.44305 56.3576 1.44305L56.3584 1.44281ZM57.2175 3.15322C57.1649 2.8484 57.0677 2.62781 56.9259 2.49119C56.7841 2.35457 56.5817 2.28626 56.319 2.28626C56.0563 2.28626 55.8303 2.36387 55.6726 2.51885C55.5149 2.67383 55.4229 2.88537 55.3967 3.15346H57.2175V3.15322Z" fill="var(--fill-0, black)"/>
</g>
</svg>
