<svg preserveAspectRatio="none" width="100%" height="100%" overflow="visible" style="display: block;" viewBox="0 0 34.9883 2.64721" fill="none" xmlns="http://www.w3.org/2000/svg">
<g id="Group 15023">
<path id="Vector" fill-rule="evenodd" clip-rule="evenodd" d="M34.9883 1.29891C34.9883 0.582028 34.4109 6.18702e-05 33.6996 6.18702e-05H32.4113V2.59727H33.7115C34.4161 2.59727 34.9883 2.02059 34.9883 1.31045V1.29891ZM34.6275 1.29818C34.6275 0.725115 34.1658 0.259782 33.5972 0.259782H32.7721V2.33755H33.5962C34.1653 2.33755 34.6275 1.87197 34.6275 1.29818Z" fill="var(--fill-0, black)"/>
<path id="Vector_2" fill-rule="evenodd" clip-rule="evenodd" d="M27.7528 6.18702e-05V2.59727H30.3298C30.3298 2.45394 30.2143 2.33755 30.0721 2.33755H28.1651V1.4545H29.5567V1.19478H28.1651V0.259782H30.0721C30.2143 0.259782 30.3298 0.143389 30.3298 6.18702e-05H27.7528Z" fill="var(--fill-0, black)"/>
<path id="Vector_3" fill-rule="evenodd" clip-rule="evenodd" d="M25.7208 1.55839C25.6024 2.15093 25.0871 2.59727 24.4699 2.59727C23.7654 2.59727 23.1934 2.0153 23.1934 1.29866C23.1934 0.582028 23.7654 6.18702e-05 24.4699 6.18702e-05C25.0871 6.18702e-05 25.6024 0.446397 25.7208 1.03894H25.353C25.2424 0.649123 24.8885 0.363671 24.4699 0.363671C23.9626 0.363671 23.5508 0.78259 23.5508 1.29866C23.5508 1.81474 23.9626 2.23366 24.4699 2.23366C24.8885 2.23366 25.2422 1.94821 25.353 1.55839H25.7208Z" fill="var(--fill-0, black)"/>
<path id="Vector_4" fill-rule="evenodd" clip-rule="evenodd" d="M20.7511 2.05857L18.8956 6.18702e-05L18.8875 0.00721277H18.5349V2.58154C18.7339 2.58154 18.8956 2.41993 18.8956 2.22113V0.538763L20.7511 2.59727L20.7685 2.58177H21.1119V0.00721277C20.9129 0.00721277 20.7511 0.168823 20.7511 0.367618V2.05857Z" fill="var(--fill-0, black)"/>
<path id="Vector_5" fill-rule="evenodd" clip-rule="evenodd" d="M13.8768 2.64721L15.1656 6.18702e-05L15.3662 0.412205L15.3658 0.412927L16.4534 2.64697H16.0492L15.9225 2.38698H14.4045L14.2779 2.64697H13.8763L13.8768 2.64721ZM14.5314 2.12722H15.7961L15.1637 0.8282L14.5312 2.12722H14.5314Z" fill="var(--fill-0, black)"/>
<path id="Vector_6" fill-rule="evenodd" clip-rule="evenodd" d="M9.21789 2.59727H11.7949C11.7949 2.45394 11.6794 2.33755 11.5372 2.33755H9.57867V0.363671C9.57867 0.163109 9.41689 6.18702e-05 9.21789 6.18702e-05V2.59727Z" fill="var(--fill-0, black)"/>
<path id="Vector_7" fill-rule="evenodd" clip-rule="evenodd" d="M4.65902 2.64721L5.92299 6.18702e-05L6.11979 0.412205L6.11932 0.412927L7.18602 2.64697H6.7896L6.6654 2.38698H5.17658L5.05237 2.64697H4.65854L4.65902 2.64721ZM5.30102 2.12722H6.54143L5.92111 0.8282L5.30078 2.12722H5.30102Z" fill="var(--fill-0, black)"/>
<path id="Vector_8" fill-rule="evenodd" clip-rule="evenodd" d="M1.93588 1.2986H1.93015C2.28712 1.2986 2.57704 1.00642 2.57704 0.646656V0.646175C2.57704 0.28954 2.28975 0 1.93588 0H0V2.59721H1.93015C2.28712 2.59721 2.57704 2.30502 2.57704 1.94526V1.94478C2.57704 1.58814 2.28975 1.2986 1.93588 1.2986ZM2.21625 1.8974C2.21625 1.65307 2.0194 1.45444 1.77672 1.45444H0.360785V2.33749H1.77959C2.02059 2.33749 2.21625 2.14029 2.21625 1.8974ZM2.21625 0.72866C2.21625 0.469902 2.0077 0.259721 1.75095 0.259721H0.360785V1.19471H1.75382C2.00913 1.19471 2.21625 0.985736 2.21625 0.72866Z" fill="var(--fill-0, black)"/>
</g>
</svg>
