<svg preserveAspectRatio="none" width="100%" height="100%" overflow="visible" style="display: block;" viewBox="0 0 49.4 18.4948" fill="none" xmlns="http://www.w3.org/2000/svg">
<g id="Hana Wallet">
<path id="Vector" d="M23.6302 11.5758C23.7447 11.5758 23.8363 11.4841 23.8363 11.3695V9.88283C23.8363 9.19844 24.2551 8.7924 24.9519 8.7924C25.5604 8.7924 25.9006 9.1264 25.9006 9.69291V11.3662C25.9006 11.4808 25.9922 11.5725 26.1067 11.5725H27.3663C27.4808 11.5725 27.5724 11.4808 27.5724 11.3695L27.5789 9.5259C27.5855 8.49113 26.8592 7.84932 25.7207 7.84932C24.808 7.84932 24.1864 8.24554 23.8494 8.86771C23.8494 8.86771 23.8494 8.86771 23.8461 8.86771C23.8461 8.86771 23.8428 8.86771 23.8428 8.86444V6.56568C23.8428 6.45107 23.7512 6.35938 23.6367 6.35938H22.3707C22.2562 6.35938 22.1646 6.45107 22.1646 6.56568V11.3695C22.1646 11.4841 22.2562 11.5758 22.3707 11.5758H23.6302Z" fill="var(--fill-0, #0D0229)"/>
<path id="Vector_2" d="M29.748 11.6872C30.7589 11.6872 31.5735 11.3237 31.9105 10.7539C31.9105 10.7539 31.9105 10.7539 31.9137 10.7539C31.9137 10.7539 31.917 10.7539 31.917 10.7572L31.9235 10.8161C31.9988 11.3597 32.5157 11.6904 33.3139 11.6904C33.7949 11.6904 34.2234 11.5922 34.495 11.4252C34.5702 11.3793 34.5898 11.2844 34.5604 11.2025L34.4197 10.8489C34.3706 10.7244 34.2103 10.6786 34.0795 10.7146C34.0206 10.731 33.9584 10.7408 33.9028 10.7408C33.6934 10.7408 33.5691 10.6295 33.5691 10.4395V9.25086C33.5691 8.37 32.5288 7.85262 30.9225 7.85262C29.8625 7.85262 28.809 8.11786 28.0991 8.54028C28.0108 8.59267 27.9814 8.70401 28.0272 8.7957L28.2725 9.29016C28.3249 9.39822 28.4623 9.43751 28.5702 9.37857C29.2474 9.00527 30.1307 8.76622 30.9225 8.76622C31.531 8.76622 31.9203 8.90048 31.9203 9.08713C31.9203 9.1559 31.8287 9.21157 31.6814 9.22794L30.2976 9.35237C28.7894 9.49318 27.9323 9.98764 27.9323 10.7015C27.9323 11.3302 28.6029 11.6872 29.748 11.6872ZM30.3499 10.7015C29.869 10.7015 29.6106 10.6033 29.6106 10.4232C29.6106 10.2431 29.8821 10.1285 30.4121 10.0892L31.845 9.96145C31.8712 9.96145 31.8941 9.98109 31.8941 10.0073C31.8941 10.4199 31.2856 10.7048 30.3499 10.7048V10.7015Z" fill="var(--fill-0, #0D0229)"/>
<path id="Vector_3" d="M38.4797 7.84951C37.5669 7.84951 36.8897 8.24573 36.5462 8.86791C36.5462 8.86791 36.5462 8.86791 36.543 8.86791C36.543 8.86791 36.5397 8.86791 36.5397 8.86463L36.4023 8.1344C36.3826 8.03616 36.3009 7.96739 36.1994 7.96739H35.1297C35.0152 7.96739 34.9235 8.05908 34.9235 8.17369V11.3697C34.9235 11.4843 35.0152 11.576 35.1297 11.576H36.3892C36.5037 11.576 36.5953 11.4843 36.5953 11.3697V9.88303C36.5953 9.19864 37.0141 8.79259 37.7142 8.79259C38.3227 8.79259 38.6629 9.1266 38.6629 9.6931V11.3664C38.6629 11.481 38.7545 11.5727 38.869 11.5727H40.1285C40.2431 11.5727 40.3347 11.481 40.3347 11.3697L40.3412 9.5261C40.3477 8.49133 39.6215 7.84951 38.483 7.84951H38.4797Z" fill="var(--fill-0, #0D0229)"/>
<path id="Vector_4" d="M42.5069 11.6872C43.5178 11.6872 44.3357 11.3237 44.6694 10.7539C44.6694 10.7539 44.6694 10.7539 44.6727 10.7539C44.6727 10.7539 44.676 10.7539 44.676 10.7572L44.6825 10.8161C44.761 11.3597 45.2747 11.6904 46.0729 11.6904C46.5538 11.6904 46.9824 11.5922 47.2539 11.4252C47.3292 11.3793 47.3488 11.2844 47.3194 11.2025L47.1787 10.8489C47.1296 10.7244 46.9693 10.6786 46.8384 10.7146C46.7796 10.731 46.7174 10.7408 46.6618 10.7408C46.4524 10.7408 46.3281 10.6295 46.3281 10.4395V9.25086C46.3281 8.37 45.2877 7.85262 43.6814 7.85262C42.6214 7.85262 41.568 8.11786 40.8581 8.54028C40.7698 8.59267 40.7403 8.70401 40.7861 8.7957L41.0315 9.29016C41.0838 9.39822 41.2212 9.43751 41.3259 9.37857C42.0031 9.00527 42.8864 8.76622 43.6781 8.76622C44.2867 8.76622 44.676 8.90048 44.676 9.08713C44.676 9.1559 44.5844 9.21157 44.4371 9.22794L43.0533 9.35237C41.5451 9.49318 40.6847 9.98764 40.6847 10.7015C40.6847 11.3302 41.3554 11.6872 42.5004 11.6872H42.5069ZM43.1056 10.7015C42.6247 10.7015 42.3663 10.6033 42.3663 10.4232C42.3663 10.2431 42.6378 10.1285 43.1711 10.0892L44.604 9.96145C44.6302 9.96145 44.6531 9.98109 44.6531 10.0073C44.6531 10.4199 44.0446 10.7048 43.1089 10.7048L43.1056 10.7015Z" fill="var(--fill-0, #0D0229)"/>
<path id="Vector_5" d="M48.4774 11.6444C49.014 11.6444 49.4 11.3235 49.4 10.8618C49.4 10.4001 49.0172 10.0792 48.4774 10.0792C47.9376 10.0792 47.5614 10.4001 47.5614 10.8618C47.5614 11.3235 47.9442 11.6444 48.4774 11.6444Z" fill="var(--fill-0, #0D0229)"/>
<path id="Vector_6" d="M0 2.05316C0 0.920158 0.919299 0 2.05125 0H16.4263C17.5583 0 18.4776 0.920158 18.4776 2.05316V16.4417C18.4776 17.5747 17.5583 18.4948 16.4263 18.4948H2.05125C0.919299 18.4948 0 17.5747 0 16.4417V2.05316Z" fill="var(--fill-0, #0D0229)"/>
<path id="Vector_7" d="M5.06762 7.34503C5.06762 7.28936 5.11342 7.24352 5.16904 7.24024C6.8506 7.18785 8.20501 5.83217 8.25736 4.14903C8.25736 4.09337 8.30643 4.04752 8.36205 4.04752H13.3021C13.3577 4.04752 13.4035 4.09337 13.4035 4.14903V10.0531C13.4035 10.1088 13.3577 10.1546 13.3021 10.1546H10.482C10.4264 10.1546 10.3806 10.1088 10.3806 10.0531V7.64301C10.3806 7.53823 10.2399 7.49893 10.181 7.58407C9.07524 9.17879 7.24646 10.2332 5.16904 10.2692C5.11342 10.2692 5.06762 10.2234 5.06762 10.1677V7.34503Z" fill="var(--fill-0, #E6E0F7)"/>
<path id="Vector_8" d="M13.4067 11.5299C13.4067 11.4743 13.3609 11.4284 13.3053 11.4284H5.17229C5.11667 11.4284 5.07087 11.4743 5.07087 11.5299V14.3526C5.07087 14.4083 5.11667 14.4541 5.17229 14.4541H13.3053C13.3609 14.4541 13.4067 14.4083 13.4067 14.3526V11.5299Z" fill="var(--fill-0, #E6E0F7)"/>
</g>
</svg>
