<svg preserveAspectRatio="none" width="100%" height="100%" overflow="visible" style="display: block;" viewBox="0 0 9.77794 10.6667" fill="none" xmlns="http://www.w3.org/2000/svg">
<g id="Soda">
<path id="Vector" d="M3.95481 3.80312L0.819367 1.93533L0 3.39806L2.327 4.78202L3.95481 3.80312Z" fill="var(--fill-0, #FFD92F)"/>
<path id="Vector_2" d="M7.45077 4.78202L9.77777 3.39806L8.9584 1.93533L5.81203 3.80312L7.45077 4.78202Z" fill="var(--fill-0, #FFD92F)"/>
<path id="Vector_3" d="M4.8834 3.25176L5.70277 2.76793V0H4.06403V2.76793L4.8834 3.25176Z" fill="var(--fill-0, #FFD92F)"/>
<path id="Vector_4" d="M9.77778 7.26862L5.70279 4.84949L4.88343 4.36567L0 7.26862L0.819367 8.73135L3.25562 7.27987C3.33209 7.23487 3.41949 7.20111 3.51782 7.20111C3.82371 7.20111 4.06406 7.44865 4.06406 7.7637V10.6667H5.70279V7.7637C5.70279 7.44865 5.94314 7.20111 6.24904 7.20111C6.34736 7.20111 6.43476 7.23487 6.51124 7.27987L8.95841 8.7201L9.77778 7.26862Z" fill="var(--fill-0, #FFD92F)"/>
</g>
</svg>
