<svg preserveAspectRatio="none" width="100%" height="100%" overflow="visible" style="display: block;" viewBox="0 0 80.6667 88" fill="none" xmlns="http://www.w3.org/2000/svg">
<g id="Soda">
<path id="Vector" d="M32.6272 31.3758L6.75978 15.9665L0 28.034L19.1978 39.4517L32.6272 31.3758Z" fill="var(--fill-0, #ECC100)"/>
<path id="Vector_2" d="M61.4688 39.4517L80.6666 28.034L73.9068 15.9665L47.9493 31.3758L61.4688 39.4517Z" fill="var(--fill-0, #ECC100)"/>
<path id="Vector_3" d="M40.2881 26.827L47.0478 22.8354V0H33.5283V22.8354L40.2881 26.827Z" fill="var(--fill-0, #ECC100)"/>
<path id="Vector_4" d="M80.6667 59.9661L47.0481 40.0083L40.2883 36.0168L0 59.9661L6.75978 72.0336L26.8588 60.059C27.4898 59.6876 28.2108 59.4092 29.022 59.4092C31.5456 59.4092 33.5285 61.4513 33.5285 64.0505V87.9999H47.0481V64.0505C47.0481 61.4513 49.0309 59.4092 51.5546 59.4092C52.3657 59.4092 53.0868 59.6876 53.7177 60.059L73.9069 71.9408L80.6667 59.9661Z" fill="var(--fill-0, #ECC100)"/>
</g>
</svg>
