<svg preserveAspectRatio="none" width="100%" height="100%" overflow="visible" style="display: block;" viewBox="0 0 22 24" fill="none" xmlns="http://www.w3.org/2000/svg">
<g id="Soda">
<path id="Vector" d="M8.89832 8.55702L1.84358 4.35449L0 7.64563L5.23575 10.7596L8.89832 8.55702Z" fill="var(--fill-0, #B9ACAB)"/>
<path id="Vector_2" d="M16.7642 10.7596L22 7.64563L20.1564 4.35449L13.0771 8.55702L16.7642 10.7596Z" fill="var(--fill-0, #B9ACAB)"/>
<path id="Vector_3" d="M10.9877 7.31645L12.8312 6.22785V0H9.14408V6.22785L10.9877 7.31645Z" fill="var(--fill-0, #B9ACAB)"/>
<path id="Vector_4" d="M22 16.3544L12.8313 10.9114L10.9877 9.82275L0 16.3544L1.84358 19.6455L7.32514 16.3797C7.49721 16.2784 7.69386 16.2025 7.91508 16.2025C8.60335 16.2025 9.14413 16.7595 9.14413 17.4683V24H12.8313V17.4683C12.8313 16.7595 13.3721 16.2025 14.0603 16.2025C14.2816 16.2025 14.4782 16.2784 14.6503 16.3797L20.1564 19.6202L22 16.3544Z" fill="var(--fill-0, #B9ACAB)"/>
</g>
</svg>
