<svg preserveAspectRatio="none" width="100%" height="100%" overflow="visible" style="display: block;" viewBox="0 0 61.9999 12.4952" fill="none" xmlns="http://www.w3.org/2000/svg">
<g id="SODAX">
<path id="Vector" d="M7.37933 5.02519C7.01716 4.93465 6.65498 4.8441 6.29281 4.75356C4.97992 4.43666 3.82548 4.16502 3.78021 3.3954C3.78021 2.5126 4.88938 2.46732 5.22892 2.46732C5.68164 2.46732 6.11172 2.5805 6.40599 2.78423C6.74553 3.01059 6.92661 3.35013 6.90398 3.73494H10.2088C10.0277 0.475356 7.0398 0 5.25155 0C3.03322 0 0.475356 1.01862 0.475356 3.89339C0.475356 6.17963 2.42205 6.72289 4.30084 7.24352L4.50456 7.31143C6.58708 7.89996 7.19825 8.08105 7.19825 8.8054C7.19825 9.71084 6.33808 10.0277 5.54582 10.0277C4.5272 10.0277 3.89339 9.71084 3.6444 9.07704C3.55385 8.87331 3.50858 8.62432 3.50858 8.35268H0C0.11318 12.2913 4.36875 12.4951 5.22892 12.4951C6.51917 12.4951 10.7295 12.2008 10.7295 8.42059C10.7295 6.24754 9.03176 5.47791 7.37933 5.02519Z" fill="var(--fill-0, #B9ACAB)"/>
<path id="Vector_2" d="M18.1993 9.90057e-05C14.6455 9.90057e-05 12.1555 2.5806 12.1555 6.24763C12.1555 9.91467 14.6455 12.4952 18.1993 12.4952C21.7532 12.4952 24.2431 9.91467 24.2431 6.24763C24.2431 2.5806 21.7532 9.90057e-05 18.1993 9.90057e-05ZM18.1993 9.68831C16.977 9.68831 15.6641 8.78287 15.6641 6.24763C15.6641 3.7124 16.977 2.80696 18.1993 2.80696C19.4217 2.80696 20.7345 3.7124 20.7345 6.24763C20.7345 8.78287 19.4217 9.68831 18.1993 9.68831Z" fill="var(--fill-0, #B9ACAB)"/>
<path id="Vector_3" d="M37.2815 6.22498C37.2815 4.82155 36.8967 0.271716 31.9167 0.271716H25.8956V12.2009H31.1924C35.1084 12.2009 37.2815 10.0731 37.2815 6.22498ZM29.4041 9.32612V3.16912H30.717C33.5465 3.16912 33.7729 5.478 33.7729 6.17971C33.7729 7.35678 33.4107 9.32612 30.9887 9.32612H29.4041Z" fill="var(--fill-0, #B9ACAB)"/>
<path id="Vector_4" d="M45.7473 10.4807L46.2679 12.2237H49.8897L45.5436 0.294482H42.035L37.6436 12.2237H41.1522L41.6955 10.4807H45.7473ZM43.7101 4.11997H43.9138L45.0682 8.08127H42.4651L43.7101 4.11997Z" fill="var(--fill-0, #B9ACAB)"/>
<path id="Vector_5" d="M57.7896 12.2258H61.9999L57.7444 5.91039L61.5698 0.319297H57.6991L55.8203 3.73733L53.9189 0.319297H49.8218L53.7378 5.88775L49.4143 12.2258H53.4209L55.6392 8.49089L57.7896 12.2258Z" fill="var(--fill-0, #B9ACAB)"/>
</g>
</svg>
