<svg preserveAspectRatio="none" width="100%" height="100%" overflow="visible" style="display: block;" viewBox="0 0 24 24.0006" fill="none" xmlns="http://www.w3.org/2000/svg">
<g id="Frame 19">
<path id="Subtract" d="M0.359581 9.09924C1.96174 2.66992 8.47344 -1.24364 14.9016 0.359007C21.3313 1.96176 25.2438 8.47493 23.6408 14.9039C22.0377 21.3323 15.5258 25.2443 9.09591 23.6412C2.66867 22.0385 -1.24385 15.5273 0.359581 9.09924ZM10.967 6.34436C10.6805 6.27911 10.3992 6.21399 10.1262 6.14612L10.1272 6.14026L8.31173 5.68616L7.96114 7.09241C7.96114 7.09241 8.93526 7.3161 8.91817 7.33069C9.45102 7.4639 9.54758 7.81664 9.53146 8.09631L8.9172 10.5602C8.95393 10.5696 9.00149 10.5832 9.05392 10.6041C9.0102 10.5933 8.96343 10.5815 8.91524 10.5699L8.05392 14.0211C7.98867 14.1831 7.82309 14.4268 7.4504 14.3346C7.45207 14.3504 6.49337 14.0953 6.49337 14.0953L5.84005 15.6022L7.55294 16.0299C7.87159 16.1098 8.18401 16.1934 8.49142 16.2721L7.94649 18.4596L9.26192 18.7877L9.80196 16.6237C10.161 16.7211 10.5097 16.8104 10.8508 16.8951L10.3127 19.0494L11.6301 19.3776L12.175 17.194C14.4199 17.6188 16.1079 17.4478 16.8186 15.4176C17.3912 13.7826 16.7899 12.8392 15.6086 12.2242C16.4689 12.0259 17.1174 11.4595 17.2902 10.2906C17.5289 8.69415 16.3128 7.83588 14.6506 7.2633L15.1897 5.10022L13.8733 4.77209L13.3488 6.87854C13.0027 6.79229 12.6464 6.71014 12.2932 6.62951L12.8225 4.51037L11.5061 4.18225L10.967 6.34436ZM10.9524 12.1403C11.8449 12.363 14.7067 12.8043 14.2815 14.5094C13.8745 16.1442 11.1223 15.2604 10.2297 15.0387L10.9524 12.1403ZM11.9387 8.18518C12.6819 8.37042 15.0752 8.71592 14.6887 10.2672C14.3175 11.7543 12.0269 10.9994 11.2834 10.8141L11.9387 8.18518Z" fill="var(--fill-0, white)"/>
</g>
</svg>
