<svg preserveAspectRatio="none" width="100%" height="100%" overflow="visible" style="display: block;" viewBox="0 0 24 24" fill="none" xmlns="http://www.w3.org/2000/svg">
<g id="Frame 13">
<path id="Vector" d="M20.6126 4.15162L17.7228 5.62122L3.76815 12.7158C3.72096 12.3566 3.69722 11.9947 3.69707 11.6324C3.69898 10.1868 4.07922 8.76678 4.80012 7.51301C5.52103 6.25924 6.55758 5.2152 7.80712 4.48433C9.05665 3.75345 10.4758 3.36109 11.924 3.34611C13.3722 3.33113 14.7992 3.69405 16.0636 4.39892L17.7177 3.5577L17.9645 3.43203C16.4492 2.33428 14.6594 1.67608 12.7928 1.53017C10.9262 1.38425 9.05555 1.75631 7.38756 2.60522C5.71957 3.45413 4.31921 4.74684 3.34125 6.34047C2.36329 7.93409 1.8458 9.76658 1.846 11.6354C1.846 11.8935 1.85581 12.1506 1.87544 12.4067C1.90294 12.7693 1.82236 13.132 1.64385 13.449C1.46534 13.7661 1.19687 14.0233 0.872229 14.1884L0 14.6324V16.703L2.56795 15.3966L3.39956 14.9729L4.21899 14.5564L18.9301 7.0746L20.5832 6.23439L24 4.49622V2.42662L20.6126 4.15162Z" fill="var(--fill-0, white)"/>
<path id="Vector_2" d="M24 6.56831L5.05466 16.1967L3.40159 17.0389L0 18.769V20.8376L3.37824 19.1197L6.26807 17.6501L20.2369 10.5453C20.2841 10.9069 20.3079 11.2712 20.308 11.6359C20.3071 13.0831 19.927 14.505 19.2054 15.7603C18.4838 17.0156 17.4458 18.0607 16.1944 18.7918C14.9431 19.5229 13.5219 19.9146 12.0721 19.928C10.6222 19.9414 9.19397 19.5761 7.92926 18.8683L7.82772 18.922L6.03452 19.8342C7.54942 20.932 9.33888 21.5904 11.2052 21.7366C13.0715 21.8829 14.942 21.5113 16.6099 20.663C18.2779 19.8147 19.6785 18.5226 20.6569 16.9295C21.6353 15.3365 22.1534 13.5044 22.154 11.6359C22.154 11.3754 22.1438 11.1149 22.1246 10.8575C22.0971 10.495 22.1776 10.1325 22.3559 9.81545C22.5342 9.49845 22.8024 9.2411 23.1268 9.07575L24 8.63183V6.56831Z" fill="var(--fill-0, white)"/>
<path id="Vector_3" d="M20.6126 4.15162L17.7228 5.62122L3.76815 12.7158C3.72096 12.3566 3.69722 11.9947 3.69707 11.6324C3.69898 10.1868 4.07922 8.76678 4.80012 7.51301C5.52103 6.25924 6.55758 5.2152 7.80712 4.48433C9.05665 3.75345 10.4758 3.36109 11.924 3.34611C13.3722 3.33113 14.7992 3.69405 16.0636 4.39892L17.7177 3.5577L17.9645 3.43203C16.4492 2.33428 14.6594 1.67608 12.7928 1.53017C10.9262 1.38425 9.05555 1.75631 7.38756 2.60522C5.71957 3.45413 4.31921 4.74684 3.34125 6.34047C2.36329 7.93409 1.8458 9.76658 1.846 11.6354C1.846 11.8935 1.85581 12.1506 1.87544 12.4067C1.90294 12.7693 1.82236 13.132 1.64385 13.449C1.46534 13.7661 1.19687 14.0233 0.872229 14.1884L0 14.6324V16.703L2.56795 15.3966L3.39956 14.9729L4.21899 14.5564L18.9301 7.0746L20.5832 6.23439L24 4.49622V2.42662L20.6126 4.15162Z" fill="var(--fill-0, white)"/>
<path id="Vector_4" d="M24 6.56831L5.05466 16.1967L3.40159 17.0389L0 18.769V20.8376L3.37824 19.1197L6.26807 17.6501L20.2369 10.5453C20.2841 10.9069 20.3079 11.2712 20.308 11.6359C20.3071 13.0831 19.927 14.505 19.2054 15.7603C18.4838 17.0156 17.4458 18.0607 16.1944 18.7918C14.9431 19.5229 13.5219 19.9146 12.0721 19.928C10.6222 19.9414 9.19397 19.5761 7.92926 18.8683L7.82772 18.922L6.03452 19.8342C7.54942 20.932 9.33888 21.5904 11.2052 21.7366C13.0715 21.8829 14.942 21.5113 16.6099 20.663C18.2779 19.8147 19.6785 18.5226 20.6569 16.9295C21.6353 15.3365 22.1534 13.5044 22.154 11.6359C22.154 11.3754 22.1438 11.1149 22.1246 10.8575C22.0971 10.495 22.1776 10.1325 22.3559 9.81545C22.5342 9.49845 22.8024 9.2411 23.1268 9.07575L24 8.63183V6.56831Z" fill="var(--fill-0, white)"/>
</g>
</svg>
