<svg preserveAspectRatio="none" width="100%" height="100%" overflow="visible" style="display: block;" viewBox="0 0 24 24" fill="none" xmlns="http://www.w3.org/2000/svg">
<g id="optimism-ethereum-op-logo 2" clip-path="url(#clip0_0_209)">
<path id="Subtract" d="M12 0C18.6274 0 24 5.37258 24 12C24 18.6274 18.6274 24 12 24C5.37258 24 0 18.6274 0 12C0 5.37258 5.37258 0 12 0ZM9.60547 8.70215C7.90641 8.70215 6.84948 9.52779 6.44141 11.1787C6.29744 11.7882 6.18715 12.3073 6.11035 12.7393C6.08161 12.9309 6.06741 13.0894 6.06738 13.2236C6.06738 13.8523 6.29307 14.3418 6.74414 14.6826C7.20014 15.0186 7.78578 15.1865 8.50098 15.1865C9.36475 15.1865 10.0558 14.9899 10.5693 14.5869C11.0875 14.179 11.448 13.5598 11.6592 12.7393C11.7887 12.2353 11.8942 11.7114 11.9854 11.1787C12.0141 10.9871 12.0293 10.8287 12.0293 10.7041C12.0293 10.2866 11.923 9.92635 11.7119 9.62402C11.5008 9.31701 11.2132 9.08629 10.8486 8.9375C10.484 8.77918 10.066 8.70222 9.60547 8.70215ZM13.7812 8.79297C13.7191 8.79297 13.6611 8.81256 13.6084 8.85547C13.551 8.89852 13.5175 8.95169 13.5078 9.01855L12.2637 14.875C12.2541 14.9373 12.2643 14.9902 12.293 15.0381C12.3313 15.0812 12.3792 15.1005 12.4463 15.1006H13.6709C13.7331 15.1005 13.7911 15.0812 13.8438 15.0381C13.901 14.995 13.93 14.942 13.9443 14.875L14.3574 12.9023H15.5713C16.3582 12.9023 16.9776 12.7392 17.4287 12.4082C17.8893 12.0771 18.192 11.5678 18.3408 10.877C18.3744 10.7139 18.3935 10.5549 18.3936 10.4062C18.3935 9.88318 18.1872 9.48441 17.7793 9.20605C17.3761 8.93252 16.8429 8.79299 16.1758 8.79297H13.7812ZM9.49902 9.99316C10.07 9.99322 10.3534 10.2675 10.3535 10.8145C10.3535 10.9486 10.3394 11.0785 10.3154 11.2031C10.2434 11.6254 10.1382 12.1154 9.99902 12.6816C9.89825 13.0942 9.72518 13.397 9.48535 13.5938C9.25026 13.7905 8.96666 13.8905 8.63086 13.8906C8.05486 13.8906 7.7618 13.6173 7.7666 13.0605C7.76662 12.9264 7.78074 12.8015 7.80469 12.6816C7.91506 12.0962 8.02146 11.6063 8.13184 11.2031C8.23264 10.7905 8.4006 10.4878 8.63574 10.291C8.87557 10.0945 9.16337 9.99324 9.49902 9.99316ZM16.0225 10.0459C16.2671 10.0459 16.4451 10.0945 16.5459 10.1904C16.6465 10.2816 16.6992 10.4163 16.6992 10.5889C16.6992 10.6655 16.69 10.7569 16.6709 10.8574C16.6085 11.1165 16.4829 11.313 16.291 11.4521C16.1039 11.5913 15.8881 11.6591 15.6338 11.6592H14.6016L14.9424 10.0459H16.0225Z" fill="var(--fill-0, white)"/>
</g>
<defs>
<clipPath id="clip0_0_209">
<rect width="24" height="24" fill="white"/>
</clipPath>
</defs>
</svg>
