<svg preserveAspectRatio="none" width="100%" height="100%" overflow="visible" style="display: block;" viewBox="0 0 21.2736 23.9808" fill="none" xmlns="http://www.w3.org/2000/svg">
<path id="Subtract" fill-rule="evenodd" clip-rule="evenodd" d="M10.8 1.536C10.752 1.5072 10.6944 1.488 10.6368 1.488V1.4784C10.5792 1.4784 10.5216 1.4976 10.4736 1.5264L1.6608 6.6144C1.5648 6.672 1.4976 6.7872 1.4976 6.9024V17.088C1.4976 17.2032 1.5552 17.3184 1.6608 17.376L5.3235 19.4906L4.80665 20.9013L0.912 18.6528C0.3456 18.3264 0 17.7312 0 17.0784V6.9024C0 6.2496 0.3456 5.6544 0.912 5.328L9.7248 0.24C10.0113 0.0776243 10.3169 0.000778071 10.632 5.87984e-06C10.9472 0.000777917 11.2622 0.0776242 11.5392 0.24L20.3616 5.328C20.928 5.6544 21.2736 6.2496 21.2736 6.9024V17.0784C21.2736 17.7312 20.928 18.3264 20.3616 18.6528L11.5488 23.7408C11.2608 23.904 10.9536 23.9808 10.6368 23.9808C10.32 23.9808 10.0032 23.904 9.7248 23.7408L5.73311 21.4362L6.87588 20.3869L10.4736 22.464C10.5216 22.4928 10.5792 22.512 10.6368 22.512C10.6944 22.512 10.752 22.4928 10.8 22.464L19.6128 17.376C19.7088 17.3184 19.776 17.2032 19.776 17.088V6.912C19.776 6.7968 19.7184 6.6816 19.6128 6.624L10.8 1.536ZM10.632 5.87984e-06C10.6336 1.95954e-06 10.6352 0 10.6368 0H10.6272C10.6288 0 10.6304 1.96111e-06 10.632 5.87984e-06Z" fill="var(--fill-0, white)"/>
</svg>
