<svg preserveAspectRatio="none" width="100%" height="100%" overflow="visible" style="display: block;" viewBox="0 0 24 24" fill="none" xmlns="http://www.w3.org/2000/svg">
<path id="Vector" fill-rule="evenodd" clip-rule="evenodd" d="M16.2758 7.86086C16.184 7.70447 16.197 7.50886 16.3021 7.35248L20.6895 0.8995C20.8079 0.717005 20.821 0.495387 20.7159 0.312874C20.6107 0.117332 20.4138 0.0130295 20.2035 0.0130295H18.4959C18.312 0.0130295 18.1281 0.104285 18.0098 0.273769L12.8867 7.83494C12.7553 8.03038 12.5451 8.13475 12.3087 8.13475H11.6649C11.4286 8.13475 11.2184 8.01742 11.0871 7.83494L5.99023 0.260723C5.88512 0.091257 5.68796 0 5.50405 0H3.79639C3.58621 0 3.37602 0.117332 3.28407 0.312874C3.17897 0.508416 3.20526 0.730034 3.31034 0.8995L7.69784 7.36561C7.80295 7.50886 7.81602 7.70447 7.72416 7.86086C7.63212 8.03038 7.47454 8.12161 7.29063 8.12161H0.578002C0.249588 8.12161 0 8.38237 0 8.69532V10.1031C0 10.429 0.262732 10.6768 0.578002 10.6768H23.422C23.7504 10.6768 24 10.4161 24 10.1031V8.69532C24 8.39533 23.7767 8.16085 23.4877 8.12161C23.4614 8.12161 23.435 8.12161 23.4089 8.12161H16.7094C16.5254 8.12161 16.3546 8.03038 16.2758 7.86086ZM11.1002 16.165L5.97698 23.7261C5.87186 23.8956 5.67489 23.9869 5.49098 23.9869H3.78325C3.57307 23.9869 3.37602 23.8695 3.27094 23.6871C3.16585 23.5046 3.17897 23.2699 3.29721 23.1004L7.67151 16.6475C7.77663 16.4911 7.78988 16.3084 7.69784 16.1391C7.60598 15.9825 7.44821 15.8783 7.26431 15.8783H0.578002C0.262732 15.8783 0 15.6305 0 15.3046V13.8968C0 13.5839 0.249588 13.3231 0.578002 13.3231H23.3695C23.3695 13.3231 23.4089 13.3231 23.422 13.3231C23.7373 13.3231 24 13.5709 24 13.8968V15.3046C24 15.6176 23.7504 15.8783 23.422 15.8783H16.7224C16.5254 15.8783 16.3679 15.9696 16.2889 16.1391C16.197 16.3084 16.2101 16.4911 16.3152 16.6343L20.7028 23.1004C20.8079 23.2699 20.834 23.4914 20.7291 23.6871C20.624 23.8827 20.4268 24 20.2168 24H18.509C18.312 24 18.1412 23.9088 18.0361 23.7522L12.9129 16.1911C12.7816 15.9957 12.5714 15.8913 12.335 15.8913H11.6913C11.4549 15.8913 11.2447 16.0086 11.1132 16.1911L11.1002 16.165Z" fill="var(--fill-0, white)"/>
</svg>
