<svg preserveAspectRatio="none" width="100%" height="100%" overflow="visible" style="display: block;" viewBox="0 0 24.0002 24.0002" fill="none" xmlns="http://www.w3.org/2000/svg">
<path id="Vector" d="M0.0001875 1.896C0.0001875 1.2465 0.000187504 0.921938 0.122625 0.672C0.239813 0.43275 0.433125 0.239438 0.672375 0.12225C0.922125 0 1.24669 0 1.89619 0H22.1042C22.7535 0 23.0784 0 23.3282 0.122438C23.5673 0.239625 23.7606 0.432937 23.8779 0.672187C24.0002 0.921938 24.0002 1.24669 24.0002 1.89619V22.1042C24.0002 22.7535 24.0002 23.0784 23.8779 23.3282C23.7606 23.5673 23.5673 23.7606 23.3282 23.8779C23.0784 24.0002 22.7535 24.0002 22.1042 24.0002H1.89619C1.24669 24.0002 0.922125 24.0002 0.672187 23.8779C0.432937 23.7606 0.239625 23.5673 0.122438 23.3282C0 23.0784 0 22.7535 0 22.1042V1.896H0.0001875Z" fill="var(--fill-0, white)"/>
</svg>
