<svg preserveAspectRatio="none" width="100%" height="100%" overflow="visible" style="display: block;" viewBox="0 0 18.75 24" fill="none" xmlns="http://www.w3.org/2000/svg">
<path id="Vector" fill-rule="evenodd" clip-rule="evenodd" d="M15.0025 10.0095L15.002 10.0105C15.9797 11.2382 16.5641 12.7932 16.5641 14.4845C16.5641 16.2009 15.9623 17.777 14.9582 19.0131L14.8718 19.1194L14.8488 18.9842C14.8293 18.8692 14.8064 18.753 14.7798 18.636C14.2773 16.4249 12.6401 14.529 9.94543 12.9938C8.12575 11.96 7.08418 10.7151 6.81073 9.30072C6.6341 8.38612 6.7654 7.46745 7.01915 6.68062C7.27283 5.89402 7.6502 5.23498 7.97078 4.8382L9.0192 3.55433C9.20303 3.32923 9.54705 3.32923 9.73088 3.55433L15.0025 10.0095ZM16.6605 8.72703L9.6347 0.123201C9.50058 -0.041067 9.24943 -0.0410673 9.1153 0.123201L2.0893 8.72665L2.06663 8.75555C0.773725 10.3622 0 12.404 0 14.6267C0 19.8033 4.19725 24 9.375 24C14.5528 24 18.75 19.8033 18.75 14.6267C18.75 12.404 17.9763 10.3622 16.6834 8.75555L16.6605 8.72703ZM3.7704 9.98178L4.39913 9.21187L4.41813 9.3539C4.43315 9.4665 4.4514 9.5796 4.47305 9.6932C4.87965 11.8298 6.3322 13.6112 8.76073 14.9909C10.8717 16.1941 12.1008 17.5777 12.4549 19.0951C12.6027 19.7284 12.6291 20.3514 12.565 20.8961L12.5611 20.9299L12.5306 20.9447C11.5779 21.4109 10.5068 21.6725 9.37478 21.6725C5.40438 21.6725 2.18555 18.4544 2.18555 14.4845C2.18555 12.78 2.77893 11.2139 3.7704 9.98178Z" fill="var(--fill-0, white)"/>
</svg>
