<svg preserveAspectRatio="none" width="100%" height="100%" overflow="visible" style="display: block;" viewBox="0 0 24 21" fill="none" xmlns="http://www.w3.org/2000/svg">
<path id="Subtract" fill-rule="evenodd" clip-rule="evenodd" d="M1.98787 21H6.02334C6.97349 21 7.44854 21 7.87252 20.8843C8.33738 20.7481 8.76137 20.5064 9.11382 20.174C9.43754 19.8699 9.67112 19.4669 10.132 18.6718L10.1321 18.6715L10.1457 18.6482L15.3796 9.52686C15.8444 8.72618 16.0743 8.32328 16.1764 7.90024C16.2888 7.44195 16.2888 6.95852 16.1764 6.50023C16.0751 6.08044 15.8429 5.68049 15.3851 4.89188L15.3849 4.89161L15.3745 4.87361L13.326 1.34842C12.9021 0.613129 12.6875 0.245526 12.4168 0.109531C12.1257 -0.0365102 11.7783 -0.0365102 11.4871 0.109531C11.2164 0.245526 11.0018 0.613129 10.5779 1.34842L0.613783 18.6633C0.194916 19.3884 -0.0145595 19.7512 0.000786211 20.0482C0.0212472 20.3705 0.189801 20.6626 0.465649 20.839C0.721035 21 1.1399 21 1.98785 21H1.98787ZM21.9966 21H16.2142H16.2142C15.3612 21 14.9321 21 14.6818 20.839C14.4059 20.6626 14.2374 20.3656 14.217 20.0432C14.2017 19.7485 14.4128 19.3893 14.8351 18.6706L14.8354 18.6701L14.8452 18.6533L17.7314 13.7684C18.1554 13.0482 18.3699 12.6907 18.6355 12.5547C18.9266 12.4086 19.2691 12.4086 19.5601 12.5547C19.8238 12.6871 20.0291 13.0294 20.4356 13.707L20.4364 13.7083L20.4693 13.7634L23.3658 18.6483C23.3799 18.6723 23.3938 18.696 23.4076 18.7193L23.4078 18.7197C23.8091 19.4025 24.0139 19.751 23.9993 20.0383C23.9837 20.3604 23.8102 20.6577 23.5344 20.834C23.2788 21 22.8497 21 21.9966 21Z" fill="var(--fill-0, white)"/>
</svg>
