<svg preserveAspectRatio="none" width="100%" height="100%" overflow="visible" style="display: block;" viewBox="0 0 21 18" fill="none" xmlns="http://www.w3.org/2000/svg">
<path id="Vector" d="M20.8919 14.1917L17.4252 17.7549C17.3498 17.8323 17.2586 17.894 17.1573 17.9361C17.056 17.9783 16.9467 18.0001 16.8362 18H0.402457C0.324042 18 0.247336 17.978 0.181765 17.9368C0.116192 17.8956 0.0646093 17.837 0.0333538 17.768C0.0020984 17.6991 -0.00746811 17.6229 0.00582972 17.5489C0.0191275 17.4748 0.0547104 17.4061 0.108206 17.3511L3.5775 13.788C3.65267 13.7108 3.74355 13.6492 3.84454 13.6071C3.94554 13.5649 4.05449 13.543 4.16467 13.5429H20.5975C20.6759 13.5429 20.7526 13.5648 20.8183 13.606C20.8838 13.6472 20.9353 13.7059 20.9667 13.7748C20.9979 13.8438 21.0075 13.9199 20.9942 13.994C20.9809 14.068 20.9453 14.1368 20.8919 14.1917ZM17.4252 7.01656C17.3498 6.93916 17.2586 6.87745 17.1573 6.83528C17.056 6.79312 16.9467 6.77138 16.8362 6.77144H0.402457C0.324042 6.77144 0.247336 6.79338 0.181765 6.8346C0.116192 6.87582 0.0646093 6.93448 0.0333538 7.00339C0.0020984 7.07232 -0.00746811 7.1485 0.00582972 7.22256C0.0191275 7.29661 0.0547104 7.36533 0.108206 7.4203L3.5775 10.9834C3.65267 11.0606 3.74355 11.1222 3.84454 11.1644C3.94554 11.2065 4.05449 11.2284 4.16467 11.2286H20.5975C20.6759 11.2286 20.7526 11.2066 20.8183 11.1654C20.8838 11.1242 20.9353 11.0655 20.9667 10.9966C20.9979 10.9277 21.0075 10.8515 20.9942 10.7774C20.9809 10.7034 20.9453 10.6347 20.8919 10.5797L17.4252 7.01656ZM0.402457 4.45715H16.8362C16.9467 4.45719 17.056 4.43547 17.1573 4.39329C17.2586 4.35111 17.3498 4.2894 17.4252 4.212L20.8919 0.648857C20.9453 0.593912 20.9809 0.525187 20.9942 0.451125C21.0075 0.377063 20.9979 0.300893 20.9667 0.231971C20.9353 0.163049 20.8838 0.104379 20.8183 0.0631683C20.7526 0.0219577 20.6759 2.53788e-06 20.5975 0H4.16467C4.05449 0.000179672 3.94554 0.0220293 3.84454 0.0641962C3.74355 0.106363 3.65267 0.16795 3.5775 0.245144L0.109101 3.80829C0.0556564 3.86317 0.0200892 3.93183 0.00676127 4.0058C-0.00656674 4.07978 0.00292386 4.15589 0.034069 4.22478C0.0652143 4.29367 0.11666 4.35234 0.182098 4.39362C0.247536 4.43489 0.324119 4.45696 0.402457 4.45715Z" fill="var(--fill-0, white)"/>
</svg>
