<svg preserveAspectRatio="none" width="100%" height="100%" overflow="visible" style="display: block;" viewBox="0 0 32 120" fill="none" xmlns="http://www.w3.org/2000/svg">
<path id="XMLID_86_" d="M20.923 98.9519C20.923 113.968 15.1383 120 0 120V116.278C9.72314 116.278 12.4309 110.759 12.4309 99.0802V78.5456C12.4309 67.6364 18.0924 61.6042 26.9539 60.0641V59.8076C18.0924 58.3958 12.4309 52.2353 12.4309 41.3262V21.1765C12.4309 9.36889 9.72314 3.72172 0 3.72172V0C15.1385 0 20.923 6.03201 20.923 21.0481V43.7649C20.923 52.3636 25.1076 56.2139 32 58.139V61.8609C25.1076 63.6577 20.923 67.5081 20.923 76.1068V98.9519Z" fill="var(--fill-0, #CC9E9A)"/>
</svg>
