<svg preserveAspectRatio="none" width="100%" height="100%" overflow="visible" style="display: block;" viewBox="0 0 472.483 472.482" fill="none" xmlns="http://www.w3.org/2000/svg">
<path id="Subtract" d="M249.655 457.346C250.084 465.533 243.791 472.567 235.593 472.481C227.395 472.395 221.251 465.231 221.851 457.055L229.689 350.31C229.932 347.005 232.776 344.522 236.09 344.522C240.291 344.522 243.908 347.694 244.128 351.889L249.655 457.346ZM306.425 446.34C308.958 454.137 304.7 462.56 296.759 464.599C288.818 466.637 281.029 461.308 279.493 453.255L259.574 348.839C258.878 345.187 261.274 341.667 264.861 340.691C268.527 339.693 272.402 341.631 273.576 345.244L306.425 446.34ZM200.123 345.497C201.341 341.998 205.102 340.13 208.69 341.056C212.386 342.01 214.85 345.652 214.056 349.386L191.972 453.285C190.268 461.304 182.369 466.469 174.472 464.265C166.576 462.06 162.495 453.55 165.191 445.808L200.123 345.497ZM358.411 421.016C362.877 427.892 360.943 437.13 353.801 441.154C346.658 445.179 337.755 442.047 334.187 434.666L287.947 339.014C286.327 335.662 287.72 331.645 290.937 329.773C294.221 327.863 298.478 328.727 300.547 331.913L358.411 421.016ZM173.002 332.533C175.086 329.466 179.219 328.641 182.448 330.465C185.776 332.346 187.201 336.5 185.466 339.906L137.305 434.431C133.583 441.736 124.616 444.68 117.56 440.507C110.503 436.334 108.764 427.058 113.372 420.278L173.002 332.533ZM402.071 383.103C408.164 388.588 408.688 398.011 402.83 403.747C396.973 409.483 387.563 408.762 382.206 402.556L312.857 322.215C310.417 319.388 310.721 315.14 313.36 312.499C316.042 309.814 320.379 309.546 323.199 312.085L402.071 383.103ZM150.102 313.001C152.909 310.578 157.121 310.853 159.774 313.443C162.519 316.123 162.817 320.512 160.251 323.363L89.3802 402.073C83.8944 408.166 74.4712 408.689 68.7354 402.832C62.9996 396.974 63.7205 387.564 69.9265 382.207L150.102 313.001ZM434.431 335.176C441.736 338.898 444.681 347.864 440.507 354.921C436.334 361.978 427.058 363.717 420.278 359.109L332.666 299.568C329.567 297.462 328.759 293.272 330.64 290.032C332.545 286.75 336.669 285.364 340.05 287.086L434.431 335.176ZM132.942 288.199C136.283 286.584 140.288 287.948 142.188 291.134C144.159 294.44 143.307 298.766 140.08 300.862L51.4665 358.409C44.5907 362.874 35.3527 360.941 31.3278 353.799C27.303 346.656 30.435 337.753 37.8162 334.185L132.942 288.199ZM453.284 280.511C461.303 282.216 466.468 290.115 464.264 298.011C462.059 305.908 453.549 309.988 445.807 307.292L345.998 272.535C342.453 271.301 340.58 267.471 341.559 263.847C342.55 260.176 346.185 257.747 349.905 258.537L453.284 280.511ZM122.747 259.744C126.402 259.047 129.93 261.425 130.94 265.006C131.986 268.716 130.036 272.665 126.37 273.856L26.1411 306.423C18.3442 308.956 9.92173 304.698 7.88306 296.758C5.8444 288.817 11.1737 281.028 19.2265 279.492L122.747 259.744ZM457.347 222.829C465.534 222.4 472.568 228.692 472.482 236.89C472.396 245.088 465.232 251.232 457.056 250.632L352.221 242.932C348.28 242.643 345.334 239.229 345.334 235.277C345.334 231.655 348.083 228.554 351.701 228.364L457.347 222.829ZM121.749 229.66C124.655 229.873 126.846 232.364 126.846 235.277C126.846 239.946 123.331 243.986 118.668 244.23L15.1354 249.656C6.94849 250.085 -0.0850175 243.792 0.000776735 235.594C0.0865704 227.397 7.25021 221.252 15.4263 221.853L121.749 229.66ZM125.702 199.676C129.23 200.905 131.12 204.691 130.201 208.312C129.248 212.066 125.556 214.578 121.768 213.773L19.1973 191.971C11.1785 190.267 6.01347 182.368 8.21814 174.472C10.4228 166.576 18.9325 162.495 26.6745 165.191L125.702 199.676ZM446.341 166.058C454.138 163.525 462.561 167.783 464.6 175.723C466.638 183.664 461.309 191.453 453.255 192.99L349.957 212.694C346.249 213.402 342.68 210.948 341.716 207.298C340.742 203.61 342.7 199.732 346.328 198.553L446.341 166.058ZM138.746 172.186C141.848 174.294 142.683 178.474 140.842 181.741C138.94 185.116 134.73 186.565 131.279 184.807L38.0519 137.306C30.7471 133.584 27.8022 124.617 31.9753 117.56C36.1485 110.503 45.4247 108.764 52.2054 113.372L138.746 172.186ZM421.018 114.072C427.893 109.607 437.131 111.54 441.155 118.682C445.18 125.825 442.048 134.728 434.667 138.296L340.22 183.953C336.817 185.597 332.739 184.17 330.855 180.894C328.946 177.575 329.825 173.292 333.036 171.206L421.018 114.072ZM158.536 149.004C160.993 151.85 160.707 156.122 158.075 158.807C155.361 161.575 150.924 161.874 148.043 159.28L70.4115 89.3802C64.319 83.8945 63.7952 74.4711 69.6525 68.7349C75.5097 62.9987 84.9199 63.7196 90.2768 69.9256L158.536 149.004ZM383.102 70.4116C388.588 64.319 398.012 63.7953 403.748 69.6529C409.484 75.5105 408.763 84.921 402.557 90.2781L323.311 158.681C320.445 161.155 316.136 160.84 313.463 158.159C310.755 155.441 310.487 151.058 313.054 148.207L383.102 70.4116ZM183.696 131.732C185.336 135.123 183.938 139.189 180.693 141.102C177.352 143.072 172.998 142.205 170.886 138.952L114.071 51.4644C109.606 44.5887 111.539 35.3509 118.682 31.3265C125.824 27.302 134.728 30.434 138.296 37.8152L183.696 131.732ZM335.177 38.0523C338.899 30.7478 347.865 27.8031 354.922 31.9763C361.978 36.1495 363.718 45.4256 359.109 52.2062L300.388 138.612C298.257 141.746 294.02 142.565 290.74 140.666C287.413 138.739 286.003 134.56 287.749 131.134L335.177 38.0523ZM212.521 121.621C213.229 125.333 210.794 128.91 207.15 129.908C203.417 130.931 199.465 128.961 198.269 125.28L166.057 26.1404C163.524 18.3433 167.782 9.92072 175.723 7.8821C183.663 5.84347 191.452 11.1731 192.989 19.2262L212.521 121.621ZM280.51 19.1977C282.215 11.1786 290.114 6.01347 298.01 8.21811C305.907 10.4228 309.987 18.9327 307.291 26.675L272.983 125.194C271.738 128.769 267.883 130.663 264.224 129.691C260.495 128.701 258.018 125.015 258.82 121.241L280.51 19.1977ZM222.828 15.1353C222.399 6.94844 228.692 -0.0850163 236.889 0.00077672C245.087 0.0865702 251.231 7.2503 250.631 15.4265L242.964 119.829C242.703 123.375 239.645 126.033 236.09 126.033C231.997 126.033 228.477 122.939 228.263 118.851L222.828 15.1353Z" fill="var(--fill-0, #EDE6E6)"/>
</svg>
