<svg preserveAspectRatio="none" width="100%" height="100%" overflow="visible" style="display: block;" viewBox="0 0 799.959 799.957" fill="none" xmlns="http://www.w3.org/2000/svg">
<path id="Subtract" d="M422.69 774.332C423.416 788.193 412.762 800.101 398.882 799.956C385.002 799.81 374.6 787.681 375.616 773.838L382.647 678.098C383.303 669.164 391.021 662.472 399.98 662.472C409.246 662.472 417.196 669.497 417.681 678.751L422.69 774.332ZM518.807 755.697C523.096 768.898 515.887 783.158 502.442 786.61C488.998 790.062 475.81 781.039 473.21 767.404L455.266 673.343C453.571 664.455 459.432 655.899 468.174 653.564C477.04 651.197 486.38 655.899 489.216 664.627L518.807 755.697ZM311.177 664.363C314.145 655.839 323.337 651.318 332.06 653.638C340.95 656.002 346.849 664.79 344.936 673.788L325.027 767.455C322.141 781.032 308.768 789.777 295.398 786.044C282.029 782.312 275.12 767.904 279.685 754.796L311.177 664.363ZM606.825 712.82C614.385 724.461 611.112 740.102 599.019 746.916C586.926 753.73 571.853 748.427 565.811 735.93L524.18 649.811C520.241 641.664 523.65 631.897 531.489 627.376C539.444 622.788 549.724 624.893 554.726 632.595L606.825 712.82ZM245.718 632.452C250.795 624.981 260.886 623.013 268.715 627.517C276.69 632.104 280.075 642.104 275.898 650.301L232.471 735.533C226.169 747.901 210.988 752.887 199.04 745.821C187.093 738.755 184.148 723.05 191.95 711.57L245.718 632.452ZM680.747 648.628C691.062 657.916 691.948 673.871 682.031 683.582C672.114 693.294 656.182 692.074 647.112 681.566L584.702 609.263C578.778 602.4 579.531 592.082 585.957 585.686C592.462 579.211 602.946 578.576 609.767 584.718L680.747 648.628ZM190.696 584.702C197.53 578.803 207.796 579.521 214.201 585.883C220.74 592.379 221.409 602.916 215.242 609.766L151.33 680.748C142.042 691.064 126.088 691.95 116.376 682.033C106.664 672.116 107.885 656.184 118.392 647.114L190.696 584.702ZM735.533 567.485C747.901 573.787 752.887 588.968 745.821 600.916C738.755 612.863 723.05 615.808 711.57 608.006L632.812 554.483C625.299 549.377 623.348 539.213 627.921 531.364C632.541 523.434 642.514 520.09 650.691 524.256L735.533 567.485ZM149.754 524.365C157.88 520.436 167.622 523.805 172.174 531.599C176.832 539.574 174.743 549.928 166.998 554.958L87.1376 606.821C75.4965 614.38 59.8563 611.108 53.0423 599.015C46.2284 586.922 51.5309 571.849 64.0274 565.808L149.754 524.365ZM767.455 474.933C781.032 477.819 789.777 491.192 786.044 504.561C782.311 517.93 767.903 524.84 754.795 520.275L665.161 489.061C656.579 486.072 652.049 476.797 654.428 468.027C656.833 459.155 665.622 453.288 674.613 455.199L767.455 474.933ZM125.788 455.421C134.668 453.727 143.226 459.558 145.601 468.281C148.028 477.195 143.316 486.619 134.53 489.473L44.2611 518.804C31.06 523.093 16.7997 515.884 13.3478 502.439C9.89595 488.995 18.9192 475.808 32.5537 473.207L125.788 455.421ZM774.334 377.269C788.195 376.543 800.103 387.198 799.958 401.077C799.812 414.957 787.683 425.36 773.84 424.343L680.352 417.478C670.764 416.774 663.598 408.467 663.598 398.854C663.598 390.163 670.199 382.726 678.877 382.272L774.334 377.269ZM121.711 382.637C130.079 383.252 136.362 390.464 136.362 398.854C136.362 408.759 128.869 417.28 118.977 417.798L25.6257 422.691C11.7643 423.418 -0.144182 412.763 0.00131947 398.884C0.14682 385.004 12.2757 374.601 26.1187 375.618L121.711 382.637ZM134.217 310.696C142.766 313.673 147.31 322.882 145.009 331.637C142.653 340.598 133.807 346.559 124.744 344.632L32.5044 325.026C18.9273 322.14 10.1823 308.767 13.9151 295.398C17.648 282.029 32.0561 275.12 45.1644 279.684L134.217 310.696ZM755.699 281.152C768.9 276.863 783.16 284.072 786.612 297.517C790.064 310.961 781.041 324.149 767.406 326.749L674.778 344.419C665.826 346.126 657.211 340.203 654.885 331.391C652.536 322.492 657.262 313.136 666.016 310.292L755.699 281.152ZM166.157 244.802C173.662 249.902 175.645 260.036 171.131 267.909C166.524 275.944 156.457 279.363 148.204 275.158L64.4253 232.471C52.058 226.169 47.0723 210.988 54.138 199.041C61.2038 187.093 76.909 184.149 88.3891 191.951L166.157 244.802ZM712.822 193.135C724.463 185.576 740.104 188.849 746.918 200.941C753.732 213.034 748.43 228.107 735.933 234.148L651.279 275.071C643.076 279.037 633.242 275.593 628.703 267.693C624.106 259.694 626.227 249.371 633.964 244.346L712.822 193.135ZM214.155 189.416C220.088 196.29 219.363 206.618 212.963 213.061C206.428 219.638 195.829 220.313 188.939 214.11L119.213 151.329C108.898 142.041 108.012 126.087 117.929 116.375C127.846 106.664 143.778 107.884 152.848 118.392L214.155 189.416ZM648.63 119.214C657.918 108.899 673.872 108.013 683.584 117.93C693.295 127.847 692.075 143.779 681.567 152.849L610.544 214.155C603.64 220.114 593.259 219.354 586.825 212.89C580.312 206.346 579.672 195.799 585.85 188.938L648.63 119.214ZM274.882 148.286C278.837 156.468 275.434 166.276 267.579 170.847C259.56 175.513 249.162 173.409 244.109 165.628L193.135 87.1349C185.575 75.4937 188.848 59.8533 200.941 53.0394C213.034 46.2256 228.107 51.5282 234.149 64.0251L274.882 148.286ZM567.487 64.4265C573.789 52.059 588.97 47.0733 600.918 54.1389C612.865 61.2046 615.81 76.9102 608.008 88.3904L555.404 165.795C550.274 173.343 540.065 175.309 532.173 170.726C524.183 166.087 520.804 156.046 524.999 147.813L567.487 64.4265ZM344.26 124.348C345.967 133.294 340.074 141.91 331.281 144.277C322.334 146.685 312.894 141.949 310.03 133.137L281.152 44.2591C276.863 31.0581 284.072 16.7978 297.517 13.3459C310.961 9.89402 324.149 18.9173 326.749 32.5519L344.26 124.348ZM474.932 32.5032C477.818 18.9263 491.191 10.1812 504.56 13.9136C517.929 17.6461 524.839 32.0542 520.274 45.1624L489.541 133.416C486.543 142.023 477.25 146.577 468.448 144.215C459.505 141.816 453.577 132.969 455.502 123.912L474.932 32.5032ZM377.269 25.6255C376.543 11.7642 387.197 -0.14417 401.077 0.00131927C414.957 0.146809 425.359 12.2759 424.343 26.119L417.489 119.453C416.826 128.476 409.027 135.235 399.98 135.235C390.649 135.235 382.642 128.162 382.154 118.844L377.269 25.6255Z" fill="var(--fill-0, #EDE6E6)"/>
</svg>
