<?xml version="1.0" encoding="UTF-8"?>
<svg id="Camada_2" data-name="Camada 2" xmlns="http://www.w3.org/2000/svg" viewBox="0 0 24 24">
  <defs>
    <style>
      .cls-1 {
        fill: #fff;
      }

      .cls-2 {
        fill: none;
      }
    </style>
  </defs>
  <g id="Camada_1-2" data-name="Camada 1">
    <g id="Binance_White">
      <path id="Binance" class="cls-1" d="M11.99,0l7.35,7.34-2.72,2.72-4.64-4.64-4.64,4.66-2.72-2.72L11.99,0h0ZM2.72,9.28l2.69,2.72-2.69,2.7-2.72-2.7,2.72-2.72ZM11.99,9.28l2.72,2.69-2.72,2.72-2.72-2.7,2.72-2.72h0ZM21.26,9.28l2.74,2.72-2.72,2.72-2.72-2.72,2.69-2.72ZM16.62,13.92l2.72,2.72-7.35,7.36-7.35-7.36,2.72-2.72,4.64,4.66,4.64-4.66h0Z"/>
      <rect id="_24x24_square_to_size_them" data-name="24x24 square to size them" class="cls-2" width="24" height="24"/>
    </g>
  </g>
</svg>