<svg preserveAspectRatio="none" width="100%" height="100%" overflow="visible" style="display: block;" viewBox="0 0 16 16" fill="none" xmlns="http://www.w3.org/2000/svg">
<g id="Binance" clip-path="url(#clip0_0_32)">
<path id="Vector" d="M4.82362 6.72333L7.93084 3.61624L11.0397 6.72498L12.8477 4.91698L7.93084 0L3.01562 4.91534L4.82362 6.72333Z" fill="var(--fill-0, white)"/>
<path id="Vector_2" d="M3.54755 7.99937L1.73958 6.19141L-0.0684692 7.99946L1.73949 9.80742L3.54755 7.99937Z" fill="var(--fill-0, white)"/>
<path id="Vector_3" d="M4.82367 9.27625L7.93089 12.3833L11.0396 9.27474L12.8486 11.0817L12.8477 11.0827L7.93089 15.9996L3.01555 11.0844L3.01302 11.0818L4.82367 9.27625Z" fill="var(--fill-0, white)"/>
<path id="Vector_4" d="M14.1229 9.80805L15.931 8L14.123 6.19204L12.315 8.00009L14.1229 9.80805Z" fill="var(--fill-0, white)"/>
<path id="Vector_5" d="M9.7645 7.99872H9.76525L7.9306 6.16406L6.57476 7.5199H6.57463L6.41894 7.67572L6.09758 7.99708L6.09505 7.99961L6.09758 8.00226L7.9306 9.83528L9.76525 8.00062L9.76614 7.99961L9.7645 7.99872Z" fill="var(--fill-0, white)"/>
</g>
<defs>
<clipPath id="clip0_0_32">
<rect width="16" height="16" fill="white"/>
</clipPath>
</defs>
</svg>
