<svg preserveAspectRatio="none" width="100%" height="100%" overflow="visible" style="display: block;" viewBox="0 0 9.33333 9.33333" fill="none" xmlns="http://www.w3.org/2000/svg">
<g id="Frame 16">
<path id="Vector" d="M0.773242 9.33333C1.19798 9.33333 1.54648 8.98361 1.54648 8.55738C1.54648 8.13115 1.19798 7.78142 0.773242 7.78142C0.348503 7.78142 0 8.13115 0 8.55738C0 8.98361 0.348503 9.33333 0.773242 9.33333Z" fill="var(--fill-0, white)"/>
<path id="Vector_2" d="M8.56009 1.55191C8.98483 1.55191 9.33333 1.20219 9.33333 0.775956C9.33333 0.349727 8.98483 0 8.56009 0C8.13535 0 7.78685 0.349727 7.78685 0.775956C7.77596 1.20219 8.12446 1.55191 8.56009 1.55191Z" fill="var(--fill-0, white)"/>
<path id="Vector_3" d="M2.42855 6.05464C2.46123 6.02186 2.47212 5.96721 2.45033 5.9235C2.22163 5.49727 2.12361 4.99453 2.16718 4.46994C2.28697 3.26776 3.25625 2.30601 4.45423 2.18579C4.97699 2.13115 5.46707 2.24044 5.9027 2.45902C5.94626 2.48087 6.00071 2.46995 6.03339 2.43716L6.85019 1.61749C6.89375 1.57377 6.89375 1.48634 6.82841 1.45355C6.20764 1.07104 5.48885 0.841531 4.71561 0.841531C2.55924 0.841531 0.827616 2.57924 0.827616 4.73224C0.827616 5.5082 1.05632 6.24044 1.45928 6.85246C1.49195 6.9071 1.57908 6.91803 1.62264 6.86339L2.42855 6.05464Z" fill="var(--fill-0, white)"/>
<path id="Vector_4" d="M6.92654 3.2786C6.89387 3.31139 6.88298 3.36604 6.91565 3.40975C7.18792 3.86877 7.3295 4.40429 7.26415 4.99445C7.14436 6.19664 6.17508 7.15838 4.9771 7.2786C4.39989 7.33325 3.85536 7.2021 3.39794 6.92888C3.35438 6.90702 3.29993 6.90702 3.26726 6.9398L2.47223 7.73762C2.42867 7.78133 2.42867 7.86877 2.48312 7.90155C3.11479 8.34964 3.88803 8.60101 4.71572 8.60101C6.8612 8.62286 8.60371 6.87423 8.60371 4.73216C8.60371 3.90155 8.34234 3.1256 7.89582 2.49172C7.85225 2.43707 7.77602 2.43707 7.73246 2.48079L6.92654 3.2786Z" fill="var(--fill-0, white)"/>
</g>
</svg>
