<?xml version="1.0" encoding="UTF-8"?>
<svg id="Camada_2" data-name="Camada 2" xmlns="http://www.w3.org/2000/svg" viewBox="0 0 24 24">
  <defs>
    <style>
      .cls-1 {
        fill: #fff;
      }

      .cls-2 {
        fill: none;
      }
    </style>
  </defs>
  <g id="Camada_1-2" data-name="Camada 1">
    <g id="Kraken_White">
      <path id="Kraken" class="cls-1" d="M12.21,2.53C5.55,2.53.09,7.9.09,14.64v5.2c0,.94.77,1.71,1.71,1.71s1.71-.77,1.71-1.71v-5.2c0-.94.77-1.71,1.71-1.71s1.71.77,1.71,1.71v5.2c0,.94.77,1.71,1.71,1.71s1.71-.77,1.71-1.71v-5.2c0-.94.77-1.71,1.71-1.71s1.71.77,1.71,1.71v5.2c0,.94.77,1.71,1.71,1.71s1.71-.77,1.71-1.71v-5.2c0-.94.77-1.71,1.71-1.71s1.71.77,1.71,1.71v5.2c0,.94.77,1.71,1.71,1.71s1.71-.77,1.71-1.71v-5.2c.43-6.74-5.03-12.11-11.77-12.11Z"/>
      <rect id="_24x24_square_to_size_them" data-name="24x24 square to size them" class="cls-2" width="24" height="24"/>
    </g>
  </g>
</svg>