<svg preserveAspectRatio="none" width="100%" height="100%" overflow="visible" style="display: block;" viewBox="0 0 16 16" fill="none" xmlns="http://www.w3.org/2000/svg">
<g id="Kraken">
<path id="Vector" d="M8.10634 1.33333C3.65356 1.33333 0 4.92981 0 9.43968V12.922C0 13.5499 0.513782 14.0637 1.14174 14.0637C1.76969 14.0637 2.28348 13.5499 2.28348 12.922V9.43968C2.28348 8.81172 2.79726 8.29794 3.42521 8.29794C4.05317 8.29794 4.56695 8.81172 4.56695 9.43968V12.922C4.56695 13.5499 5.08074 14.0637 5.70869 14.0637C6.33665 14.0637 6.85043 13.5499 6.85043 12.922V9.43968C6.85043 8.81172 7.36421 8.29794 7.99217 8.29794C8.62012 8.29794 9.13391 8.81172 9.13391 9.43968V12.922C9.13391 13.5499 9.64769 14.0637 10.2756 14.0637C10.9036 14.0637 11.4174 13.5499 11.4174 12.922V9.43968C11.4174 8.81172 11.9312 8.29794 12.5591 8.29794C13.1871 8.29794 13.7009 8.81172 13.7009 9.43968V12.922C13.7009 13.5499 14.2146 14.0637 14.8426 14.0637C15.4706 14.0637 15.9843 13.5499 15.9843 12.922V9.43968C16.2698 4.92981 12.6162 1.33333 8.10634 1.33333Z" fill="var(--fill-0, white)"/>
</g>
</svg>
