<svg preserveAspectRatio="none" width="100%" height="100%" overflow="visible" style="display: block;" viewBox="0 0 14.6667 16" fill="none" xmlns="http://www.w3.org/2000/svg">
<g id="Soda">
<path id="Vector" d="M5.93222 5.70468L1.22905 2.90299L0 5.09709L3.4905 7.17303L5.93222 5.70468Z" fill="var(--fill-0, white)"/>
<path id="Vector_2" d="M11.1761 7.17303L14.6667 5.09709L13.4376 2.90299L8.71805 5.70468L11.1761 7.17303Z" fill="var(--fill-0, white)"/>
<path id="Vector_3" d="M7.3251 4.87764L8.55415 4.1519V0H6.09605V4.1519L7.3251 4.87764Z" fill="var(--fill-0, white)"/>
<path id="Vector_4" d="M14.6667 10.9029L8.55419 7.27424L7.32514 6.5485L0 10.9029L1.22905 13.097L4.88343 10.9198C4.99814 10.8523 5.12924 10.8017 5.27672 10.8017C5.73557 10.8017 6.09609 11.173 6.09609 11.6455V16H8.55419V11.6455C8.55419 11.173 8.91471 10.8017 9.37356 10.8017C9.52104 10.8017 9.65214 10.8523 9.76685 10.9198L13.4376 13.0801L14.6667 10.9029Z" fill="var(--fill-0, white)"/>
</g>
</svg>
