<?xml version="1.0" encoding="UTF-8"?>
<svg id="Camada_2" data-name="Camada 2" xmlns="http://www.w3.org/2000/svg" viewBox="0 0 24 24">
  <defs>
    <style>
      .cls-1 {
        fill: #fff;
      }

      .cls-2 {
        fill: none;
      }
    </style>
  </defs>
  <g id="Camada_1-2" data-name="Camada 1">
    <g id="Upbit_White">
      <rect id="_24x24_square_to_size_them" data-name="24x24 square to size them" class="cls-2" width="24" height="24"/>
      <g>
        <path class="cls-1" d="M18.11,9.14h-1.7l-.97,2.96h1.7c.42,0,.89-.38,1.05-.85l.42-1.27c.15-.47-.07-.85-.49-.85Z"/>
        <path class="cls-1" d="M12,0C5.37,0,0,5.37,0,12s5.37,12,12,12,12-5.37,12-12S18.63,0,12,0ZM3.92,16.3c-.07,0-.14,0-.22-.02-.12-.01-.24-.04-.35-.09-.22-.08-.42-.2-.58-.39-.09-.12-.16-.25-.21-.39-.03-.07-.05-.14-.06-.22-.08-.37-.05-.75.05-1.11,0-.03.05-.17.05-.17l2.04-6.22h2.82l-2.08,6.32c-.11.35-.03.65.22.78.08.04.17.07.26.06h1.39l2.35-7.16h3.19l-2.34,2.43,1.26-.34-2.14,6.5H3.92ZM21.01,11.23s-.01.03-.02.05l-.02.05c-.11.3-.27.59-.46.85-.61.82-1.53,1.36-2.35,1.36h-3.2l-.91,2.77h-2.8s2.14-6.5,2.14-6.5l1.03.34-.74-2.43h6.37c1.16,0,1.76,1.03,1.34,2.3l-.4,1.23Z"/>
      </g>
    </g>
  </g>
</svg>