<svg preserveAspectRatio="none" width="100%" height="100%" overflow="visible" style="display: block;" viewBox="0 0 56 56" fill="none" xmlns="http://www.w3.org/2000/svg">
<g id="Logo">
<path id="Vector" d="M28 0C22.4621 0 17.0487 1.6422 12.4441 4.71887C7.83949 7.79555 4.25059 12.1684 2.13135 17.2849C0.012096 22.4012 -0.542304 28.031 0.537971 33.4624C1.61842 38.8939 4.28524 43.8832 8.20104 47.799C12.1168 51.7148 17.1061 54.3816 22.5376 55.462C27.969 56.5423 33.5988 55.9879 38.7151 53.8687C43.8316 51.7494 48.2045 48.1605 51.2811 43.5559C54.3578 38.9513 56 33.5379 56 28C56 20.5739 53.05 13.4521 47.799 8.20102C42.5479 2.94997 35.4261 0 28 0ZM27.3588 50.5806C25.7464 50.415 24.259 49.6366 23.2041 48.4059C22.1492 47.1753 21.6073 45.5866 21.6902 43.9679C21.7732 42.3489 22.4746 40.824 23.6497 39.7075C24.8246 38.591 26.3837 37.9685 28.0046 37.9685C29.6254 37.9685 31.1843 38.591 32.3594 39.7075C33.5346 40.824 34.236 42.3489 34.3189 43.9679C34.4017 45.5866 33.8597 47.1753 32.8048 48.4059C31.7499 49.6366 30.2628 50.415 28.6503 50.5806C28.4335 50.5806 28.2258 50.5806 28.0091 50.5806C27.7923 50.5806 27.5665 50.5806 27.3588 50.5806ZM39.742 44.538C39.742 44.4477 39.742 44.3483 39.742 44.258C39.742 41.1439 38.5049 38.1573 36.3029 35.9553C34.1009 33.7533 31.1141 32.516 28 32.516C24.8859 32.516 21.8993 33.7533 19.6971 35.9553C17.4951 38.1573 16.258 41.1439 16.258 44.258C16.258 44.3574 16.258 44.4477 16.258 44.538C14.7086 42.3785 13.7848 39.8335 13.5881 37.1829C13.3914 34.5322 13.9295 31.8787 15.1431 29.5141C16.3567 27.1495 18.1991 25.1655 20.4675 23.78C22.7357 22.3947 25.3421 21.6617 28 21.6617C30.6579 21.6617 33.2644 22.3947 35.5327 23.78C37.8009 25.1655 39.6433 27.1495 40.8569 29.5141C42.0705 31.8787 42.6087 34.5322 42.412 37.1829C42.2153 39.8335 41.2914 42.3785 39.742 44.538ZM47.6632 39.1186C48.0935 36.2892 47.9075 33.4001 47.1177 30.6491C46.3281 27.8981 44.9537 25.3503 43.0882 23.1798C41.2227 21.0093 38.9104 19.2673 36.3094 18.0731C33.7083 16.8789 30.8802 16.2606 28.018 16.2606C25.1561 16.2606 22.3277 16.8789 19.7269 18.0731C17.1259 19.2673 14.8134 21.0093 12.9481 23.1798C11.0826 25.3503 9.70797 27.8981 8.91837 30.6491C8.12877 33.4001 7.94274 36.2892 8.37289 39.1186C6.42619 35.6835 5.41417 31.798 5.43779 27.8497C5.46159 23.9013 6.52017 20.0282 8.50799 16.6168C10.4958 13.2053 13.3436 10.3747 16.7669 8.40735C20.1903 6.44 24.0697 5.4047 28.018 5.4047C31.9666 5.4047 35.846 6.44 39.2693 8.40735C42.6927 10.3747 45.5403 13.2053 47.5281 16.6168C49.5161 20.0282 50.5747 23.9013 50.5983 27.8497C50.6221 31.798 49.6101 35.6835 47.6632 39.1186Z" fill="var(--fill-0, #F76B8A)"/>
</g>
</svg>
