<svg preserveAspectRatio="none" width="100%" height="100%" overflow="visible" style="display: block;" viewBox="0 0 12 12" fill="none" xmlns="http://www.w3.org/2000/svg">
<g id="Logo">
<path id="Vector" d="M6 0C4.81332 0 3.65329 0.3519 2.66659 1.01119C1.67989 1.67047 0.910842 2.60752 0.456717 3.70391C0.002592 4.80026 -0.116208 6.00664 0.115279 7.17052C0.346804 8.33441 0.918267 9.40353 1.75737 10.2426C2.59647 11.0817 3.66559 11.6532 4.82948 11.8847C5.99336 12.1162 7.19974 11.9974 8.29609 11.5433C9.39248 11.0892 10.3295 10.3201 10.9888 9.33341C11.6481 8.34671 12 7.18669 12 6C12 4.40869 11.3679 2.88259 10.2426 1.75736C9.11741 0.632137 7.59131 0 6 0ZM5.8626 10.8387C5.51708 10.8032 5.19836 10.6364 4.97232 10.3727C4.74627 10.109 4.63013 9.76856 4.6479 9.42168C4.66568 9.07477 4.81598 8.748 5.06779 8.50875C5.31957 8.2695 5.65365 8.13611 6.00098 8.13611C6.3483 8.13611 6.68235 8.2695 6.93416 8.50875C7.18598 8.748 7.33628 9.07477 7.35405 9.42168C7.37179 9.76856 7.25565 10.109 7.0296 10.3727C6.80355 10.6364 6.48488 10.8032 6.13935 10.8387C6.09289 10.8387 6.04838 10.8387 6.00195 10.8387C5.95549 10.8387 5.90712 10.8387 5.8626 10.8387ZM8.51614 9.54386C8.51614 9.52451 8.51614 9.50321 8.51614 9.48386C8.51614 8.81655 8.25105 8.17657 7.77919 7.70471C7.30733 7.23285 6.66731 6.96772 6 6.96772C5.33269 6.96772 4.69272 7.23285 4.22082 7.70471C3.74895 8.17657 3.48387 8.81655 3.48387 9.48386C3.48387 9.50516 3.48387 9.52451 3.48387 9.54386C3.15184 9.08111 2.95388 8.53575 2.91173 7.96777C2.86958 7.39976 2.98489 6.83115 3.24495 6.32445C3.50502 5.81775 3.89982 5.39261 4.38589 5.09572C4.87193 4.79887 5.43045 4.64179 6 4.64179C6.56955 4.64179 7.12808 4.79887 7.61415 5.09572C8.10019 5.39261 8.49499 5.81775 8.75505 6.32445C9.01511 6.83115 9.13043 7.39976 9.08828 7.96777C9.04613 8.53575 8.84816 9.08111 8.51614 9.54386ZM10.2135 8.38256C10.3058 7.77626 10.2659 7.15717 10.0967 6.56767C9.92745 5.97817 9.63293 5.43221 9.23318 4.9671C8.83343 4.50199 8.33794 4.12871 7.78058 3.87281C7.22321 3.61691 6.61718 3.48442 6.00386 3.48442C5.39059 3.48442 4.78452 3.61691 4.22719 3.87281C3.66983 4.12871 3.1743 4.50199 2.77459 4.9671C2.37484 5.43221 2.08028 5.97817 1.91108 6.56767C1.74188 7.15717 1.70202 7.77626 1.79419 8.38256C1.37704 7.64647 1.16018 6.81386 1.16524 5.96779C1.17034 5.12171 1.39718 4.29176 1.82314 3.56074C2.2491 2.82971 2.85934 2.22315 3.59292 1.80157C4.32649 1.38 5.15779 1.15815 6.00386 1.15815C6.84998 1.15815 7.68128 1.38 8.41485 1.80157C9.14843 2.22315 9.75863 2.82971 10.1846 3.56074C10.6106 4.29176 10.8374 5.12171 10.8425 5.96779C10.8476 6.81386 10.6307 7.64647 10.2135 8.38256Z" fill="var(--fill-0, #F76B8A)"/>
</g>
</svg>
