<svg width="56" height="57" viewBox="0 0 56 57" fill="none" xmlns="http://www.w3.org/2000/svg">
<path d="M23.0134 29.551C22.1251 30.3839 22.1251 31.7664 23.0134 32.6159L29.5518 38.7456C30.458 39.5951 31.9149 39.5951 32.821 38.7456C33.7094 37.9128 33.7094 36.5303 32.821 35.6808L26.2826 29.551C25.3943 28.7182 23.9196 28.7182 23.0134 29.551Z" fill="black"/>
<path d="M45.2404 27.1026C46.1466 26.2531 46.1466 24.8872 45.2404 24.0377C44.3521 23.2049 42.8774 23.2049 41.9712 24.0377L32.8211 32.616C31.9149 33.4655 32.0748 33.3156 31.1865 34.1484C29.161 36.0473 26.3893 35.7475 25.4832 34.9147L29.5519 38.7291C30.4402 39.5619 31.9149 39.5619 32.8211 38.7291L45.2404 27.1026Z" fill="black"/>
<path d="M32.8745 26.5197C33.7628 25.6869 33.7628 24.3043 32.8745 23.4548L26.3361 17.3251C25.43 16.4756 23.973 16.4756 23.0669 17.3251C22.1785 18.158 22.1785 19.5405 23.0669 20.39L29.6053 26.5197C30.5114 27.3526 31.9683 27.3526 32.8745 26.5197Z" fill="black"/>
<path d="M10.6476 28.9846C9.74148 29.8341 9.74148 31.1999 10.6476 32.0494C11.536 32.8823 13.0107 32.8823 13.9168 32.0494L23.067 23.4545C23.9731 22.605 23.8132 22.7549 24.7016 21.9221C26.7271 20.0232 29.4988 20.323 30.4049 21.1559L26.3362 17.3414C25.4478 16.5086 23.9731 16.5086 23.067 17.3414L10.6476 28.9846Z" fill="black"/>
</svg>
