<?xml version="1.0" encoding="UTF-8"?>
<svg id="Camada_2" data-name="Camada 2" xmlns="http://www.w3.org/2000/svg" viewBox="0 0 192 48">
  <defs>
    <style>
      .cls-1, .cls-2 {
        fill: #fff;
      }

      .cls-2 {
        fill-rule: evenodd;
      }

      .cls-3 {
        fill: none;
      }
    </style>
  </defs>
  <g id="Camada_1-2" data-name="Camada 1">
    <g id="Bitwire">
      <rect class="cls-3" width="192" height="48"/>
      <rect class="cls-3" width="192" height="48"/>
      <g>
        <path class="cls-1" d="M186.85,43.77c2.84,0,5.15-2.31,5.15-5.15s-2.31-5.15-5.15-5.15-5.15,2.31-5.15,5.15,2.31,5.15,5.15,5.15Z"/>
        <path class="cls-2" d="M44.66,8.8c0,3.09-2.28,5.18-5.7,5.18s-5.7-2.09-5.7-5.18c0-3.25,2.28-5.4,5.7-5.4s5.7,2.15,5.7,5.4ZM43.56,14.94c.41,0,.78.37.78.74v27.31c0,.42-.36.78-.78.78h-9.12c-.41,0-.78-.37-.78-.78V15.66c0-.37.36-.74.78-.74h9.12v.02ZM10.67,16.19c1.55-1.26,3.89-1.98,6.33-1.98,8.18,0,13.67,6.08,13.67,15.15s-5.49,15.2-13.67,15.2c-3.47,0-6.78-1.37-8.76-3.46l-.78,1.89c-.21.48-.47.78-.84.78H.78c-.41,0-.78-.37-.78-.78V6.49c0-.37.36-.74.78-.74h9.12c.41,0,.78.37.78.74v9.69ZM10.67,32.71c.62,1.72,2.28,2.88,4.09,2.88,2.84,0,4.76-2.52,4.76-6.29s-1.92-6.08-4.76-6.08c-1.81,0-3.47,1.15-4.09,2.88v6.61ZM65.73,15.68c0-.43-.3-.74-.78-.74h-3.88v-6.6c0-.37-.36-.78-.78-.74l-9.12.89c-.41.06-.78.37-.78.74v5.71h-2.95c-.36,0-.73.31-.73.78v5.09c0,.43.36.74.73.74h2.95v21.44c0,.42.36.78.78.78h9.12c.41,0,.78-.37.78-.78v-21.44h3.31c.41,0,.73-.37.78-.78l.56-5.09ZM130.4,8.8c0,3.09-2.28,5.18-5.7,5.18s-5.7-2.09-5.7-5.18c0-3.25,2.28-5.4,5.7-5.4s5.7,2.15,5.7,5.4ZM129.32,14.94c.41,0,.78.37.78.74v27.31c0,.42-.36.78-.78.78h-9.12c-.41,0-.78-.37-.78-.78V15.66c0-.37.36-.74.78-.74h9.12v.02ZM150.43,15.68c0-.43-.32-.74-.73-.74h-1.37c-2.75,0-5.29,1.2-6.84,3.14l-.78-2.31c-.15-.42-.41-.78-.82-.78h-5.85c-.41,0-.78.37-.78.74v27.27c0,.42.36.78.78.78h9.12c.41,0,.78-.37.78-.78v-17.57c.68-1.31,2.45-2.2,4.41-2.2h1.35c.43,0,.73-.32.73-.74v-6.81ZM176.8,40.83c.11.37,0,.57-.36.78-2.75,1.83-6.74,2.94-10.72,2.94-9.17,0-15.28-6.08-15.28-15.15s6.01-15.2,15.02-15.2,13.67,5.62,13.67,15.15c0,.78-.05,1.57-.21,2.35-.05.42-.3.63-.78.63h-16.64s0,3.31,4.35,3.31c2.65,0,5.6-.63,7.92-1.72.36-.15.67.05.78.42l2.22,6.51.03-.02ZM168.83,26.83c0-2.31-1.4-3.83-3.47-3.83-2.33,0-3.89,1.52-3.89,3.83h7.36ZM105.68,15.66c-.01-.26.18-.46.43-.46l.02.03h10.16c.24,0,.43.22.43.46l-.99,17.61c-.02,2.48-.5,4.58-1.46,6.26-1,1.74-2.36,3.03-4.04,3.86-1.58.77-3.35,1.17-5.25,1.17-1.37,0-4.2-.25-6.1-1.17-1.7-.83-3.09-2.12-4.09-3.86-.97-1.69-1.48-3.83-1.48-6.35v-.22l.87-9.09c-.02-1.55-.43-2.58-.65-2.71-.97-.43-1.6-.25-2.02-.03-.49.25-.65.86-.59,2.37v.35l.88,9.08c0,2.52-.5,4.66-1.49,6.35-1,1.72-2.36,3.03-4.04,3.85-1.89.92-4.71,1.17-6.08,1.17-1.93,0-3.71-.38-5.29-1.17-1.69-.83-3.06-2.12-4.04-3.86-.96-1.68-1.46-3.78-1.46-6.26l-.99-17.37c-.02-.25.18-.46.43-.46h10.1c.24,0,.43.22.43.46l-.96,21.4c0,.49.09.89.26,1.18.21.35.41.48.55.55.59.29,1.23.32,1.82,0,.27-.14.47-.35.65-.65.17-.28.24-.66.24-1.15v-12.29c0-2.4.47-4.46,1.4-6.11.96-1.71,2.28-3,3.94-3.85,1.58-.82,3.36-1.22,5.31-1.22s3.73.42,5.31,1.22c1.66.85,2.98,2.15,3.94,3.85.93,1.65,1.4,3.71,1.4,6.11v12.29c0,.52.08.92.24,1.2.15.28.35.46.59.6.29.15.59.23.94.23.32,0,.59-.06.84-.2.23-.14.43-.34.59-.63.15-.28.24-.66.24-1.15l-.96-21.4Z"/>
      </g>
    </g>
  </g>
</svg>