<svg preserveAspectRatio="none" width="100%" height="100%" overflow="visible" style="display: block;" viewBox="0 0 126.72 24" fill="none" xmlns="http://www.w3.org/2000/svg">
<g id="Coindesk" clip-path="url(#clip0_0_6)">
<path id="Vector" d="M35.4454 16.9744C33.1085 16.9744 31.6603 14.877 31.6603 11.975C31.6603 9.10179 32.879 6.96122 35.431 6.96122C37.1085 6.96122 38.2125 8.03869 38.4134 9.46093H42.3133C42.1123 7.69389 41.3238 6.14237 39.9475 5.108C38.8291 4.24602 37.2806 3.7145 35.4454 3.7145C30.7427 3.7145 27.6887 7.27728 27.6887 11.975C27.6887 16.7015 30.843 20.1637 35.4742 20.1637C37.6963 20.1637 39.3165 19.546 40.521 18.3679C41.5962 17.3336 42.3133 15.897 42.4134 14.3311H38.5136C38.3418 15.8683 37.1946 16.9744 35.4454 16.9744Z" fill="var(--fill-0, white)"/>
<path id="Vector_2" d="M49.6125 8.21102C45.9994 8.21102 43.5763 10.7969 43.5763 14.2017C43.5763 17.6065 45.9994 20.1924 49.6125 20.1924C53.2541 20.1924 55.6342 17.6065 55.6342 14.2017C55.6342 10.7969 53.2541 8.21102 49.6125 8.21102ZM49.5981 17.6208C48.0352 17.6208 47.2179 16.2561 47.2179 14.2017C47.2179 12.1473 48.0352 10.7538 49.5981 10.7538C51.161 10.7538 52.0067 12.1473 52.0067 14.2017C51.9926 16.2561 51.161 17.6208 49.5981 17.6208Z" fill="var(--fill-0, white)"/>
<path id="Vector_3" d="M60.736 7.00921C61.503 6.2406 61.503 4.99446 60.736 4.22585C59.9686 3.45724 58.7251 3.45724 57.958 4.22585C57.191 4.99446 57.191 6.2406 57.958 7.00921C58.7251 7.77782 59.9686 7.77782 60.736 7.00921Z" fill="var(--fill-0, white)"/>
<path id="Vector_4" d="M56.2217 11.0577H57.727V19.8354H61.3116V8.51484H56.2217V11.0577Z" fill="var(--fill-0, white)"/>
<path id="Vector_5" d="M70.1293 8.18281C68.5667 8.18281 67.4768 8.84364 66.6455 10.0648H66.5738V8.51324H63.1184V19.8194H66.7171V13.5701C66.7171 12.1766 67.5056 11.1853 68.6957 11.1853C69.8714 11.1853 70.4592 12.0042 70.4592 13.1966V19.8194H74.0579V12.4639C74.0579 9.94985 72.5955 8.18281 70.1293 8.18281Z" fill="var(--fill-0, white)"/>
<path id="Vector_6" d="M82.488 4.03134H75.7638V19.8198H82.2445C84.223 19.8198 85.8144 19.3169 87.0477 18.3831C88.8112 17.0327 89.7859 14.806 89.7859 12.0189C89.7859 7.19188 86.8467 4.03134 82.488 4.03134ZM81.9577 16.5443H79.6637V7.30682H82.0006C84.4525 7.30682 85.8432 9.16004 85.8432 12.0333C85.8288 14.9209 84.5097 16.5443 81.9577 16.5443Z" fill="var(--fill-0, white)"/>
<path id="Vector_7" d="M100.441 9.67532C99.4666 8.799 98.1904 8.26745 96.5847 8.26745C93.1434 8.26745 90.792 10.8533 90.792 14.2294C90.792 17.6485 93.0861 20.2345 96.8141 20.2345C98.2477 20.2345 99.3946 19.8609 100.341 19.2001C101.33 18.5105 101.99 17.548 102.234 16.528H98.7351C98.4199 17.2319 97.8032 17.6485 96.857 17.6485C95.3802 17.6485 94.5485 16.7004 94.3191 15.1776H102.434C102.449 12.8646 101.789 10.9108 100.441 9.67532ZM94.3335 13.0226C94.5773 11.6722 95.2797 10.8103 96.6419 10.8103C97.8032 10.8103 98.6493 11.6722 98.7783 13.0226H94.3335Z" fill="var(--fill-0, white)"/>
<path id="Vector_8" d="M109.516 12.751C108.082 12.4924 106.806 12.3775 106.806 11.5874C106.806 10.8834 107.494 10.553 108.369 10.553C109.358 10.553 110.046 10.8691 110.175 11.8747H113.487C113.315 9.64793 111.595 8.25443 108.397 8.25443C105.731 8.25443 103.523 9.48992 103.523 11.8747C103.523 14.5324 105.616 15.0496 107.58 15.38C109.086 15.6386 110.448 15.7536 110.448 16.7735C110.448 17.5062 109.76 17.8941 108.684 17.8941C107.494 17.8941 106.749 17.3482 106.605 16.2133H103.207C103.322 18.713 105.387 20.2358 108.699 20.2358C111.652 20.2358 113.831 18.9572 113.831 16.4862C113.846 13.5986 111.509 13.0814 109.516 12.751Z" fill="var(--fill-0, white)"/>
<path id="Vector_9" d="M122.29 12.766L126.261 8.51358H122.118L118.763 12.335V4.03134H115.221V19.8341H118.763V16.3575L119.852 15.2082L122.562 19.8341H126.72L122.29 12.766Z" fill="var(--fill-0, white)"/>
<path id="Vector_10" d="M11.8904 13.0227C12.4922 13.0227 12.98 12.5339 12.98 11.9309C12.98 11.3279 12.4922 10.8391 11.8904 10.8391C11.2886 10.8391 10.8007 11.3279 10.8007 11.9309C10.8007 12.5339 11.2886 13.0227 11.8904 13.0227Z" fill="var(--fill-0, white)"/>
<path id="Vector_11" d="M20.5796 13.0227C21.1814 13.0227 21.6693 12.5339 21.6693 11.9309C21.6693 11.3279 21.1814 10.8391 20.5796 10.8391C19.9778 10.8391 19.49 11.3279 19.49 11.9309C19.49 12.5339 19.9778 13.0227 20.5796 13.0227Z" fill="var(--fill-0, white)"/>
<path id="Vector_12" d="M20.5796 21.7467C21.1814 21.7467 21.6693 21.2578 21.6693 20.6548C21.6693 20.0519 21.1814 19.563 20.5796 19.563C19.9778 19.563 19.49 20.0519 19.49 20.6548C19.49 21.2578 19.9778 21.7467 20.5796 21.7467Z" fill="var(--fill-0, white)"/>
<path id="Vector_13" d="M23.7752 3.01025C23.6605 1.41561 22.3845 0.122657 20.793 0.00772788C19.775 -0.0641029 18.8574 0.323782 18.2122 0.984627C17.7247 1.48744 17.0652 1.78913 16.3626 1.78913H16.1045C15.3877 1.78913 14.7138 1.48744 14.212 0.970259C13.6241 0.36688 12.8069 0.00772788 11.9036 0.00772788C11.0003 0.00772788 10.1831 0.381248 9.59523 0.970259C9.09341 1.48744 8.41955 1.78913 7.70266 1.78913H7.45891C6.75639 1.78913 6.0825 1.51617 5.59501 1.01336C5.49466 0.912796 5.39427 0.812233 5.29392 0.726035C4.07523 -0.265229 2.28301 -0.236497 1.10732 0.812233C-0.312115 2.06209 -0.369466 4.24575 0.949603 5.56741C0.963942 5.58178 0.978278 5.59615 0.992617 5.61051C1.50877 6.09896 1.78119 6.78856 1.78119 7.4925V7.73672C1.78119 8.45503 1.4801 9.13022 0.963939 9.63304C0.361756 10.2221 0.00331464 11.0409 0.00331464 11.946C0.00331464 12.8511 0.376096 13.6699 0.963939 14.259C1.4801 14.7618 1.78119 15.437 1.78119 16.1553V16.4857C1.78119 17.1896 1.4801 17.8505 0.978278 18.3389C0.34742 18.9567 -0.0396983 19.833 0.00331464 20.7955C0.0750031 22.4907 1.45142 23.8555 3.12893 23.913C4.10391 23.9417 4.9785 23.5538 5.59501 22.9074C6.0825 22.4046 6.74202 22.0885 7.44458 22.0885H7.71699C8.41955 22.0885 9.07907 22.3902 9.56656 22.9074C10.2117 23.5826 11.1437 23.9704 12.1617 23.8986C13.7532 23.7837 15.0436 22.4907 15.1583 20.8817C15.2873 18.9711 13.7962 17.3908 11.918 17.3908C11.029 17.3908 10.2117 17.7499 9.62391 18.3389C9.12208 18.8417 8.44823 19.1434 7.74567 19.1434H7.44458C6.74202 19.1434 6.05383 18.8705 5.552 18.3533C5.53767 18.3389 5.53767 18.3389 5.52333 18.3246C5.00717 17.8217 4.70608 17.1465 4.70608 16.4282V16.1409C4.70608 15.4226 5.00717 14.7474 5.52333 14.2446C6.12551 13.6556 6.48397 12.8367 6.48397 11.9316C6.48397 11.0266 6.11117 10.2077 5.52333 9.61867C5.00717 9.11586 4.70608 8.44066 4.70608 7.72235V7.46376C4.70608 6.74546 5.00717 6.07023 5.50899 5.56741C5.52333 5.55307 5.52333 5.55307 5.53767 5.53871C5.552 5.52434 5.552 5.52434 5.56634 5.50997C6.06816 5.00715 6.74202 4.70546 7.45891 4.70546H7.71699C8.43389 4.70546 9.10775 5.00715 9.60957 5.52434C10.1974 6.1277 11.0147 6.48687 11.918 6.48687C12.8212 6.48687 13.6385 6.11333 14.2263 5.52434C14.7281 5.00715 15.402 4.70546 16.1189 4.70546H16.3483C17.0652 4.70546 17.739 5.00715 18.2409 5.52434C18.8287 6.1277 19.646 6.48687 20.5492 6.48687C22.4132 6.50123 23.9043 4.92095 23.7752 3.01025Z" fill="var(--fill-0, white)"/>
</g>
<defs>
<clipPath id="clip0_0_6">
<rect width="126.72" height="24" fill="white"/>
</clipPath>
</defs>
</svg>
