<?xml version="1.0" encoding="UTF-8"?>
<svg id="Camada_2" data-name="Camada 2" xmlns="http://www.w3.org/2000/svg" viewBox="0 0 192 48">
  <defs>
    <style>
      .cls-1 {
        fill: #fff;
      }

      .cls-2 {
        fill: none;
      }
    </style>
  </defs>
  <g id="Camada_1-2" data-name="Camada 1">
    <g id="CoinDesk">
      <g id="CoinDesk-2" data-name="CoinDesk">
        <path class="cls-1" d="M53.71,31.6c-3.54,0-5.74-3.18-5.74-7.57s1.85-7.6,5.71-7.6c2.54,0,4.21,1.63,4.52,3.79h5.91c-.3-2.68-1.5-5.03-3.58-6.6-1.69-1.31-4.04-2.11-6.82-2.11-7.13,0-11.75,5.4-11.75,12.52s4.78,12.41,11.8,12.41c3.37,0,5.82-.94,7.65-2.72,1.63-1.57,2.72-3.74,2.87-6.12h-5.91c-.26,2.33-2,4.01-4.65,4.01Z"/>
        <path class="cls-1" d="M75.17,18.32c-5.47,0-9.15,3.92-9.15,9.08s3.67,9.08,9.15,9.08,9.12-3.92,9.12-9.08-3.61-9.08-9.12-9.08ZM75.15,32.58c-2.37,0-3.61-2.07-3.61-5.18s1.24-5.22,3.61-5.22,3.65,2.11,3.65,5.22c-.02,3.11-1.28,5.18-3.65,5.18Z"/>
        <path class="cls-1" d="M92.02,16.5c1.16-1.16,1.16-3.05,0-4.22-1.16-1.16-3.05-1.16-4.21,0s-1.16,3.05,0,4.22,3.05,1.16,4.21,0Z"/>
        <path class="cls-1" d="M85.18,22.63h2.28v13.3h5.43v-17.15h-7.71v3.85Z"/>
        <path class="cls-1" d="M106.26,18.28c-2.37,0-4.02,1-5.28,2.85h-.11v-2.35h-5.24v17.13h5.45v-9.47c0-2.11,1.19-3.61,3-3.61s2.67,1.24,2.67,3.05v10.03h5.45v-11.14c0-3.81-2.22-6.49-5.95-6.49Z"/>
        <path class="cls-1" d="M124.98,11.99h-10.19v23.92h9.82c3,0,5.41-.76,7.28-2.18,2.67-2.05,4.15-5.42,4.15-9.64,0-7.31-4.45-12.1-11.06-12.1ZM124.18,30.95h-3.48v-14h3.54c3.71,0,5.82,2.81,5.82,7.16-.02,4.38-2.02,6.83-5.89,6.83Z"/>
        <path class="cls-1" d="M152.18,20.54c-1.48-1.33-3.41-2.13-5.84-2.13-5.21,0-8.78,3.92-8.78,9.03s3.48,9.1,9.12,9.1c2.17,0,3.91-.57,5.34-1.57,1.5-1.04,2.5-2.5,2.87-4.05h-5.3c-.48,1.07-1.41,1.7-2.85,1.7-2.24,0-3.5-1.44-3.85-3.74h12.3c.02-3.5-.98-6.46-3.02-8.34ZM142.93,25.62c.37-2.05,1.43-3.35,3.5-3.35,1.76,0,3.04,1.31,3.24,3.35h-6.73Z"/>
        <path class="cls-1" d="M165.93,25.2c-2.17-.39-4.11-.57-4.11-1.76,0-1.07,1.04-1.57,2.37-1.57,1.5,0,2.54.48,2.74,2h5.02c-.26-3.37-2.87-5.49-7.71-5.49-4.04,0-7.39,1.87-7.39,5.49,0,4.03,3.17,4.81,6.15,5.31,2.28.39,4.34.57,4.34,2.11,0,1.11-1.04,1.7-2.67,1.7-1.8,0-2.93-.83-3.15-2.55h-5.15c.17,3.79,3.3,6.09,8.32,6.09,4.48,0,7.78-1.94,7.78-5.68.02-4.38-3.52-5.16-6.54-5.66Z"/>
        <path class="cls-1" d="M185.29,25.22l6.02-6.44h-6.28l-5.08,5.79v-12.58h-5.37v23.94h5.37v-5.27l1.65-1.74,4.11,7.01h6.3l-6.71-10.71Z"/>
        <path class="cls-1" d="M18.01,25.62c.91,0,1.65-.74,1.65-1.65s-.74-1.65-1.65-1.65-1.65.74-1.65,1.65.74,1.65,1.65,1.65Z"/>
        <path class="cls-1" d="M31.18,25.62c.91,0,1.65-.74,1.65-1.65s-.74-1.65-1.65-1.65-1.65.74-1.65,1.65.74,1.65,1.65,1.65Z"/>
        <path class="cls-1" d="M31.18,38.83c.91,0,1.65-.74,1.65-1.65s-.74-1.65-1.65-1.65-1.65.74-1.65,1.65.74,1.65,1.65,1.65Z"/>
        <path class="cls-1" d="M36.02,10.44c-.17-2.42-2.11-4.38-4.52-4.55-1.54-.11-2.93.48-3.91,1.48-.74.76-1.74,1.22-2.8,1.22h-.39c-1.09,0-2.11-.46-2.87-1.24-.89-.91-2.13-1.46-3.5-1.46s-2.61.57-3.5,1.46c-.76.78-1.78,1.24-2.87,1.24h-.37c-1.06,0-2.09-.41-2.82-1.18-.15-.15-.3-.3-.46-.44-1.85-1.5-4.56-1.46-6.34.13-2.15,1.89-2.24,5.2-.24,7.2.02.02.04.04.07.07.78.74,1.19,1.78,1.19,2.85v.37c0,1.09-.46,2.11-1.24,2.87C.55,21.37,0,22.61,0,23.98s.56,2.61,1.46,3.5c.78.76,1.24,1.78,1.24,2.87v.5c0,1.07-.46,2.07-1.22,2.81-.96.94-1.54,2.26-1.48,3.72.11,2.57,2.19,4.64,4.74,4.72,1.48.04,2.8-.54,3.74-1.52.74-.76,1.74-1.24,2.8-1.24h.41c1.06,0,2.06.46,2.8,1.24.98,1.02,2.39,1.61,3.93,1.5,2.41-.17,4.37-2.13,4.54-4.57.2-2.89-2.06-5.29-4.91-5.29-1.35,0-2.59.54-3.48,1.44-.76.76-1.78,1.22-2.85,1.22h-.46c-1.06,0-2.11-.41-2.87-1.2t-.04-.04c-.78-.76-1.24-1.78-1.24-2.87v-.44c0-1.09.46-2.11,1.24-2.87.91-.89,1.46-2.13,1.46-3.5s-.56-2.61-1.46-3.5c-.78-.76-1.24-1.78-1.24-2.87v-.39c0-1.09.46-2.11,1.22-2.87t.04-.04s.02-.02.04-.04c.76-.76,1.78-1.22,2.87-1.22h.39c1.09,0,2.11.46,2.87,1.24.89.91,2.13,1.46,3.5,1.46s2.61-.57,3.5-1.46c.76-.78,1.78-1.24,2.87-1.24h.35c1.09,0,2.11.46,2.87,1.24.89.91,2.13,1.46,3.5,1.46,2.82.02,5.08-2.37,4.89-5.27Z"/>
      </g>
      <rect class="cls-2" x="0" width="192" height="48"/>
    </g>
  </g>
</svg>