<svg xmlns="http://www.w3.org/2000/svg" width="137" height="32" viewBox="0 0 137 32" fill="none">
<g>
<path d="M19.8377 23.2769L14.1437 25.7595V25.5089C13.0505 25.7822 11.8206 25.9417 10.6818 26.01C5.30674 25.9644 1.07046 23.1402 1.00213 19.815V18.5851C2.75586 21.136 6.35443 22.8669 10.6818 22.7986C12.1395 22.8669 13.6427 22.6392 14.8953 22.2976L15.3964 21.0677C13.916 21.5232 12.2761 21.8193 10.6818 21.8193C5.30674 21.8193 1.07046 19.0178 1.00213 15.6243V14.6221C2.75586 16.9908 6.35443 18.699 10.6818 18.5851C12.6405 18.699 14.5309 18.289 16.148 17.583L16.3985 16.3531C14.827 17.173 12.8 17.6513 10.7046 17.583C5.32952 17.6513 1.09323 14.8499 1.02491 11.388V10.3858C2.77864 12.8001 6.3772 14.531 10.7046 14.5994C13.1644 14.531 15.4875 13.8705 17.4007 12.8684L17.6512 11.388C15.9202 12.6634 13.3921 13.5061 10.7046 13.62C5.32952 13.5061 1.09323 10.6819 1.02491 7.17447C1.07046 3.82644 5.32952 1.02503 10.7046 0.979475C13.8932 1.02503 16.8768 2.14104 18.6305 3.9631L18.8127 4.25918H20.0654L19.8832 3.9631C18.1295 1.57165 14.5992 0.000118733 10.7046 0.000118733C4.73735 -0.022657 0 3.23427 0 7.1517V7.40222V20.0427C0.204981 23.8691 4.82845 26.9893 10.659 26.9893C14.5081 27.0121 17.9928 25.4861 19.8377 23.2769Z" fill="white"/>
<path d="M17.5152 31.9988L19.5194 23.4807L13.7572 25.986L17.2646 11.2274H10.523L12.2767 3.96191H33.7998L32.0461 11.2274H25.0311L23.5279 15.2359L31.2945 11.979L17.5152 31.9988ZM21.0226 21.7497L20.0205 26.7604L28.2881 14.2565L21.5237 17.2629L24.5301 10.248H31.2945L32.5471 4.98682H13.0056L11.7529 10.248H18.5173L15.2604 24.2551L21.0226 21.7497Z" fill="white"/>
<path d="M48.0825 8.86021C48.1052 9.65736 47.8547 10.2723 47.3536 10.7278C46.8526 11.1833 46.1693 11.4111 45.281 11.4111C44.3928 11.4111 43.664 11.115 43.1174 10.5456C42.5707 9.97621 42.2974 9.22461 42.2974 8.31358V6.83316C42.2974 5.92213 42.5707 5.17054 43.0946 4.60114C43.6412 4.03175 44.3472 3.73567 45.2127 3.73567C46.1237 3.73567 46.8298 3.96342 47.3536 4.39616C47.8775 4.85168 48.128 5.46662 48.1052 6.26377V6.28654H46.6476C46.6476 5.80825 46.5337 5.44385 46.306 5.21609C46.0782 4.98833 45.7138 4.87445 45.2355 4.87445C44.78 4.87445 44.4383 5.05666 44.1878 5.42107C43.9373 5.78548 43.8006 6.241 43.8006 6.81039V8.31358C43.8006 8.88298 43.9373 9.36127 44.1878 9.72568C44.4611 10.0901 44.8255 10.2723 45.3038 10.2723C45.7593 10.2723 46.0782 10.1584 46.306 9.93066C46.5337 9.7029 46.6476 9.3385 46.6476 8.86021H48.0825ZM56.3273 8.24526C56.3273 9.15629 56.0312 9.93066 55.4618 10.5228C54.8924 11.115 54.1408 11.4111 53.207 11.4111C52.2732 11.4111 51.5444 11.115 50.9522 10.5228C50.3828 9.93066 50.0867 9.15629 50.0867 8.24526V6.90149C50.0867 5.99046 50.3828 5.23886 50.9522 4.62392C51.5216 4.03175 52.2732 3.71289 53.1842 3.71289C54.118 3.71289 54.8696 4.00897 55.439 4.62392C56.0312 5.21609 56.3045 5.99046 56.3045 6.90149V8.24526H56.3273ZM54.8241 6.87871C54.8241 6.28655 54.6874 5.83103 54.3913 5.44385C54.0952 5.07944 53.7081 4.87445 53.1842 4.87445C52.6832 4.87445 52.2732 5.05666 51.9999 5.44385C51.7266 5.80826 51.5671 6.28655 51.5671 6.87871V8.22248C51.5671 8.81465 51.7038 9.29294 51.9999 9.68013C52.2732 10.0445 52.6832 10.2495 53.1842 10.2495C53.7081 10.2495 54.0952 10.0673 54.3913 9.68013C54.6874 9.31571 54.8241 8.81465 54.8241 8.22248V6.87871ZM60.1991 11.2972H58.6959V3.82677H60.1991V11.2972ZM68.8311 11.2972H67.3279L64.3215 6.26377H64.2988V11.2972H62.7956V3.82677H64.2988L67.3052 8.86021H67.3279V3.82677H68.8311V11.2972ZM76.3699 4.98833H74.229V11.2972H72.7258V4.98833H70.6304V3.82677H76.3699V4.98833ZM82.5649 8.0175H79.7863V10.1584H83.0887V11.2972H78.3058V3.82677H83.0887V4.98833H79.809V6.85594H82.5877V8.0175H82.5649ZM86.7329 10.1584H90.0809V11.2972H85.2297V3.82677H86.7329V10.1584ZM96.4581 8.0175H93.6795V10.1584H96.9819V11.2972H92.199V3.82677H96.9819V4.98833H93.7022V6.85594H96.4809V8.0175H96.4581ZM104.862 10.2951C104.635 10.5912 104.293 10.8645 103.815 11.0922C103.359 11.32 102.767 11.4339 102.038 11.4339C101.127 11.4339 100.398 11.1605 99.8289 10.5912C99.2595 10.0218 98.9634 9.29294 98.9634 8.38191V6.81039C98.9634 5.89936 99.2367 5.17054 99.8061 4.60114C100.353 4.03175 101.082 3.73567 101.947 3.73567C102.858 3.73567 103.564 3.96342 104.042 4.39616C104.521 4.8289 104.771 5.3983 104.748 6.12712V6.14989H103.336C103.336 5.7627 103.222 5.44385 102.995 5.21609C102.767 4.98833 102.425 4.87445 101.993 4.87445C101.537 4.87445 101.173 5.05666 100.877 5.39829C100.603 5.7627 100.467 6.21822 100.467 6.76484V8.33636C100.467 8.90575 100.603 9.36127 100.899 9.72568C101.195 10.0901 101.583 10.2495 102.061 10.2495C102.425 10.2495 102.699 10.204 102.904 10.1356C103.109 10.0673 103.268 9.97621 103.382 9.86234V8.40469H101.947V7.35701H104.885V10.2951H104.862ZM108.734 8.31358V11.2972H107.231V3.82677H109.827C110.67 3.82677 111.353 4.03175 111.832 4.41894C112.31 4.80613 112.561 5.35274 112.561 6.03601C112.561 6.4232 112.469 6.74206 112.264 7.03815C112.059 7.31146 111.763 7.53921 111.376 7.72142C111.809 7.85807 112.128 8.06305 112.333 8.38191C112.515 8.678 112.629 9.06519 112.629 9.5207V10.0673C112.629 10.2723 112.652 10.5001 112.72 10.7278C112.766 10.9556 112.879 11.115 113.016 11.2289V11.3428H111.467C111.331 11.2289 111.24 11.0467 111.194 10.7961C111.148 10.5456 111.126 10.2951 111.126 10.0673V9.54348C111.126 9.17907 111.035 8.88298 110.83 8.678C110.625 8.47301 110.328 8.35914 109.964 8.35914H108.734V8.31358ZM108.734 7.1748H109.805C110.215 7.1748 110.533 7.0837 110.738 6.90149C110.943 6.71929 111.057 6.46875 111.057 6.10434C111.057 5.76271 110.943 5.4894 110.738 5.28441C110.533 5.07943 110.237 4.98833 109.827 4.98833H108.734V7.1748ZM118.915 9.7029H116.501L116 11.32H114.428L116.956 3.84955H118.482L120.988 11.32H119.416L118.915 9.7029ZM116.865 8.51857H118.551L117.731 5.87658H117.708L116.865 8.51857ZM124.313 8.58689V11.2972H122.81V3.82677H125.679C126.545 3.82677 127.205 4.05453 127.706 4.48726C128.207 4.92 128.435 5.51217 128.435 6.21822C128.435 6.92427 128.185 7.51644 127.706 7.94918C127.205 8.38192 126.545 8.60967 125.679 8.60967H124.313V8.58689ZM124.313 7.44811H125.679C126.089 7.44811 126.408 7.33423 126.636 7.10647C126.841 6.87871 126.955 6.58263 126.955 6.241C126.955 5.87659 126.841 5.5805 126.636 5.35274C126.431 5.12498 126.112 5.0111 125.679 5.0111H124.313V7.44811ZM136.657 11.2972H135.154V8.1997H132.102V11.2972H130.599V3.82677H132.102V7.03815H135.154V3.82677H136.657V11.2972Z" fill="white"/>
<path d="M45.0295 23.5036H44.0957V18.5841H42.4102V17.7869H46.7149V18.5841H45.0295V23.5036ZM51.2928 23.5036H50.359V20.8389C50.359 20.4972 50.2906 20.2467 50.154 20.0873C50.0173 19.9278 49.8124 19.8367 49.5163 19.8367C49.1291 19.8367 48.8558 19.9506 48.6736 20.1784C48.4914 20.4061 48.4003 20.7933 48.4003 21.3399V23.4808H47.4892V17.3997H48.4003V18.9485C48.4003 19.199 48.3775 19.4495 48.3547 19.7456H48.423C48.5369 19.5406 48.7191 19.3812 48.9469 19.2673C49.1746 19.1535 49.4252 19.0851 49.7213 19.0851C50.7689 19.0851 51.2928 19.609 51.2928 20.6794V23.5036ZM54.4586 23.5719C53.7753 23.5719 53.2515 23.367 52.8871 22.9798C52.4999 22.5926 52.3177 22.046 52.3177 21.3627C52.3177 20.6567 52.4999 20.11 52.8415 19.7001C53.1832 19.2901 53.6842 19.0851 54.2992 19.0851C54.8686 19.0851 55.3241 19.2673 55.6429 19.609C55.9846 19.9506 56.144 20.4289 56.144 21.0438V21.5449H53.2515C53.2743 21.9549 53.3881 22.2965 53.5931 22.5015C53.7981 22.7292 54.117 22.8431 54.5042 22.8431C54.7547 22.8431 55.0052 22.8203 55.2102 22.7748C55.438 22.7292 55.6657 22.6381 55.9163 22.5243V23.2759C55.6885 23.3897 55.4607 23.4581 55.233 23.5036C55.028 23.5492 54.7547 23.5719 54.4586 23.5719ZM54.2992 19.7912C54.0031 19.7912 53.7753 19.8823 53.5931 20.0645C53.4109 20.2467 53.3198 20.52 53.2743 20.8844H55.233C55.233 20.52 55.1419 20.2467 54.9824 20.0645C54.823 19.8823 54.5953 19.7912 54.2992 19.7912ZM61.428 19.8595H60.3803V23.5036H59.4465V19.8595H58.7404V19.4268L59.4465 19.1535V18.8802C59.4465 18.3791 59.5604 17.9919 59.8109 17.7414C60.0614 17.4908 60.4258 17.377 60.9041 17.377C61.223 17.377 61.5419 17.4225 61.8607 17.5364L61.6102 18.2424C61.3824 18.1741 61.1774 18.1285 60.9497 18.1285C60.7447 18.1285 60.5853 18.1969 60.4942 18.3108C60.4031 18.4474 60.3575 18.6296 60.3575 18.8802V19.1535H61.4052V19.8595H61.428ZM65.2315 23.5036L65.0949 22.9342H65.0493C64.9127 23.1392 64.7305 23.2986 64.5027 23.4125C64.2749 23.5264 64.0016 23.5947 63.7055 23.5947C63.1817 23.5947 62.7945 23.4581 62.5212 23.2075C62.2479 22.957 62.134 22.547 62.134 22.0232V19.1762H63.0678V21.841C63.0678 22.1826 63.1362 22.4104 63.2728 22.5926C63.4095 22.752 63.6144 22.8431 63.9105 22.8431C64.2977 22.8431 64.571 22.7292 64.7532 22.5015C64.9354 22.2737 65.0265 21.8865 65.0265 21.3399V19.1762H65.9603V23.5036H65.2315ZM68.8756 22.8203C69.1034 22.8203 69.3312 22.7748 69.5589 22.7065V23.3897C69.4678 23.4353 69.3312 23.4808 69.1717 23.5036C69.0123 23.5264 68.8529 23.5492 68.6707 23.5492C67.8052 23.5492 67.3724 23.0937 67.3724 22.1826V19.8595H66.7803V19.4495L67.418 19.1079L67.7368 18.1969H68.3062V19.1535H69.5361V19.8595H68.3062V22.1826C68.3062 22.4104 68.3518 22.5698 68.4657 22.6837C68.534 22.7748 68.6934 22.8203 68.8756 22.8203ZM73.4536 23.5036L73.3169 22.9342H73.2714C73.1347 23.1392 72.9525 23.2986 72.7247 23.4125C72.497 23.5264 72.2237 23.5947 71.9276 23.5947C71.4037 23.5947 71.0166 23.4581 70.7432 23.2075C70.4927 22.957 70.3561 22.547 70.3561 22.0232V19.1762H71.2899V21.841C71.2899 22.1826 71.3582 22.4104 71.4948 22.5926C71.6315 22.752 71.8365 22.8431 72.1326 22.8431C72.5198 22.8431 72.7931 22.7292 72.9753 22.5015C73.1575 22.2737 73.2486 21.8865 73.2486 21.3399V19.1762H74.1824V23.5036H73.4536ZM77.6898 19.0851C77.872 19.0851 78.0315 19.1079 78.1454 19.1307L78.0543 19.9962C77.9176 19.9734 77.7809 19.9506 77.6443 19.9506C77.2799 19.9506 76.9838 20.0645 76.756 20.315C76.5283 20.5656 76.4144 20.8616 76.4144 21.2488V23.5036H75.5034V19.1762H76.2322L76.3461 19.9278H76.3916C76.5283 19.6773 76.7333 19.4723 76.961 19.3129C77.166 19.1762 77.4165 19.0851 77.6898 19.0851ZM80.6735 23.5719C79.9902 23.5719 79.4663 23.367 79.1019 22.9798C78.7147 22.5926 78.5325 22.046 78.5325 21.3627C78.5325 20.6567 78.7147 20.11 79.0564 19.7001C79.398 19.2901 79.8991 19.0851 80.514 19.0851C81.0834 19.0851 81.5389 19.2673 81.8578 19.609C82.1994 19.9506 82.3589 20.4289 82.3589 21.0438V21.5449H79.4663C79.4891 21.9549 79.603 22.2965 79.808 22.5015C80.013 22.7292 80.3318 22.8431 80.719 22.8431C80.9695 22.8431 81.2201 22.8203 81.4251 22.7748C81.6528 22.7292 81.8806 22.6381 82.1311 22.5243V23.2759C81.9034 23.3897 81.6756 23.4581 81.4478 23.5036C81.2201 23.5492 80.9695 23.5719 80.6735 23.5719ZM80.514 19.7912C80.2179 19.7912 79.9902 19.8823 79.808 20.0645C79.6258 20.2467 79.5347 20.52 79.4891 20.8844H81.4478C81.4478 20.52 81.3567 20.2467 81.1973 20.0645C81.0151 19.8823 80.7873 19.7912 80.514 19.7912ZM89.3055 21.3171C89.3055 22.0232 89.1233 22.5698 88.7588 22.9798C88.3944 23.367 87.8934 23.5719 87.2556 23.5719C86.8457 23.5719 86.504 23.4808 86.1852 23.2986C85.8663 23.1164 85.6386 22.8431 85.4791 22.5015C85.3197 22.1599 85.2286 21.7727 85.2286 21.3171C85.2286 20.6111 85.4108 20.0645 85.7752 19.6773C86.1396 19.2901 86.6407 19.0851 87.3012 19.0851C87.9161 19.0851 88.4172 19.2901 88.7816 19.7001C89.146 20.11 89.3055 20.6339 89.3055 21.3171ZM86.1624 21.3171C86.1624 22.3193 86.5268 22.8203 87.2784 22.8203C88.0072 22.8203 88.3717 22.3193 88.3717 21.3171C88.3717 20.3378 88.0072 19.8367 87.2784 19.8367C86.8912 19.8367 86.6179 19.9734 86.4357 20.2239C86.2535 20.4745 86.1624 20.8389 86.1624 21.3171ZM92.5396 19.8595H91.4919V23.5036H90.5581V19.8595H89.8521V19.4268L90.5581 19.1535V18.8802C90.5581 18.3791 90.672 17.9919 90.9225 17.7414C91.1731 17.4908 91.5375 17.377 92.0158 17.377C92.3346 17.377 92.6535 17.4225 92.9724 17.5364L92.7218 18.2424C92.4941 18.1741 92.2891 18.1285 92.0613 18.1285C91.8563 18.1285 91.6969 18.1969 91.6058 18.3108C91.5147 18.4246 91.4692 18.6296 91.4692 18.8802V19.1535H92.5168V19.8595H92.5396ZM99.0079 23.5036H98.0741V20.8389C98.0741 20.4972 98.0058 20.2695 97.8919 20.0873C97.778 19.9278 97.573 19.8367 97.2997 19.8367C96.9353 19.8367 96.6848 19.9506 96.5254 20.1784C96.3659 20.4061 96.2748 20.7933 96.2748 21.3399V23.5036H95.3638V19.1762H96.0926L96.2293 19.7456H96.2748C96.3887 19.5406 96.5709 19.3812 96.7987 19.2673C97.0264 19.1535 97.277 19.1079 97.5503 19.1079C98.2108 19.1079 98.6663 19.3357 98.8713 19.7912H98.9396C99.0762 19.5862 99.2584 19.404 99.4862 19.2901C99.714 19.1762 99.9873 19.1079 100.283 19.1079C100.807 19.1079 101.172 19.2446 101.422 19.4951C101.65 19.7456 101.787 20.1556 101.787 20.6794V23.5036H100.876V20.8389C100.876 20.4972 100.807 20.2695 100.693 20.0873C100.557 19.9278 100.374 19.8367 100.101 19.8367C99.7367 19.8367 99.4862 19.9506 99.3268 20.1784C99.1673 20.4061 99.0762 20.7478 99.0762 21.2033V23.5036H99.0079ZM106.843 21.3171C106.843 22.0232 106.661 22.5698 106.296 22.9798C105.932 23.367 105.431 23.5719 104.793 23.5719C104.383 23.5719 104.041 23.4808 103.722 23.2986C103.404 23.1164 103.176 22.8431 103.016 22.5015C102.857 22.1599 102.766 21.7727 102.766 21.3171C102.766 20.6111 102.948 20.0645 103.313 19.6773C103.677 19.2901 104.178 19.0851 104.838 19.0851C105.453 19.0851 105.955 19.2901 106.319 19.7001C106.661 20.11 106.843 20.6339 106.843 21.3171ZM103.7 21.3171C103.7 22.3193 104.064 22.8203 104.816 22.8203C105.545 22.8203 105.909 22.3193 105.909 21.3171C105.909 20.3378 105.545 19.8367 104.816 19.8367C104.429 19.8367 104.155 19.9734 103.973 20.2239C103.791 20.4745 103.7 20.8389 103.7 21.3171ZM111.717 23.5036H110.783V20.8389C110.783 20.4972 110.715 20.2467 110.578 20.0873C110.441 19.9278 110.236 19.8367 109.94 19.8367C109.553 19.8367 109.257 19.9506 109.098 20.1784C108.938 20.4061 108.824 20.7933 108.824 21.3399V23.5036H107.913V19.1762H108.642L108.779 19.7456H108.824C108.961 19.5406 109.143 19.3812 109.371 19.2673C109.599 19.1535 109.872 19.1079 110.168 19.1079C111.216 19.1079 111.717 19.6318 111.717 20.7022V23.5036ZM114.883 23.5719C114.199 23.5719 113.675 23.367 113.311 22.9798C112.924 22.5926 112.742 22.046 112.742 21.3627C112.742 20.6567 112.924 20.11 113.266 19.7001C113.607 19.2901 114.108 19.0851 114.723 19.0851C115.293 19.0851 115.748 19.2673 116.067 19.609C116.409 19.9506 116.568 20.4289 116.568 21.0438V21.5449H113.675C113.698 21.9549 113.812 22.2965 114.017 22.5015C114.222 22.7292 114.541 22.8431 114.928 22.8431C115.179 22.8431 115.429 22.8203 115.634 22.7748C115.839 22.7292 116.09 22.6381 116.34 22.5243V23.2759C116.112 23.3897 115.885 23.4581 115.657 23.5036C115.429 23.5492 115.179 23.5719 114.883 23.5719ZM114.7 19.7912C114.404 19.7912 114.177 19.8823 113.994 20.0645C113.812 20.2467 113.721 20.52 113.675 20.8844H115.634C115.634 20.52 115.543 20.2467 115.384 20.0645C115.224 19.8823 114.996 19.7912 114.7 19.7912ZM116.796 19.1762H117.798L118.686 21.636C118.823 21.9776 118.914 22.3193 118.959 22.6154H118.982C119.005 22.4787 119.051 22.2965 119.119 22.0915C119.187 21.8865 119.506 20.9072 120.121 19.1762H121.123L119.278 24.073C118.937 24.9613 118.39 25.4168 117.593 25.4168C117.388 25.4168 117.183 25.394 117.001 25.3485V24.6196C117.137 24.6424 117.297 24.6652 117.479 24.6652C117.912 24.6652 118.231 24.4147 118.413 23.8908L118.572 23.4808L116.796 19.1762Z" fill="white"/>
</g>
</svg>
