<?xml version="1.0" encoding="UTF-8"?>
<svg id="Camada_2" data-name="Camada 2" xmlns="http://www.w3.org/2000/svg" viewBox="0 0 192 48">
  <defs>
    <style>
      .cls-1 {
        fill: #fff;
      }

      .cls-2 {
        fill: none;
      }
    </style>
  </defs>
  <g id="Camada_1-2" data-name="Camada 1">
    <g id="TheCoinRepublic">
      <rect class="cls-2" x="0" y="0" width="192" height="48"/>
      <g id="TheCoinRepublic-2" data-name="TheCoinRepublic">
        <path class="cls-1" d="M36.32,44.89l-12.4-16.06v-.15c1.58-.05,3.3-.17,4.75-.85,4.18-1.97,4.4-8.34.41-10.64-1.57-.91-2.94-.89-4.69-.96-7.54-.32-15.22.1-22.78-.06l-.22-.1C4.17,8.29,10.94,2.43,18.98.62c17.92-4.03,34.36,12.17,29.04,30.14-1.58,5.34-6.1,11.53-11.19,13.98-.13.06-.38.23-.51.15ZM42.93,19.6c-.15-.91-.51-1.87-.88-2.72-3.83-8.87-13.74-13.48-23.05-10.72-4.39,1.3-8.16,4.23-10.65,8.04l.09.16h2.99c1.07-1.25,2.19-2.38,3.54-3.33,7.69-5.42,18.23-3.33,23.36,4.47.85,1.29,1.43,2.69,1.98,4.12h2.63ZM40.17,29.92c-.12,0-.63,1.37-.73,1.6-1.32,2.78-3.39,5.07-5.91,6.81l.03.15c.43.53.77,1.22,1.17,1.75.06.08.15.2.25.2.12,0,1.03-.69,1.19-.82,2.85-2.21,5.21-5.39,6.37-8.82.05-.16.24-.61.25-.73,0-.06-.05-.15-.09-.15h-2.53Z"/>
        <path class="cls-1" d="M19.24,26.41l14.96,19.4.03.15c-.05.16-1.94.79-2.23.89C14.93,52.19-2.56,38.17.31,20.24c.04-.25.28-1.62.39-1.72.07-.07.24-.07.34-.08h24.02c1.76.07,3.5.69,4.17,2.45.96,2.53-.47,4.91-3.09,5.38-2.18.39-4.67.01-6.89.15ZM8.4,20.44h-2.5c-.17,0-.25.79-.28.95-2.14,12.77,8.81,23.71,21.56,22.01.32-.04,2.1-.34,2.22-.51l-1.4-2.17c-.19-.11-1.75.2-2.11.23-10.56.82-18.96-8.04-17.8-18.51.06-.56.32-1.3.35-1.78,0-.07-.02-.13-.03-.2Z"/>
        <path class="cls-1" d="M102.24,33.16h6.91c.2,0,.85.21,1.07.29,2.47.96,2.62,4.02.39,5.32,3.3,1.69,2.59,5.68-1.14,6.19-2.22.3-4.75-.08-7,.08l-.22-.1v-11.78ZM105.22,37.83h2.89s.4-.16.46-.19c.8-.45.75-1.49-.1-1.85-.08-.03-.5-.16-.55-.16h-2.69v2.21ZM105.22,42.5h3.28s.51-.16.57-.2c.88-.51.75-1.69-.2-2.05-.08-.03-.46-.14-.5-.14h-3.15v2.4Z"/>
        <polygon class="cls-1" points="93.93 25.05 93.93 18.14 94.03 18.04 96.85 18.04 96.85 29.85 93.87 29.85 88.74 22.91 88.74 29.85 85.82 29.85 85.82 18.14 85.92 18.04 88.71 18.04 93.93 25.05"/>
        <path class="cls-1" d="M60.87,33.16c3.13.32,4.9,3.72,3.07,6.38-.49.71-.95.91-1.66,1.33-.05.03-.1-.01-.08.11l2.76,3.93-.07.13h-3.18l-2.73-3.76h-1.4v3.67l-.1.1h-2.82v-11.87h6.2ZM57.59,38.61h2.56c.06,0,.46-.13.55-.16,1.28-.5,1.19-2.09-.09-2.5-.08-.03-.47-.13-.52-.13h-2.5v2.79Z"/>
        <path class="cls-1" d="M78.63,23.97c0,3.43-2.78,6.22-6.22,6.22s-6.22-2.78-6.22-6.22,2.78-6.22,6.22-6.22,6.22,2.78,6.22,6.22ZM75.82,23.97c0-1.89-1.53-3.42-3.42-3.42s-3.42,1.53-3.42,3.42,1.53,3.42,3.42,3.42,3.42-1.53,3.42-3.42Z"/>
        <polygon class="cls-1" points="88.03 5.59 81.67 5.59 81.67 7.47 87.44 7.47 87.44 10.06 81.67 10.06 81.67 12.2 88.03 12.2 88.03 14.8 78.68 14.8 78.68 3.02 78.78 2.93 87.93 2.93 88.03 3.02 88.03 5.59"/>
        <polygon class="cls-1" points="75.83 33.16 75.83 35.76 69.56 35.76 69.47 35.85 69.47 37.64 75.24 37.64 75.24 40.3 69.47 40.3 69.47 42.37 75.83 42.37 75.83 45.03 66.55 45.03 66.55 33.16 75.83 33.16"/>
        <polygon class="cls-1" points="68.69 2.99 68.69 7.47 73.46 7.47 73.56 7.37 73.56 2.99 76.48 2.99 76.48 14.8 73.56 14.8 73.56 10.16 73.46 10.06 68.69 10.06 68.69 14.8 65.7 14.8 65.7 2.99 68.69 2.99"/>
        <path class="cls-1" d="M92.05,33.16v7.17c0,.14.29.83.38.99.97,1.69,3.49,1.61,4.37-.13.07-.14.31-.75.31-.86v-7.17h2.99c-.1,2.23.13,4.56,0,6.78-.21,3.78-3.29,5.92-6.95,5.13-2.06-.45-4.09-2.49-4.09-4.67v-7.23h2.99Z"/>
        <path class="cls-1" d="M80.63,41.27v3.67l-.1.1h-2.79l-.1-.1v-11.78h6.26c2,0,3.8,2.11,3.8,4.06s-1.8,4.06-3.8,4.06h-3.28ZM80.63,38.61h2.5c.09,0,.5-.12.62-.16,1.21-.46,1.21-2,0-2.46-.11-.04-.52-.16-.62-.16h-2.5v2.79Z"/>
        <path class="cls-1" d="M134.87,32.98c2.1-.21,4.08.43,5.53,1.96l-2.12,1.9c-.33-.21-.53-.52-.87-.74-1.76-1.12-4.04-.25-4.78,1.63-1.42,3.6,3.11,6.56,5.66,3.52l2.11,1.85c-2.84,3.29-8.27,2.55-10.33-1.22-2.06-3.79.62-8.49,4.8-8.91Z"/>
        <path class="cls-1" d="M60.05,17.87c1.87-.15,3.87.58,5.13,1.97l-2.04,1.9c-1.58-1.92-4.54-1.55-5.61.69-1.7,3.58,2.92,6.9,5.6,3.8l2.11,1.84c-.9.92-2.1,1.63-3.37,1.88-4.69.92-9.03-3.43-7.25-8.1.84-2.21,3.07-3.8,5.42-3.99Z"/>
        <polygon class="cls-1" points="64.15 2.93 64.15 5.59 60.58 5.59 60.58 14.8 57.59 14.8 57.59 5.59 54.02 5.59 54.02 2.93 64.15 2.93"/>
        <polygon class="cls-1" points="117.29 33.16 117.29 42.37 123 42.37 123 44.94 122.91 45.03 114.37 45.03 114.37 33.16 117.29 33.16"/>
        <rect class="cls-1" x="124.56" y="33.16" width="2.99" height="11.87"/>
        <rect class="cls-1" x="80.56" y="18.04" width="2.92" height="11.81"/>
      </g>
    </g>
  </g>
</svg>