<?xml version="1.0" encoding="UTF-8"?>
<svg id="Camada_2" data-name="Camada 2" xmlns="http://www.w3.org/2000/svg" viewBox="0 0 192 48.15">
  <defs>
    <style>
      .cls-1 {
        fill: #fff;
      }

      .cls-2 {
        fill: none;
      }
    </style>
  </defs>
  <g id="Camada_1-2" data-name="Camada 1">
    <g id="CoinGape">
      <rect class="cls-2" y=".07" width="192" height="48"/>
      <g id="CoinGape-2" data-name="CoinGape">
        <path class="cls-1" d="M48.15,24.07c0,13.3-10.78,24.07-24.07,24.07S0,37.37,0,24.07,10.78,0,24.07,0s24.07,10.78,24.07,24.07ZM46.42,24.1c0-12.32-9.99-22.32-22.32-22.32S1.79,11.78,1.79,24.1s9.99,22.32,22.32,22.32,22.32-9.99,22.32-22.32Z"/>
        <path class="cls-1" d="M133.52,30.25c-.28.09-.26.33-.4.51-3.31,3.9-10.61,4.21-14.64,1.31-2.05-1.47-3.53-4.06-3.83-6.57-.15-1.28-.22-2.54,0-3.99,1.34-8.65,10.83-11.74,17.55-6.63l.87.82-2.6,2.62c-1.74-1.52-4.11-2.34-6.44-1.94-1.69.29-3.06,1.12-4.1,2.47-1.76,2.29-2.04,6.22-.41,8.7,2.12,3.23,7.42,3.64,10.26,1.15v-3.42s-.24-.03-.23-.18l-.27.19c-1.39-.14-3.04.16-4.39,0-.13-.02-.23-.01-.31-.14v-3.51h8.94v8.62Z"/>
        <path class="cls-1" d="M153.87,19.17h3.56s.18,1.55.18,1.55c.36.03.46-.34.65-.49,2.3-1.84,5.51-1.8,8.01-.28.47.28,1.67,1.27,1.91,1.74.08.16.09.44.12.48s.18-.02.26.07c.1.11.42.84.49,1.04,1.2,3.07.56,7.12-2.1,9.21-2.54,1.99-6.83,2.07-9.21-.09l-.06,6.73c-.41.23-.8,0-1.22,0s-.97,0-1.37,0c-.37,0-.82.18-1.23.09v-20.07ZM164.05,22.94c-1.16-.63-3.46-.62-4.55.16-.19.14-.33.48-.59.63-.16.09-.29,0-.3,0-.02.04.07.18.04.28-.06.25-.33.49-.43.75-.59,1.5-.23,3.79,1.12,4.76,1.57,1.13,3.37,1.15,4.94.08.03-.02.12.06.14.04.18-.15.8-.97.93-1.21.09-.16.16-.32.18-.5l.18.09c-.04-.69.14-1.32.1-2.06-.06-1.06-.82-2.51-1.77-3.02Z"/>
        <path class="cls-1" d="M72.47,15.37c.15.14.29.46.57.56l-2.7,2.59-1.06-.73c-2.69-1.78-6.79-1.48-9.06.91-.08.08-.63.72-.65.76-.09.15-.44,1.03-.52,1.26-.96,2.67-.6,5.81,1.41,7.89.17.17.57.37.71.53.04.05,0,.2.04.23.04.03.69.08.91.25v.23c.81,0,1.72.39,2.59.46,2.06.16,4.38-.62,5.84-2.1l2.63,2.73c.12.02.06.12.02.19-.07.1-1.07.92-1.24,1.04-5.03,3.61-14,2.35-16.38-3.87-.17-.44-.46-.58-.21-1.18l-.27.18c-.64-2.37-.8-4.93-.04-7.29.69-2.18,2.25-4.45,4.22-5.65.43-.27,1.09-.7,1.57-.55l-.18-.18c1.31-.44,2.66-.84,4.06-.91,2.69-.13,5.75.9,7.77,2.67Z"/>
        <path class="cls-1" d="M147.66,33.67l-.18-1.64c-1.1,1.08-2.38,1.89-3.97,2.01-6.06.46-9.32-4.64-7.79-10.26,1.23-4.52,7.68-6.84,11.14-3.61.26.24.54,1.05.62.14.04-.41-.07-.83.09-1.23.06,0,.11.09.14.09h3.37l.05,14.5h-3.47ZM146.26,29.44c2.13-2.36,1.03-6.85-2.38-7.17-.54-.05-1.46-.03-1.98.11s-1.04.7-1.53.62c.18.37-.33.59-.51.86-1.18,1.74-.86,4.58.79,5.93,1.56,1.28,4.23,1.18,5.61-.35Z"/>
        <path class="cls-1" d="M175.39,27.84c-.05.85.65,1.65,1.34,2.08,1.26.8,3.01.78,4.43.44.61-.14,1.14-.42,1.7-.76.19-.11.32-.34.56-.4.57.92,1.6,1.58,2.26,2.42-.64.73-1.5,1.31-2.4,1.69-.06.03-.51.2-.59.22-3.84,1.27-8.28.47-10.28-3.23-2.61-4.82-.14-10.73,5.49-11.49,3-.41,6.08.56,7.7,3.23l-.18.14.28.05c.09.57.45,1.03.58,1.59.32,1.28.33,2.71.23,4.02h-11.13ZM175.62,24.64c2.34-.03,4.68,0,7.02,0,.03,0,.17.24.14-.05-.23-1.86-2.01-2.58-3.7-2.51-.65.03-1.26.35-1.87.19.17.34-.45.34-.59.64l-.14-.18c0,.38-.37.54-.57.84-.1.16-.45.74-.49.89-.03.12-.07.14.05.23.07.08.11-.05.14-.05Z"/>
        <path class="cls-1" d="M89.12,26.44c0,4.21-3.41,7.63-7.63,7.63s-7.63-3.41-7.63-7.63,3.41-7.63,7.63-7.63,7.63,3.41,7.63,7.63ZM84.12,29.42c2.64-2.71.53-7.81-3.45-7.05-2.35.45-3.46,3.22-2.86,5.4.16.58.65,1.11.71,1.71.3-.15.48.25.79.44,1.55.95,3.54.8,4.8-.5Z"/>
        <path class="cls-1" d="M101.1,19.17c.37.11.11,1.43.46,1.73,1.86-1.99,5.01-2.49,7.42-1.22,2.03,1.07,3.03,3.42,3.2,5.65v8.44s-3.74,0-3.74,0v-8.8c0-.06-.41-1.07-.47-1.17-1.09-1.81-3.58-1.83-5.16-.67-.74.97-1.13,1.84-1.21,3.11-.14,2.21,0,4.7,0,6.94,0,.13.03.25.08.36l-.07.09c-.1,0-.23.04-.32.04h-3.42v-14.5h3.24Z"/>
        <rect class="cls-1" x="91.2" y="19.08" width="3.83" height="14.5"/>
        <circle class="cls-1" cx="93.12" cy="15.27" r="2.22"/>
        <path class="cls-1" d="M45.05,24.1c0,11.57-9.38,20.95-20.95,20.95S3.15,35.68,3.15,24.1,12.53,3.15,24.1,3.15s20.95,9.38,20.95,20.95ZM23.06,6.13h-2.37v5.29c-.66.21-1.31.46-1.93.76-.33.16-.8.56-1.08.66-.12.04-.25-.05-.26-.04-.02.02,0,.2-.1.31-.13.15-.69.44-.91.64-.31.28-.85.97-1.14,1.15-.13.08-.19,0-.32,0,.16.44-.41.82-.63,1.16-4.37,6.75-2.9,17.36,5.25,20.17.18.06,1.13.27,1.13.37v5.02h2.14s.13.13.23.09v-4.93l1.22.09s.15.3.15.32v4.52h2.37v-4.97c.82-.35,1.78-.43,2.64-.73.13-.04,1.2-.53,1.24-.59l.04-2.92c-.36-.13-.34.14-.46.21-1.98,1.18-5.51,1.67-7.77,1.31-3.05-.48-5.45-2.53-6.59-5.27-1.24-2.99-1.08-8.17.79-10.88.28-.41.48-.39.62-.53.03-.03-.07-.18-.04-.27.01-.03.31-.37.37-.44.5-.56,1.27-1.13,1.81-1.56,2.19-1.75,6.77-1.72,9.35-.77.6.22,1.13.62,1.74.82l.18-.09v-3.01s.13-.1.09-.14l-1.89-.62-2.12-.3v-4.83h-2.37v4.74l-1.37.09v-4.83ZM30.45,30.8v-7.8h-6.66v2.83h3.01v2.87c-1.29.96-4.82.16-5.42-1.33-.06-.15-.03-.4-.06-.44-.03-.03-.17.04-.26-.07-.25-.32-.55-2.18-.55-2.62,0-4.29,3.45-5.78,7.28-4.82.52.13,1.02.4,1.46.54.23.07.3.24.57.12,0-.06-.09-.11-.09-.14v-2.92s-.09-.19-.12-.21c-2.52-.78-5.38-.99-7.87-.02-3.95,1.53-5.55,5.68-4.76,9.69.56,2.84,2.67,4.83,5.5,5.45,2.46.54,5.81.18,7.97-1.13Z"/>
      </g>
    </g>
  </g>
</svg>