<svg preserveAspectRatio="none" width="100%" height="100%" overflow="visible" style="display: block;" viewBox="0 0 120.228 40" fill="none" xmlns="http://www.w3.org/2000/svg">
<g id="Decrypt">
<path id="Vector" fill-rule="evenodd" clip-rule="evenodd" d="M16.5961 0.0906528C12.9645 0.536993 8.96771 2.40351 5.55929 5.28443C4.8695 5.8525 3.42903 7.25238 3.42903 7.33353C3.42903 7.37411 4.11883 8.10449 4.97093 8.95659L6.51284 10.5188L5.86362 11.2492C3.46961 13.9475 1.84655 16.6864 0.87272 19.5876C0.264074 21.4135 0.000326792 22.9149 0.000326792 24.5988C0.000326792 26.1204 0.203209 27.358 0.669838 28.555L0.85243 29.0419L5.3767 33.5662C9.1503 37.3398 10.0024 38.1513 10.469 38.4556C11.4429 39.1048 12.579 39.5512 13.8369 39.8149C14.6687 39.9975 16.5961 40.0584 17.509 39.9367C21.1203 39.4903 24.8534 37.7861 28.1198 35.0675C28.9719 34.3574 30.4123 32.9981 30.4123 32.9169C30.4123 32.8764 29.7022 32.146 28.8501 31.2736L27.288 29.6911L27.7749 29.1839C28.9719 27.9261 30.4326 25.9175 31.2847 24.335C32.502 22.1236 33.2933 19.7296 33.557 17.5385C33.6584 16.585 33.5976 14.5561 33.4353 13.7852C33.1512 12.4867 32.7049 11.4318 32.0354 10.4173C31.6905 9.88985 31.0007 9.17976 27.1865 5.34529L22.7231 0.881891L22.2565 0.699299C21.6275 0.435552 20.3291 0.131227 19.5379 0.050074C18.7466 -0.0310788 17.509 -0.0107881 16.5961 0.0906528ZM20.4305 1.28766C20.7551 1.36881 21.2826 1.49054 21.5667 1.59198C22.0942 1.77457 22.1145 1.77457 22.9463 2.60639C23.6766 3.33676 23.7781 3.4382 23.5955 3.41792C22.6217 3.23532 21.0595 3.19475 19.8422 3.35705C15.9468 3.84397 11.9298 5.81192 8.23734 9.05803C7.87215 9.38264 7.54754 9.66668 7.48667 9.70726C7.42581 9.74783 7.1012 9.48409 6.14765 8.53054L4.88978 7.27267L5.70131 6.56259C9.08944 3.60051 12.8225 1.734 16.4743 1.2065C17.4482 1.06449 19.619 1.12535 20.4305 1.28766ZM25.746 7.7393C27.5314 8.00305 29.0936 8.774 30.25 9.93043C31.3862 11.0666 32.1165 12.5273 32.4614 14.3533C32.6035 15.1648 32.6035 16.9907 32.4614 17.9443C31.9948 20.8861 30.6355 23.909 28.5255 26.6682C28.0386 27.3174 26.8822 28.6767 26.6996 28.8187C26.5981 28.8999 26.4764 28.7984 25.4214 27.7435C24.7722 27.0942 24.2447 26.5465 24.2447 26.5262C24.2447 26.5059 24.4273 26.2827 24.6505 26.0393C28.3226 21.9816 30.0471 16.9096 28.8298 13.7649C28.3429 12.5476 27.3285 11.6346 26.0098 11.2289C25.3403 11.026 24.1636 10.9245 23.2912 11.026C21.9522 11.1477 20.3088 11.6752 18.7263 12.4462C17.1439 13.2171 15.7034 14.1909 14.3035 15.4488L13.6746 15.9966L12.4776 14.7996L11.2806 13.6026L11.7878 13.136C14.8919 10.2347 19.0104 8.16535 22.5405 7.69873C23.2506 7.63786 25.0765 7.63786 25.746 7.7393ZM8.96771 14.7387C8.52137 15.2459 7.9533 15.956 7.66927 16.3212C4.30142 20.8049 2.75952 25.6741 3.38845 29.8737L3.42903 30.1375L2.59722 29.3259C1.80598 28.555 1.7654 28.4941 1.6031 28.0072C0.0206168 23.4626 2.00886 17.1936 6.69543 11.939L7.24321 11.3303L8.50108 12.5882L9.75895 13.846L8.96771 14.7387ZM24.8128 12.1418L24.9751 12.1824L24.9345 13.0345C24.8939 14.0489 24.7519 14.8807 24.549 15.5908C23.8998 17.7211 22.7028 19.8514 20.958 21.8599L20.2885 22.6308L19.0104 21.3527L17.7322 20.0745L18.3206 19.4253C19.5784 18.0457 20.7349 16.4429 21.4449 15.0836C21.8304 14.3533 22.3376 13.1157 22.4796 12.5476C22.5608 12.2027 22.5608 12.2027 22.8651 12.1621C23.0274 12.1418 23.21 12.1215 23.2709 12.1013C23.4332 12.1013 24.6708 12.1013 24.8128 12.1418ZM21.1812 13.0345C20.8972 13.8258 20.2682 15.043 19.6596 15.956C18.9901 16.9704 18.5234 17.5791 17.5902 18.6341L16.941 19.3847L15.6628 18.1066L14.3847 16.8284L14.8107 16.4429C16.1294 15.2662 17.6713 14.2112 19.0915 13.4809C19.8625 13.0954 21.1203 12.5882 21.3029 12.5679C21.3232 12.5679 21.2826 12.7708 21.1812 13.0345ZM40.6173 13.8055C40.5564 13.8663 40.5361 15.5503 40.5361 21.7179C40.5361 29.2245 40.5361 29.5491 40.6579 29.6506C40.7593 29.752 41.0839 29.752 43.8228 29.752C45.4865 29.752 47.2921 29.7114 47.8196 29.6911C49.9499 29.5491 51.5932 28.8593 52.8511 27.6014C53.8452 26.6073 54.4741 25.2277 54.7987 23.4018C54.9408 22.5091 54.9408 20.6426 54.7987 19.7702C54.2712 16.8284 52.5873 14.9213 49.889 14.1504C48.5703 13.7852 48.4688 13.7649 44.4518 13.7446C41.4694 13.7446 40.6782 13.7446 40.6173 13.8055ZM114.487 14.0692C114.426 14.1301 114.405 14.6373 114.405 15.9357V17.7211H113.635C113.127 17.7211 112.843 17.7414 112.782 17.8022C112.681 17.9037 112.681 20.0137 112.782 20.1354C112.843 20.1963 113.127 20.2165 113.635 20.2165H114.405L114.426 23.8278C114.446 27.358 114.446 27.4594 114.588 27.8652C114.974 28.981 115.765 29.5897 117.043 29.752C117.915 29.8534 119.153 29.8129 120.005 29.6506L120.188 29.61L120.167 28.1289L120.147 26.6479L119.335 26.6073C118.463 26.5667 118.321 26.5262 118.22 26.3436C118.179 26.2624 118.159 25.0451 118.159 23.2395V20.2571L119.193 20.2368L120.228 20.2165V18.979V17.7414L119.193 17.7211L118.159 17.7008V15.956C118.159 14.8807 118.138 14.1707 118.098 14.0895C118.037 13.9678 117.936 13.9678 116.313 13.9678C115.034 14.0084 114.547 14.0286 114.487 14.0692ZM48.0834 17.4979C49.3209 17.8225 50.1325 18.6949 50.4571 19.9731C50.7005 20.9469 50.7005 22.57 50.4368 23.5844C50.173 24.5785 49.5644 25.3697 48.7529 25.7552C48.0428 26.1001 47.6167 26.161 46.156 26.2016L44.8372 26.2421V21.7787V17.3153L46.2574 17.3559C47.2921 17.3762 47.7993 17.4168 48.0834 17.4979ZM60.4794 17.5791C58.4506 17.9443 56.8884 19.2833 56.1986 21.2309C55.2857 23.7873 55.732 26.7088 57.2739 28.3521C58.0854 29.2042 58.8564 29.6506 60.0331 29.9549C62.2851 30.5229 64.6994 29.9346 66.3021 28.4333C66.6876 28.0884 67.6817 26.8305 67.6817 26.7088C67.6817 26.5667 67.3977 26.3842 66.2413 25.7958C65.5312 25.4306 64.9428 25.1263 64.9225 25.1263C64.9023 25.1263 64.7805 25.3089 64.6588 25.5321C64.3748 26.0798 63.7864 26.6885 63.3604 26.9116C62.0822 27.5406 60.5809 27.1754 59.9317 26.0798C59.7491 25.7552 59.5665 25.1872 59.5665 24.8828V24.6597H63.6241C66.6876 24.6597 67.6817 24.6394 67.7426 24.5785C67.844 24.4771 67.844 23.6655 67.7223 22.854C67.3977 20.6832 66.4847 19.121 65.024 18.2486C64.5371 17.9646 63.6038 17.6399 62.9952 17.5385C62.3865 17.4371 61.0881 17.4573 60.4794 17.5791ZM73.8088 17.4979C73.2407 17.5791 72.7741 17.6805 72.4089 17.8022C70.3598 18.4515 69.0005 20.1354 68.5744 22.5294C68.4121 23.4424 68.473 24.9031 68.6961 25.7755C69.0005 26.9522 69.4468 27.7232 70.2583 28.4941C70.9684 29.1636 71.8002 29.6303 72.9161 29.9346C73.2407 30.036 73.5653 30.0563 74.3971 30.0563C75.3507 30.0563 75.4927 30.036 76.0202 29.8737C77.0752 29.5491 77.8867 29.0622 78.6171 28.2912C79.104 27.784 79.6518 27.0334 79.6518 26.8711C79.6518 26.8102 79.5503 26.7088 79.4489 26.6276C79.0228 26.3639 77.0549 25.39 76.9534 25.39C76.8926 25.39 76.7911 25.5321 76.6897 25.7349C76.4462 26.2624 76.1216 26.6073 75.6144 26.8508C75.229 27.0334 75.1072 27.074 74.6812 27.0537C74.1131 27.0537 73.7479 26.9116 73.2813 26.5059C72.064 25.4306 71.9828 22.4482 73.1393 21.0889C73.8696 20.2368 75.2289 20.2368 76.1013 21.0686C76.2434 21.2107 76.4462 21.4744 76.5477 21.657C76.6491 21.8396 76.7709 22.0019 76.8317 22.0019C76.9737 22.0425 79.4692 20.602 79.5098 20.46C79.53 20.3383 79.2663 19.9325 78.8808 19.4456C78.2519 18.6746 77.0143 17.924 75.939 17.6805C75.3913 17.5385 74.2145 17.4573 73.8088 17.4979ZM106.351 17.6399C105.682 17.7617 105.073 18.0051 104.586 18.3703L104.2 18.6544L104.18 18.2486L104.16 17.8428L102.598 17.8225C101.218 17.8022 101.015 17.8225 100.914 17.924C100.792 18.0254 100.792 18.3297 100.792 25.8364C100.792 31.8214 100.812 33.6473 100.873 33.7082C100.995 33.8299 104.403 33.8299 104.505 33.7082C104.566 33.6473 104.586 33.0387 104.586 31.3953V29.1636L105.215 29.4883C106.067 29.9143 106.594 30.0157 107.589 29.9752C108.745 29.9143 109.435 29.6911 110.186 29.1231C111.24 28.3318 111.93 27.1145 112.316 25.4306C112.519 24.5379 112.519 22.9757 112.316 22.0222C112.052 20.7643 111.626 19.9122 110.855 19.1007C109.719 17.8428 108.055 17.3356 106.351 17.6399ZM14.8513 18.8369C15.9468 19.9325 16.0077 20.0137 15.9266 20.1354C15.8657 20.1963 15.602 20.5006 15.3179 20.8252C14.1818 22.1236 13.1268 23.7061 12.4167 25.1669C11.9095 26.2016 11.6052 27.0537 11.3009 28.2101C10.9154 29.7317 10.9154 31.4156 11.3414 32.5923C12.1327 34.824 14.2224 35.879 17.1439 35.5341C19.9639 35.1892 23.21 33.5662 25.9895 31.1113L26.5779 30.5838L27.7749 31.7808L28.9719 32.9778L28.4647 33.4444C25.8678 35.8587 22.3985 37.8267 19.3958 38.5571C18.1785 38.8614 17.3264 38.9628 16.17 38.9628C14.6281 38.9628 13.492 38.76 12.295 38.2325C10.7531 37.5629 9.3329 36.2442 8.60252 34.7835C7.68955 32.9778 7.42581 30.7461 7.83157 28.3318C8.39964 24.964 10.2864 21.3527 13.0659 18.2486C13.35 17.924 13.6137 17.6602 13.634 17.6602C13.6543 17.6602 14.2021 18.1877 14.8513 18.8369ZM87.0367 17.7414C86.2454 17.8631 85.2513 18.2283 84.6021 18.6544L84.3992 18.7964V18.3703C84.3992 18.1269 84.3586 17.924 84.3181 17.8631C84.2572 17.8022 83.7906 17.782 82.5936 17.782C81.0922 17.782 80.9299 17.782 80.8488 17.9037C80.7473 18.0051 80.7473 18.5123 80.7473 23.7873C80.7473 29.2854 80.7473 29.5491 80.8691 29.6506C80.9705 29.752 81.1937 29.752 82.6544 29.752C83.9529 29.752 84.3384 29.7317 84.3992 29.6708C84.4398 29.61 84.4804 28.413 84.4804 25.9581C84.5007 22.5497 84.5007 22.3062 84.6224 22.0831C84.8658 21.5961 85.2919 21.3933 86.5295 21.1904C86.9961 21.1092 87.4627 21.0281 87.5642 21.0078L87.7468 20.9672V19.3847C87.7468 17.8022 87.7265 17.6197 87.5236 17.6602C87.4424 17.6805 87.2396 17.7008 87.0367 17.7414ZM88.7003 17.8834C88.6597 17.9443 88.6394 18.0457 88.6597 18.1471C88.68 18.2283 89.2278 20.0137 89.877 22.0831C92.4739 30.4418 92.3319 29.9549 92.1493 30.2795C91.987 30.6041 91.703 30.665 90.6886 30.665C90.0596 30.665 89.735 30.6852 89.6944 30.7461C89.6336 30.807 89.6133 31.2127 89.6133 32.2069C89.6133 33.201 89.6336 33.6068 89.6944 33.6676C89.7959 33.7691 92.3725 33.7691 93.042 33.6879C94.1578 33.5256 95.0708 32.7344 95.5983 31.4765C95.72 31.2127 96.7547 28.0681 97.9111 24.4973C99.6762 19.1007 100.021 17.9848 99.94 17.9037C99.8791 17.8225 99.5748 17.8022 97.972 17.8022H96.0852L96.0243 18.0863C95.9838 18.2486 95.5983 19.9325 95.152 21.8599C94.7056 23.7873 94.3404 25.39 94.2999 25.4103C94.2796 25.4306 93.8535 23.7264 93.3869 21.6367L92.5145 17.8022H90.6277C89.0655 17.8022 88.7612 17.8022 88.7003 17.8834ZM62.7923 20.4194C63.4009 20.7035 63.8067 21.2512 63.9284 21.9208L63.969 22.1642H61.7982H59.6273L59.6679 21.9613C59.7491 21.5961 60.094 21.0078 60.378 20.7643C60.8649 20.3383 61.291 20.1963 61.9605 20.2368C62.2851 20.2571 62.5285 20.318 62.7923 20.4194ZM107.568 20.5209C108.136 20.8252 108.562 21.4541 108.765 22.3062C108.907 22.9352 108.907 24.4365 108.745 25.0654C108.603 25.6132 108.319 26.1813 108.015 26.5667C107.528 27.1551 106.574 27.3174 105.803 26.9319C104.911 26.4856 104.485 25.4915 104.485 23.8278C104.485 22.2859 104.89 21.1904 105.641 20.6426C106.229 20.2368 106.939 20.1962 107.568 20.5209ZM18.8278 23.8076C17.1641 25.3697 15.0339 26.7696 13.2688 27.4797C12.9036 27.6217 12.579 27.7435 12.5587 27.7435C12.5384 27.7435 12.6196 27.5203 12.721 27.2363C13.492 25.106 14.831 22.9352 16.4338 21.2107L16.8192 20.8049L18.0974 22.0628L19.3756 23.3206L18.8278 23.8076ZM21.3841 25.39L22.6217 26.6276L22.2362 26.9928C20.2074 28.8999 17.083 30.6244 14.8716 31.091C14.3238 31.2127 13.1065 31.3345 12.5181 31.3345H12.1327V30.4012C12.1327 29.894 12.153 29.3462 12.1732 29.2245L12.2138 28.981L13.0051 28.7173C15.0136 28.0681 17.5699 26.4653 19.4567 24.6799C19.761 24.3959 20.0451 24.1524 20.0856 24.1524C20.1262 24.1524 20.7146 24.7002 21.3841 25.39Z" fill="var(--fill-0, white)"/>
</g>
</svg>
