<?xml version="1.0" encoding="UTF-8"?>
<svg id="Camada_2" data-name="Camada 2" xmlns="http://www.w3.org/2000/svg" xmlns:xlink="http://www.w3.org/1999/xlink" viewBox="0 0 192 48">
  <defs>
    <style>
      .cls-1 {
        fill: #fff;
      }

      .cls-2 {
        fill: none;
      }

      .cls-3 {
        clip-path: url(#clippath);
      }
    </style>
    <clipPath id="clippath">
      <rect class="cls-2" y="4.18" width="192" height="39.63"/>
    </clipPath>
  </defs>
  <g id="Camada_1-2" data-name="Camada 1">
    <g id="DLNews">
      <rect class="cls-2" width="192" height="48"/>
      <g id="DLNews-2" data-name="DLNews">
        <g class="cls-3">
          <g>
            <path class="cls-1" d="M30.19,20.24c.87-.11,1.41-.6,1.87-1.28.99-1.49,2.07-2.92,3.03-4.42.66-1.04,1.18-2.16,1.74-3.26.33-.64.2-1.29-.28-1.67-.51-.4-1.36-.44-1.84,0-1.19,1.1-2.6,1.87-3.99,2.66-.86.49-1.67,1.06-2.3,1.86-.61-1.1-1.52-1.74-2.75-1.92-.14-.02-.28-.03-.42-.02-.69.08-1.2-.17-1.61-.73-1.21-1.69-3.46-1.91-4.98-.5-.18.18-.35.38-.5.59-.37.49-.82.7-1.46.66-1.23-.09-2.19.45-2.91,1.43-.06.08-.1.16-.15.24-.05.08-.1.16-.17.27-1.25-1.6-3.09-2.33-4.7-3.39-.69-.47-1.36-.97-2-1.5-.57-.47-1.2-.4-1.59.22-.17.26-.27.56-.29.87-.02.31.04.62.18.9.88,1.99,2.05,3.8,3.33,5.55.56.77,1.12,1.54,1.67,2.32.41.58.97.9,1.68,1.04-.16.32-.34.61-.46.93-.28.72-.54,1.44-.78,2.18-.16.48-.4.86-.84,1.12-.76.45-1.34,1.14-1.66,1.96-.78,1.84-.75,3.66.21,5.43.26.47.67.87,1.06,1.25.34.32.54.66.54,1.13,0,1.8,0,3.59,0,5.39,0,.86-.25,1.71-.75,2.42-.49.71-1.2,1.25-2.02,1.55-.81.31-1.7.37-2.54.17-.84-.2-1.61-.66-2.18-1.3-1.52-1.7-2.3-3.67-2.3-5.96.02-7.75.02-15.49,0-23.24C0,8.8,2.97,5.2,7.31,4.35c.56-.1,1.12-.16,1.69-.15,7.97,0,15.94,0,23.91,0,2.17,0,4.27.77,5.92,2.18,1.64,1.41,2.71,3.37,3.02,5.51.05.39.08.79.08,1.19,0,7.94,0,15.87,0,23.81,0,1.63-.25,3.21-1.14,4.62-1.31,2.09-4.11,2.91-6.2,1.79-1.22-.65-1.81-1.76-2.07-3.05-.35-1.7-.33-3.43-.36-5.15-.01-.47-.01-.94,0-1.41,0-.06.01-.12.04-.17.02-.05.06-.1.1-.14,1.24-.78,1.86-1.94,2.08-3.33.25-1.6.04-3.14-.95-4.49-.32-.41-.7-.76-1.14-1.04-.45-.32-.75-.67-.86-1.22-.18-.92-.52-1.81-1.01-2.62-.07-.13-.14-.26-.23-.42Z"/>
            <path class="cls-1" d="M113.76,29.84c-.05-.64-.12-1.27-.14-1.9-.04-1.8-.07-3.59-.08-5.39-.02-3.32-.02-6.64-.02-9.97,0-.93.37-1.3,1.31-1.3h2.73c.87,0,1.27.4,1.27,1.28v22.93c-.03.73-.46,1.14-1.2,1.14-1.29,0-2.58-.02-3.87,0-.93.02-1.62-.35-2.06-1.16-.47-.87-.94-1.74-1.4-2.61-1.99-3.74-4.01-7.47-5.96-11.24-.59-1.14-1.03-2.36-1.51-3.56-.1-.25-.2-.38-.51-.26.05.63.11,1.27.15,1.9.04.64.08,1.31.08,1.97,0,4.53,0,9.06,0,13.59,0,.99-.37,1.35-1.37,1.35h-2.77c-.78,0-1.2-.43-1.2-1.2V13.27c0-1.31.65-1.97,1.98-1.99,1.08-.01,2.15,0,3.23,0,.69,0,1.27.24,1.63.83.52.85,1.01,1.73,1.47,2.6,1.91,3.58,3.83,7.17,5.71,10.77.7,1.33,1.3,2.71,1.93,4.07.13.27.26.39.6.29Z"/>
            <path class="cls-1" d="M158.18,21.72h-.49c-.14.94-.25,1.87-.42,2.79-.48,2.55-.99,5.11-1.48,7.66-.18.93-.36,1.86-.54,2.8-.18.98-.92,1.63-1.92,1.64-1.39.02-2.79.01-4.19,0-.96,0-1.59-.53-1.84-1.44-1.36-5.04-2.72-10.07-4.09-15.1-.27-.99.18-1.58,1.21-1.59h2.87c.67,0,1.07.32,1.2.96.82,3.86,1.64,7.73,2.45,11.6.13.62.19,1.25.26,1.88.02.18.05.3.29.3s.26-.11.29-.3c.6-3.2,1.2-6.41,1.8-9.61.19-1.03.41-2.05.6-3.07.23-1.21.89-1.76,2.12-1.76h3.3c1.06,0,1.78.58,1.98,1.61.73,3.76,1.45,7.53,2.17,11.3.1.51.19,1.01.28,1.52.03.17.03.32.28.32.25,0,.27-.12.3-.3.12-.82.22-1.65.39-2.47.29-1.5.61-2.99.93-4.48.46-2.16.93-4.31,1.39-6.47.15-.72.52-1.03,1.25-1.03h2.94c.87,0,1.36.61,1.13,1.44-1.37,5.12-2.75,10.24-4.14,15.35-.22.81-.88,1.33-1.79,1.34-1.43.02-2.86.02-4.29,0-.96-.01-1.68-.64-1.86-1.58-.68-3.44-1.37-6.88-2.02-10.32-.18-.97-.25-1.97-.37-2.99Z"/>
            <path class="cls-1" d="M53.88,23.92v-11.45c0-.85.35-1.24,1.2-1.27,2.91-.1,5.81-.21,8.72-.24,1.46-.03,2.91.21,4.28.71,2.27.83,3.58,2.51,4.29,4.73.53,1.67.74,3.39.83,5.13.14,2.64.1,5.28-.34,7.9-.24,1.42-.62,2.79-1.38,4.04-1.11,1.82-2.81,2.75-4.85,3.17-1.8.37-3.62.36-5.44.3-2.04-.06-4.09-.15-6.13-.23-.78-.03-1.19-.45-1.19-1.23,0-3.85,0-7.7,0-11.55ZM57.56,23.92v8.7c0,.69.41,1.18,1.04,1.19,1.88.02,3.76.08,5.64-.01,1.87-.1,3.36-.91,4.15-2.7.18-.41.33-.83.45-1.26.48-1.83.56-3.71.57-5.59.01-2.09-.04-4.18-.57-6.22-.27-1.06-.71-2.04-1.55-2.8-.92-.83-2.06-1.16-3.26-1.2-1.69-.06-3.38.02-5.07-.02-.96-.02-1.42.54-1.41,1.43.02,2.83,0,5.66,0,8.49Z"/>
            <path class="cls-1" d="M132.96,29.16h-2.87c-.93,0-1.41.71-1.1,1.58.46,1.28,1.47,1.84,2.74,1.94,1.14.08,2.29.09,3.43.05,1.23-.04,2.46-.15,3.68-.24.63-.04,1.09.26,1.23.87.12.54.21,1.08.27,1.63.06.51-.24.9-.77,1.09-1.29.46-2.63.68-3.98.82-1.67.19-3.35.22-5.03.08-1.21-.11-2.38-.33-3.5-.82-1.94-.84-3.17-2.31-3.7-4.32-.8-2.95-.77-6.07.08-9.01.71-2.45,2.44-3.86,4.9-4.43,1.93-.44,3.89-.48,5.85-.32,1.19.09,2.37.3,3.48.78,1.87.8,2.92,2.24,3.15,4.22.1.84.1,1.69-.02,2.52-.29,1.9-1.39,2.98-3.32,3.35-.69.12-1.38.19-2.08.21-.82.03-1.63,0-2.45,0ZM131.82,26.13v-.05c.83,0,1.66.04,2.48-.01.72-.04,1.1-.39,1.24-1.09.08-.41.1-.84.07-1.26-.05-.93-.54-1.51-1.44-1.73-1.2-.29-2.46-.27-3.65.05-.35.08-.68.26-.94.5-.26.25-.46.56-.57.9-.13.41-.24.83-.31,1.26-.16.85.33,1.41,1.21,1.42.64,0,1.28,0,1.92,0h0Z"/>
            <path class="cls-1" d="M180.84,33.1c1.36-.04,2.72-.07,4.08-.12.28-.01.56-.06.84-.13.67-.17.95-.52.99-1.19.04-.64-.19-1.09-.82-1.28-1.18-.37-2.38-.67-3.58-.99-1.25-.33-2.52-.62-3.76-1-1.13-.35-2.18-.92-2.78-2-.29-.55-.5-1.13-.62-1.74-.19-.93-.2-1.9-.03-2.84.29-1.74,1.38-2.78,3.03-3.27,1.71-.51,3.47-.61,5.23-.53,2.19.1,4.38.3,6.58.46.12.01.23.03.35.06.66.12,1.01.6.94,1.26-.05.4-.09.79-.13,1.19-.08.69-.5,1.07-1.21,1.06-1.39-.01-2.79-.05-4.18-.05s-2.76.03-4.15.06c-.19.01-.38.05-.56.11-.4.11-.63.38-.7.79-.16.88.08,1.41.94,1.66,1.4.41,2.83.73,4.25,1.12,1.22.33,2.45.62,3.63,1.06,1.84.68,2.77,2.1,2.83,4.03.03.81-.02,1.62-.16,2.41-.33,1.87-1.57,2.89-3.37,3.33-1.8.44-3.63.47-5.46.44-2.12-.02-4.23-.17-6.33-.44-.93-.13-1.29-.53-1.19-1.45.04-.35.06-.7.11-1.05.09-.69.5-1.02,1.21-1.02h4.04v.05Z"/>
            <path class="cls-1" d="M23.96,23.56c1.35.82,2.67.83,3.98-.15.2.62.09,1.18-.22,1.72-.57.98-.88,2.09-.89,3.22,0,1.13.28,2.25.83,3.23.43.78.35,1.62-.24,2.28s-1.18,1.39-1.85,1.98c-2.37,2.08-5.43,2.36-8.2.85-1.24-.67-2.34-1.56-3.26-2.63-.28-.33-.45-.74-.49-1.17-.03-.43.07-.86.3-1.23,1.21-1.95,1.2-3.97.3-6.02-.06-.14-.13-.27-.2-.41-.36-.69-.35-1.37.1-2.07.53.59,1.27.97,2.06,1.05.81.09,1.54-.15,2.21-.59.26,1.55,1.72,2.21,3.16,2.13,1.25-.07,2.18-.87,2.42-2.19ZM20.85,31.57c.59-.01,1.1-.26,1.57-.61.75-.56,1.28-1.31,1.75-2.1.04-.09.06-.19.05-.29,0-.1-.04-.2-.09-.28-.1-.12-.39-.17-.56-.12-1.78.45-3.65.44-5.43-.02-.25-.06-.45-.02-.55.18-.08.16-.14.44-.05.57.44.64.92,1.24,1.43,1.81.24.26.52.47.84.62.32.15.67.23,1.02.24Z"/>
            <path class="cls-1" d="M78.5,22.25v-9.68c0-.89.4-1.29,1.29-1.29.43,0,.85,0,1.28,0,.28,0,.55.11.75.3.2.19.32.46.33.74,0,.11,0,.24,0,.35v18.41c0,.25,0,.49.03.74.19,1.19.92,1.76,2.29,1.77,2.68,0,5.36,0,8.05,0,.37,0,.7.07.96.36.34.38.44,1.59.16,2.01-.1.16-.24.29-.41.39-.17.09-.35.14-.54.14-2.15.05-4.3.12-6.45.16-1.1.02-2.2.04-3.3-.02-1.65-.08-3.05-.68-3.86-2.24-.4-.8-.6-1.69-.59-2.58,0-3.18,0-6.37,0-9.55Z"/>
            <path class="cls-1" d="M113.76,29.84c-.05-.64-.12-1.27-.14-1.9-.04-1.8-.07-3.59-.08-5.39-.02-3.32-.02-6.64-.02-9.97,0-.93.37-1.3,1.31-1.3h2.73c.87,0,1.27.4,1.27,1.28v22.93c-.03.73-.46,1.14-1.2,1.14-1.29,0-2.58-.02-3.87,0-.93.02-1.62-.35-2.06-1.16-.47-.87-.94-1.74-1.4-2.61-1.99-3.74-4.01-7.47-5.96-11.24-.59-1.14-1.03-2.36-1.51-3.56-.1-.25-.2-.38-.51-.26.05.63.11,1.27.15,1.9.04.64.08,1.31.08,1.97,0,4.53,0,9.06,0,13.59,0,.99-.37,1.35-1.37,1.35h-2.77c-.78,0-1.2-.43-1.2-1.2V13.27c0-1.31.65-1.97,1.98-1.99,1.08-.01,2.15,0,3.23,0,.69,0,1.27.24,1.63.83.52.85,1.01,1.73,1.47,2.6,1.91,3.58,3.83,7.17,5.71,10.77.7,1.33,1.3,2.71,1.93,4.07.13.27.26.39.6.29Z"/>
            <path class="cls-1" d="M158.18,21.72h-.49c-.14.94-.25,1.87-.42,2.79-.48,2.55-.99,5.11-1.48,7.66-.18.93-.36,1.86-.54,2.8-.18.98-.92,1.63-1.92,1.64-1.39.02-2.79.01-4.19,0-.96,0-1.59-.53-1.84-1.44-1.36-5.04-2.72-10.07-4.09-15.1-.27-.99.18-1.58,1.21-1.59h2.87c.67,0,1.07.32,1.2.96.82,3.86,1.64,7.73,2.45,11.6.13.62.19,1.25.26,1.88.02.18.05.3.29.3s.26-.11.29-.3c.6-3.2,1.2-6.41,1.8-9.61.19-1.03.41-2.05.6-3.07.23-1.21.89-1.76,2.12-1.76h3.3c1.06,0,1.78.58,1.98,1.61.73,3.76,1.45,7.53,2.17,11.3.1.51.19,1.01.28,1.52.03.17.03.32.28.32.25,0,.27-.12.3-.3.12-.82.22-1.65.39-2.47.29-1.5.61-2.99.93-4.48.46-2.16.93-4.31,1.39-6.47.15-.72.52-1.03,1.25-1.03h2.94c.87,0,1.36.61,1.13,1.44-1.37,5.12-2.75,10.24-4.14,15.35-.22.81-.88,1.33-1.79,1.34-1.43.02-2.86.02-4.29,0-.96-.01-1.68-.64-1.86-1.58-.68-3.44-1.37-6.88-2.02-10.32-.18-.97-.25-1.97-.37-2.99Z"/>
            <path class="cls-1" d="M53.88,23.92v-11.45c0-.85.35-1.24,1.2-1.27,2.91-.1,5.81-.21,8.72-.24,1.46-.03,2.91.21,4.28.71,2.27.83,3.58,2.51,4.29,4.73.53,1.67.74,3.39.83,5.13.14,2.64.1,5.28-.34,7.9-.24,1.42-.62,2.79-1.38,4.04-1.11,1.82-2.81,2.75-4.85,3.17-1.8.37-3.62.36-5.44.3-2.04-.06-4.09-.15-6.13-.23-.78-.03-1.19-.45-1.19-1.23,0-3.85,0-7.7,0-11.55ZM57.56,23.92v8.7c0,.69.41,1.18,1.04,1.19,1.88.02,3.76.08,5.64-.01,1.87-.1,3.36-.91,4.15-2.7.18-.41.33-.83.45-1.26.48-1.83.56-3.71.57-5.59.01-2.09-.04-4.18-.57-6.22-.27-1.06-.71-2.04-1.55-2.8-.92-.83-2.06-1.16-3.26-1.2-1.69-.06-3.38.02-5.07-.02-.96-.02-1.42.54-1.41,1.43.02,2.83,0,5.66,0,8.49Z"/>
            <path class="cls-1" d="M132.96,29.16h-2.87c-.93,0-1.41.71-1.1,1.58.46,1.28,1.47,1.84,2.74,1.94,1.14.08,2.29.09,3.43.05,1.23-.04,2.46-.15,3.68-.24.63-.04,1.09.26,1.23.87.12.54.21,1.08.27,1.63.06.51-.24.9-.77,1.09-1.29.46-2.63.68-3.98.82-1.67.19-3.35.22-5.03.08-1.21-.11-2.38-.33-3.5-.82-1.94-.84-3.17-2.31-3.7-4.32-.8-2.95-.77-6.07.08-9.01.71-2.45,2.44-3.86,4.9-4.43,1.93-.44,3.89-.48,5.85-.32,1.19.09,2.37.3,3.48.78,1.87.8,2.92,2.24,3.15,4.22.1.84.1,1.69-.02,2.52-.29,1.9-1.39,2.98-3.32,3.35-.69.12-1.38.19-2.08.21-.82.03-1.63,0-2.45,0ZM131.82,26.13v-.05c.83,0,1.66.04,2.48-.01.72-.04,1.1-.39,1.24-1.09.08-.41.1-.84.07-1.26-.05-.93-.54-1.51-1.44-1.73-1.2-.29-2.46-.27-3.65.05-.35.08-.68.26-.94.5-.26.25-.46.56-.57.9-.13.41-.24.83-.31,1.26-.16.85.33,1.41,1.21,1.42.64,0,1.28,0,1.92,0h0Z"/>
            <path class="cls-1" d="M180.84,33.1c1.36-.04,2.72-.07,4.08-.12.28-.01.56-.06.84-.13.67-.17.95-.52.99-1.19.04-.64-.19-1.09-.82-1.28-1.18-.37-2.38-.67-3.58-.99-1.25-.33-2.52-.62-3.76-1-1.13-.35-2.18-.92-2.78-2-.29-.55-.5-1.13-.62-1.74-.19-.93-.2-1.9-.03-2.84.29-1.74,1.38-2.78,3.03-3.27,1.71-.51,3.47-.61,5.23-.53,2.19.1,4.38.3,6.58.46.12.01.23.03.35.06.66.12,1.01.6.94,1.26-.05.4-.09.79-.13,1.19-.08.69-.5,1.07-1.21,1.06-1.39-.01-2.79-.05-4.18-.05s-2.76.03-4.15.06c-.19.01-.38.05-.56.11-.4.11-.63.38-.7.79-.16.88.08,1.41.94,1.66,1.4.41,2.83.73,4.25,1.12,1.22.33,2.45.62,3.63,1.06,1.84.68,2.77,2.1,2.83,4.03.03.81-.02,1.62-.16,2.41-.33,1.87-1.57,2.89-3.37,3.33-1.8.44-3.63.47-5.46.44-2.12-.02-4.23-.17-6.33-.44-.93-.13-1.29-.53-1.19-1.45.04-.35.06-.7.11-1.05.09-.69.5-1.02,1.21-1.02h4.04v.05Z"/>
            <path class="cls-1" d="M30.19,20.24c.87-.11,1.41-.6,1.87-1.28.99-1.49,2.07-2.92,3.03-4.42.66-1.04,1.18-2.16,1.74-3.26.33-.64.2-1.29-.28-1.67-.51-.4-1.36-.44-1.84,0-1.19,1.1-2.6,1.87-3.99,2.66-.86.49-1.67,1.06-2.3,1.86-.61-1.1-1.52-1.74-2.75-1.92-.14-.02-.28-.03-.42-.02-.69.08-1.2-.17-1.61-.73-1.21-1.69-3.46-1.91-4.98-.5-.18.18-.35.38-.5.59-.37.49-.82.7-1.46.66-1.23-.09-2.19.45-2.91,1.43-.06.08-.1.16-.15.24-.05.08-.1.16-.17.27-1.25-1.6-3.09-2.33-4.7-3.39-.69-.47-1.36-.97-2-1.5-.57-.47-1.2-.4-1.59.22-.17.26-.27.56-.29.87-.02.31.04.62.18.9.88,1.99,2.05,3.8,3.33,5.55.56.77,1.12,1.54,1.67,2.32.41.58.97.9,1.68,1.04-.16.32-.34.61-.46.93-.28.72-.54,1.44-.78,2.18-.16.48-.4.86-.84,1.12-.76.45-1.34,1.14-1.66,1.96-.78,1.84-.75,3.66.21,5.43.26.47.67.87,1.06,1.25.34.32.54.66.54,1.13,0,1.8,0,3.59,0,5.39,0,.86-.25,1.71-.75,2.42-.49.71-1.2,1.25-2.02,1.55-.81.31-1.7.37-2.54.17-.84-.2-1.61-.66-2.18-1.3-1.52-1.7-2.3-3.67-2.3-5.96.02-7.75.02-15.49,0-23.24C0,8.8,2.97,5.2,7.31,4.35c.56-.1,1.12-.16,1.69-.15,7.97,0,15.94,0,23.91,0,2.17,0,4.27.77,5.92,2.18,1.64,1.41,2.71,3.37,3.02,5.51.05.39.08.79.08,1.19,0,7.94,0,15.87,0,23.81,0,1.63-.25,3.21-1.14,4.62-1.31,2.09-4.11,2.91-6.2,1.79-1.22-.65-1.81-1.76-2.07-3.05-.35-1.7-.33-3.43-.36-5.15-.01-.47-.01-.94,0-1.41,0-.06.01-.12.04-.17.02-.05.06-.1.1-.14,1.24-.78,1.86-1.94,2.08-3.33.25-1.6.04-3.14-.95-4.49-.32-.41-.7-.76-1.14-1.04-.45-.32-.75-.67-.86-1.22-.18-.92-.52-1.81-1.01-2.62-.07-.13-.14-.26-.23-.42Z"/>
            <path class="cls-1" d="M23.96,23.56c1.35.82,2.67.83,3.98-.15.2.62.09,1.18-.22,1.72-.57.98-.88,2.09-.89,3.22,0,1.13.28,2.25.83,3.23.43.78.35,1.62-.24,2.28s-1.18,1.39-1.85,1.98c-2.37,2.08-5.43,2.36-8.2.85-1.24-.67-2.34-1.56-3.26-2.63-.28-.33-.45-.74-.49-1.17-.03-.43.07-.86.3-1.23,1.21-1.95,1.2-3.97.3-6.02-.06-.14-.13-.27-.2-.41-.36-.69-.35-1.37.1-2.07.53.59,1.27.97,2.06,1.05.81.09,1.54-.15,2.21-.59.26,1.55,1.72,2.21,3.16,2.13,1.25-.07,2.18-.87,2.42-2.19ZM20.85,31.57c.59-.01,1.1-.26,1.57-.61.75-.56,1.28-1.31,1.75-2.1.04-.09.06-.19.05-.29,0-.1-.04-.2-.09-.28-.1-.12-.39-.17-.56-.12-1.78.45-3.65.44-5.43-.02-.25-.06-.45-.02-.55.18-.08.16-.14.44-.05.57.44.64.92,1.24,1.43,1.81.24.26.52.47.84.62.32.15.67.23,1.02.24Z"/>
            <path class="cls-1" d="M78.5,22.25v-9.68c0-.89.4-1.29,1.29-1.29.43,0,.85,0,1.28,0,.28,0,.55.11.75.3.2.19.32.46.33.74,0,.11,0,.24,0,.35v18.41c0,.25,0,.49.03.74.19,1.19.92,1.76,2.29,1.77,2.68,0,5.36,0,8.05,0,.37,0,.7.07.96.36.34.38.44,1.59.16,2.01-.1.16-.24.29-.41.39-.17.09-.35.14-.54.14-2.15.05-4.3.12-6.45.16-1.1.02-2.2.04-3.3-.02-1.65-.08-3.05-.68-3.86-2.24-.4-.8-.6-1.69-.59-2.58,0-3.18,0-6.37,0-9.55Z"/>
          </g>
        </g>
      </g>
    </g>
  </g>
</svg>