<?xml version="1.0" encoding="UTF-8"?>
<svg id="Camada_2" data-name="Camada 2" xmlns="http://www.w3.org/2000/svg" viewBox="0 0 192 48">
  <defs>
    <style>
      .cls-1 {
        fill: #fff;
      }

      .cls-2 {
        fill: none;
      }
    </style>
  </defs>
  <g id="Camada_1-2" data-name="Camada 1">
    <g id="MEXC">
      <rect class="cls-2" width="192" height="48"/>
      <g id="MEXC-2" data-name="MEXC">
        <path class="cls-1" d="M14.12,10.11c2.45-.35,4.4.79,5.67,2.83l12.66,22.17c.52,1.38-.8,2.66-2.19,2.61-8.08-.6-17.26.78-25.2,0-3.24-.32-5.37-3.01-5.02-6.25.1-.9.59-1.71.99-2.49,2.86-5.65,6.71-11.12,9.7-16.73.8-1.1,2.02-1.94,3.4-2.13Z"/>
        <path class="cls-1" d="M63.44,10.06l10.86,13.52,1.12-1.13,9.84-12.39h5.94v27.66h-6.15v-18.23l-9.2,10.98c-.58.47-2.34.45-2.9,0l-9.2-10.98v18.23h-6.15V10.06h5.84Z"/>
        <polygon class="cls-1" points="123.16 10.06 123.16 14.97 104.52 14.97 104.52 21.32 120.71 21.32 120.71 25.83 104.83 25.83 104.52 26.14 104.52 32.8 123.16 32.8 123.16 37.71 98.58 37.71 98.58 10.06 123.16 10.06"/>
        <path class="cls-1" d="M192,10.06v4.92c-4.49.4-13.89-1.29-17.09,2.48-2.29,2.7-2.38,8.83-.53,11.77.9,1.43,3.3,3.38,5.02,3.38h12.6v4.81c-.18.29-.41.28-.71.32-3.51.41-12.65.16-15.98-.84-10.85-3.27-11.17-22.05-.58-25.96.61-.22,2.91-.87,3.44-.87h13.83Z"/>
        <path class="cls-1" d="M28.87,10.11c1.84-.29,3.69.36,4.97,1.69l10.63,18.26c2.46,6.13-5.41,11.07-9.77,4.44-3.42-5.2-6.15-11.24-9.5-16.52-1.7-3.1.14-7.32,3.67-7.88Z"/>
        <path class="cls-1" d="M129.31,37.71l11.47-13.83-11.47-13.83h7.48l8.96,10.91c.34.78.28,5.32-.16,6.08l-9,10.66h-7.27Z"/>
        <path class="cls-1" d="M164.55,10.06l-11.47,13.83,11.47,13.83h-7.27l-8.8-10.46c-.73-1.16-.19-5.04-.21-6.54l8.7-10.66h7.58Z"/>
      </g>
    </g>
  </g>
</svg>