<?xml version="1.0" encoding="UTF-8"?>
<svg id="Camada_2" data-name="Camada 2" xmlns="http://www.w3.org/2000/svg" viewBox="0 0 192 48">
  <defs>
    <style>
      .cls-1 {
        fill: #fff;
      }

      .cls-2 {
        fill: none;
      }
    </style>
  </defs>
  <g id="Camada_1-2" data-name="Camada 1">
    <g id="TheDefiant">
      <g id="TheDefiant-2" data-name="TheDefiant">
        <path class="cls-1" d="M168.06.43v47.14s-168.06,0-168.06,0V.43h168.06ZM164.14,4.06H3.64v39.61h160.5V4.06Z"/>
        <path class="cls-1" d="M80.29,30.45c-3.61,3.6-9.89,2.21-14.47,2.2-1.04-1.23,1.9-1.41,1.99-1.71l-.06-14.02-2.07-.87.14-.71c4.62-.02,11.05-1.59,14.68,2.13,3.02,3.1,2.84,9.95-.21,12.98ZM71.43,16.61v14.36c1.28,1.04,4.09.08,5.18-.98,3.84-3.75,2.1-15.16-5.18-13.39Z"/>
        <path class="cls-1" d="M99.72,21.91h-1.8c-.97-1.46,1.56-1.67,1.76-2,.17-.27,0-1.64.11-2.26.79-4.6,8.34-4.3,11.58-2.73.44,1.88-1.13,3.89-2.98,2.41-1.34-1.07-.84-2.99-3.41-1.77-1.9.9-1.66,2.92-1.61,4.68l8.12-.28v11.02l1.64.74.04,1.08h-6.58c-.28,0-.55-.78-.41-1.1l1.67-.57v-9.2h-4.48v9.2c1.11.18,1.92.36,1.68,1.67h-7c-.24-1.31.57-1.5,1.68-1.67v-9.2Z"/>
        <path class="cls-1" d="M36.97,13.82v8.65c.62-.5.96-1.32,1.69-1.8,1.5-.97,4.31-1.13,5.59.26,1.89,2.04.84,7.36,1.1,10,.93.63,1.98.3,1.69,1.86h-6.72c-.48-1.49,1.15-1.24,1.37-1.85.18-.5.13-5.55.04-6.38-.46-4.12-4.34-2.78-4.75-.26-.13.82-.19,5.97-.03,6.63.09.36,1.96.47,1.41,1.86h-6.72c-.36-1.53.83-1.11,1.69-1.86v-14.7s-1.79-.46-1.79-.46c-.3.05-.23-.58-.18-.69.35-.79,4.64-1.18,5.6-1.26Z"/>
        <path class="cls-1" d="M30.81,15.21c.18.18-.16,4.49-.28,5.16-.06.33-.09.54-.45.67h-.93s-1.46-4.11-1.46-4.11l-3.04-.05v13.81c.97.98,2.97.31,2.52,2.09h-8.68c-.43-1.52,1.33-1.55,2.52-1.67v-14.22l-3.05.03-1.48,4.1-1.06.04-.57-5.84h15.97Z"/>
        <path class="cls-1" d="M129.97,21.91h-1.68c-1.01-1.88,5.1-2.18,5.32-1.95v2.23c.46-.15.5-.71.98-1.11,1.23-1.03,2.59-1.31,4.18-1.09,4.38.62,3.04,7.84,3.23,10.94l1.69,1.17-.42.69h-6.3c-.55-1.39,1.33-1.5,1.41-1.86.19-.78.07-4.79-.02-5.81-.05-.59-.29-2.03-.58-2.49-1.01-1.59-3.83-.41-4.16,1.38-.16.89-.18,5.81-.01,6.68.22,1.16,1.88.48,1.4,2.09h-6.72c-.24-1.31.57-1.5,1.68-1.67v-9.2Z"/>
        <path class="cls-1" d="M125.51,30.81c5.47.94-2.71,2.7-3.14,2.1l-.25-2.35c-.51.23-.47.89-.98,1.39-2.23,2.24-6.74.93-6.84-2.4-.11-3.76,4.85-3.86,7.55-4.14.72-2.02.25-4.5-2.39-4.06-1.15.19-1.45,2.38-1.86,3.32-1.28.88-2.52-2.62-2.17-3.56,1.34-.61,2.8-1.06,4.29-1.17,8.33-.58,5.28,5.27,5.78,10.86ZM122.12,26.65c-6.41-.85-3.69,6.94-.68,3.65.86-.94.68-2.47.68-3.65Z"/>
        <path class="cls-1" d="M59.1,26.65h-7.84c-.06,2.31,1.37,4.36,3.81,4.44.68.02,3.77-1.23,3.75-.39-4.62,4.84-12.02,2.03-11.48-5.02.63-8.21,13.48-7.75,11.76.97ZM55.46,25.25c.27-1.75-.41-4.8-2.74-3.7-1.31.62-1.03,2.57-1.47,3.7h4.2Z"/>
        <path class="cls-1" d="M96.07,26.65h-7.84c.37,4.75,3.76,5,7.56,3.63-.67,2.91-5.31,3.21-7.76,2.29-5.06-1.89-4.77-10.91.33-12.35,5.02-1.42,8.64,1.1,7.72,6.43ZM92.43,25.25c.75-5.42-4.33-5.15-3.92,0h3.92Z"/>
        <path class="cls-1" d="M149.57,29.02c.49,3.31,3.55,1.46,3.92,1.81.07,1.96-3.92,2.47-5.33,2.1-3.56-.93-1.82-8.27-2.23-11.03-.6,0-1.98.25-1.97-.7,0-.93,1.55-.8,1.84-1.24.35-.54-.16-1.56.4-2.11.62-.61,2.51-.76,3.37-.69v3.07s3.36,0,3.36,0v1.51s-3.36.16-3.36.16c.23,2.2-.31,4.99,0,7.11Z"/>
      </g>
      <rect class="cls-2" width="192" height="48"/>
    </g>
  </g>
</svg>