<svg width="16" height="16" viewBox="0 0 16 16" fill="none" xmlns="http://www.w3.org/2000/svg">
<path fill-rule="evenodd" clip-rule="evenodd" d="M1.32525 15H4.01556C4.64899 15 4.96569 15 5.24835 14.9228C5.55826 14.832 5.84091 14.671 6.07588 14.4493C6.29169 14.2466 6.44741 13.9779 6.75464 13.4479L6.75475 13.4477L6.76379 13.4321L10.2531 7.35124C10.5629 6.81745 10.7162 6.54885 10.7843 6.26683C10.8592 5.9613 10.8592 5.63901 10.7843 5.33349C10.7167 5.05363 10.5619 4.78699 10.2567 4.26125L10.2566 4.26107L10.2496 4.24907L8.88402 1.89894C8.6014 1.40875 8.45836 1.16368 8.27787 1.07302C8.08377 0.97566 7.85219 0.97566 7.65806 1.07302C7.47757 1.16368 7.33456 1.40875 7.05191 1.89894L0.409189 13.4422C0.129944 13.9256 -0.00970635 14.1674 0.000524141 14.3654C0.0141648 14.5804 0.126534 14.7751 0.310433 14.8926C0.48069 15 0.759932 15 1.32523 15H1.32525ZM14.6644 15H10.8095H10.8095C10.2408 15 9.95473 15 9.78786 14.8926C9.60396 14.7751 9.49159 14.5771 9.47797 14.3622C9.4678 14.1657 9.60852 13.9262 9.89004 13.4471L9.89024 13.4467L9.89681 13.4355L11.8209 10.1789C12.1036 9.69883 12.2466 9.46045 12.4237 9.36982C12.6177 9.27243 12.8461 9.27243 13.04 9.36982C13.2158 9.45805 13.3527 9.68625 13.6237 10.138L13.6243 10.1389L13.6462 10.1756L15.5772 13.4322C15.5866 13.4482 15.5958 13.464 15.6051 13.4795L15.6052 13.4798C15.8727 13.935 16.0093 14.1673 15.9995 14.3589C15.9892 14.5736 15.8734 14.7718 15.6896 14.8894C15.5192 15 15.2331 15 14.6644 15Z" fill="#E84142"/>
</svg>
