<svg width="16" height="16" viewBox="0 0 16 16" fill="none" xmlns="http://www.w3.org/2000/svg">
<path d="M1.00011 2.106C1.00011 1.72713 1.00011 1.5378 1.07153 1.392C1.13989 1.25244 1.25266 1.13967 1.39222 1.07131C1.53791 1 1.72724 1 2.10611 1H13.8941C14.2729 1 14.4624 1 14.6081 1.07142C14.7476 1.13978 14.8603 1.25255 14.9288 1.39211C15.0001 1.5378 15.0001 1.72724 15.0001 2.10611V13.8941C15.0001 14.2729 15.0001 14.4624 14.9288 14.6081C14.8603 14.7476 14.7476 14.8603 14.6081 14.9288C14.4624 15.0001 14.2729 15.0001 13.8941 15.0001H2.10611C1.72724 15.0001 1.53791 15.0001 1.39211 14.9288C1.25255 14.8603 1.13978 14.7476 1.07142 14.6081C1 14.4624 1 14.2729 1 13.8941V2.106H1.00011Z" fill="#0000FF"/>
</svg>
