<svg width="16" height="16" viewBox="0 0 16 16" fill="none" xmlns="http://www.w3.org/2000/svg">
<path d="M15.7605 9.9354C14.6919 14.2211 10.3507 16.8294 6.06401 15.7606C1.77905 14.6921 -0.829473 10.3511 0.239641 6.06565C1.30775 1.7794 5.64897 -0.829101 9.93442 0.239399C14.2209 1.3079 16.8292 5.6494 15.7605 9.9354Z" fill="#F7931A"/>
<path d="M11.5266 6.86035C11.6858 5.79585 10.8753 5.2236 9.76707 4.84185L10.1266 3.39985L9.24882 3.1811L8.89882 4.5851C8.66807 4.5276 8.43107 4.47335 8.19557 4.4196L8.54807 3.00635L7.67082 2.7876L7.31107 4.2291C7.12007 4.1856 6.93257 4.1426 6.75057 4.09735L6.75157 4.09285L5.54107 3.7906L5.30757 4.7281C5.30757 4.7281 5.95882 4.87735 5.94507 4.8866C6.30057 4.97535 6.36482 5.2106 6.35407 5.3971L5.94457 7.03985C5.96907 7.0461 6.00082 7.0551 6.03582 7.0691C6.00657 7.06185 5.97532 7.05385 5.94307 7.0461L5.36907 9.34735C5.32557 9.45535 5.21532 9.61735 4.96682 9.55585C4.97557 9.5686 4.32882 9.3966 4.32882 9.3966L3.89307 10.4013L5.03532 10.6861C5.24782 10.7393 5.45607 10.7951 5.66107 10.8476L5.29782 12.3061L6.17457 12.5248L6.53432 11.0818C6.77382 11.1468 7.00632 11.2068 7.23382 11.2633L6.87532 12.6996L7.75307 12.9183L8.11632 11.4626C9.61307 11.7458 10.7386 11.6316 11.2123 10.2778C11.5941 9.18785 11.1933 8.5591 10.4058 8.1491C10.9793 8.01685 11.4113 7.6396 11.5266 6.86035ZM9.52107 9.6726C9.24982 10.7626 7.41457 10.1733 6.81957 10.0256L7.30157 8.09335C7.89657 8.24185 9.80457 8.53585 9.52107 9.6726ZM9.79257 6.8446C9.54507 7.8361 8.01757 7.33235 7.52207 7.20885L7.95907 5.45635C8.45457 5.57985 10.0503 5.81035 9.79257 6.8446Z" fill="white"/>
</svg>
