<svg width="16" height="16" viewBox="0 0 16 16" fill="none" xmlns="http://www.w3.org/2000/svg">
<path d="M5.27991 3.36028L3.75978 2.48021L8.00014 0L12.2405 2.48021L10.7204 3.36028L8.00014 1.84016L5.27991 3.36028ZM13.3606 4.88041V6.72057L14.8807 5.84049V4.00034L13.3606 3.12026L11.8405 4.00034L13.3606 4.88041ZM6.48001 4.00034L8.00014 4.88041L9.52026 4.00034L8.00014 3.12026L6.48001 4.00034ZM12.2405 5.52047L10.7204 4.64039L8.00014 6.16052L5.27991 4.64039L3.75978 5.52047V7.36062L6.48001 8.88075V12.001L8.00014 12.8811L9.52026 12.001V8.88075L12.2405 7.36062V5.52047ZM13.3606 11.1209L10.7204 12.6411V14.4812L14.9607 12.001V7.1206L13.3606 8.00068V11.1209ZM10.7204 11.361L12.2405 10.4809V8.64073L10.7204 9.5208V11.361ZM6.48001 13.2811V15.1213L8.00014 16.0014L9.52026 15.1213V13.2811L8.00014 14.1612L6.48001 13.2811ZM1.03955 5.84049L2.55968 6.72057V4.88041L4.15981 4.00034L2.63969 3.12026L1.03955 4.00034V5.84049ZM2.63969 8.00068L1.11956 7.1206V12.001L5.35991 14.4812V12.6411L2.63969 11.1209V8.00068ZM5.27991 9.5208L3.75978 8.64073V10.4809L5.27991 11.361V9.5208Z" fill="url(#paint0_linear_2218_693)"/>
<defs>
<linearGradient id="paint0_linear_2218_693" x1="8.00014" y1="0" x2="8.00014" y2="16.0014" gradientUnits="userSpaceOnUse">
<stop stop-color="#F9D230"/>
<stop offset="1" stop-color="#F0B90C"/>
</linearGradient>
</defs>
</svg>
