<svg width="16" height="16" viewBox="0 0 16 16" fill="none" xmlns="http://www.w3.org/2000/svg">
<path d="M1.32556 15.9998C2.05368 15.9998 2.65112 15.4002 2.65112 14.6696C2.65112 13.9389 2.05368 13.3394 1.32556 13.3394C0.597434 13.3394 0 13.9389 0 14.6696C0 15.4002 0.597434 15.9998 1.32556 15.9998Z" fill="#41B1BD"/>
<path d="M14.6744 2.66042C15.4025 2.66042 15.9999 2.06089 15.9999 1.33021C15.9999 0.599532 15.4025 0 14.6744 0C13.9462 0 13.3488 0.599532 13.3488 1.33021C13.3301 2.06089 13.9276 2.66042 14.6744 2.66042Z" fill="#41B1BD"/>
<path d="M4.16317 10.3796C4.21917 10.3234 4.23784 10.2298 4.20051 10.1548C3.80844 9.42414 3.64041 8.56232 3.71509 7.66302C3.92046 5.60213 5.58207 3.95341 7.63575 3.74732C8.5319 3.65365 9.37205 3.841 10.1188 4.21571C10.1935 4.25318 10.2869 4.23444 10.3429 4.17824L11.7431 2.77308C11.8178 2.69814 11.8178 2.54826 11.7058 2.49205C10.6416 1.83631 9.40939 1.44287 8.08383 1.44287C4.3872 1.44287 1.4187 4.4218 1.4187 8.11267C1.4187 9.44288 1.81077 10.6981 2.50155 11.7473C2.55756 11.841 2.70692 11.8597 2.7816 11.7661L4.16317 10.3796Z" fill="#41B1BD"/>
<path d="M11.8742 5.62047C11.8181 5.67668 11.7995 5.77036 11.8555 5.8453C12.3222 6.63218 12.5649 7.55022 12.4529 8.56193C12.2476 10.6228 10.5859 12.2715 8.53226 12.4776C7.54276 12.5713 6.60926 12.3465 5.82513 11.8781C5.75045 11.8406 5.6571 11.8406 5.60109 11.8968L4.2382 13.2645C4.16352 13.3395 4.16352 13.4893 4.25687 13.5455C5.33972 14.3137 6.66527 14.7446 8.08418 14.7446C11.7621 14.7821 14.7493 11.7844 14.7493 8.11228C14.7493 6.68839 14.3012 5.35818 13.5358 4.27153C13.4611 4.17785 13.3304 4.17785 13.2557 4.25279L11.8742 5.62047Z" fill="#41B1BD"/>
</svg>
