<svg width="16" height="16" viewBox="0 0 16 16" fill="none" xmlns="http://www.w3.org/2000/svg">
<path d="M1.93949 2.76605C2.03948 2.64204 2.14348 2.52204 2.24749 2.40205C2.25149 2.39805 2.26349 2.39405 2.26749 2.39005C2.27549 2.37805 2.29149 2.37005 2.30349 2.35805L2.31149 2.34605C2.3835 2.27804 2.4635 2.20604 2.5515 2.13804C2.87152 1.89803 3.19952 1.71402 3.54753 1.59002C4.66756 1.19801 5.9116 1.43801 6.88764 2.36205C8.25167 3.63809 8.12768 5.69814 7.03963 7.06618C5.66361 9.10624 3.30352 11.9503 6.57163 14.4984C7.15964 14.9584 7.59566 15.3344 9.44771 15.8704C8.23567 16.0945 7.11164 16.0225 5.8636 15.7064C4.97958 15.2064 3.58753 14.1384 3.11553 12.6943C2.3995 10.5063 4.37557 7.23019 5.32759 5.97015C6.63563 4.22609 4.51956 2.33805 2.95552 4.4461C2.14749 5.54613 0.719446 8.65423 1.21546 10.9623C1.50347 12.2703 1.89149 13.2224 3.42352 14.5344C3.13953 14.3664 2.86352 14.1784 2.5955 13.9624C-0.960604 10.6463 -0.548593 5.51813 1.93949 2.76605Z" fill="url(#paint0_linear_2218_586)"/>
<path d="M14.0595 13.2385C13.9595 13.3625 13.8555 13.4825 13.7515 13.6025C13.7475 13.6065 13.7355 13.6105 13.7315 13.6145C13.7235 13.6265 13.7075 13.6345 13.6955 13.6465L13.6875 13.6585C13.6155 13.7265 13.5355 13.7985 13.4475 13.8625C13.1275 14.1025 12.7995 14.2865 12.4514 14.4105C11.3314 14.8025 10.0874 14.5625 9.11135 13.6385C7.74731 12.3625 7.87131 10.3024 8.95934 8.93436C10.3354 6.89431 12.6955 4.05022 9.42736 1.50215C8.83934 1.04213 8.40333 0.666123 6.55127 0.130107C7.76331 -0.0939001 8.88734 -0.021898 10.1354 0.294112C11.0194 0.794127 12.4114 1.86216 12.8835 3.3062C13.5995 5.49427 11.6234 8.77036 10.6714 10.0304C9.36336 11.7745 11.4794 13.6625 13.0435 11.5544C13.8595 10.4544 15.2875 7.34633 14.7915 5.03825C14.5035 3.73021 14.1155 2.77818 12.5835 1.46615C12.8675 1.63415 13.1435 1.82216 13.4115 2.03817C16.9596 5.35826 16.5476 10.4864 14.0595 13.2385Z" fill="url(#paint1_linear_2218_586)"/>
<defs>
<linearGradient id="paint0_linear_2218_586" x1="15.5" y1="-0.5" x2="2" y2="15" gradientUnits="userSpaceOnUse">
<stop stop-color="#00EDFD"/>
<stop offset="1" stop-color="#0086FA"/>
</linearGradient>
<linearGradient id="paint1_linear_2218_586" x1="15.9999" y1="1" x2="0.499879" y2="16" gradientUnits="userSpaceOnUse">
<stop stop-color="#00EDFD"/>
<stop offset="1" stop-color="#0086FA"/>
</linearGradient>
</defs>
</svg>
