<svg width="16" height="16" viewBox="0 0 16 16" fill="none" xmlns="http://www.w3.org/2000/svg">
<g clip-path="url(#clip0_19701_2078)">
<g clip-path="url(#clip1_19701_2078)">
<path d="M8 16.0005C12.4185 16.0005 16.0005 12.4185 16.0005 8C16.0005 3.58145 12.4185 -0.000488281 8 -0.000488281C3.58145 -0.000488281 -0.000488281 3.58145 -0.000488281 8C-0.000488281 12.4185 3.58145 16.0005 8 16.0005Z" fill="#040404"/>
<path d="M8.08413 5.63413C8.08413 5.2591 8.3904 4.95596 8.76542 4.95596H9.98737V3.30273H8.76542C7.47159 3.30273 6.42153 4.34655 6.42153 5.63413C6.42153 5.96852 6.49341 6.29042 6.62154 6.57793C5.61523 6.99984 4.94956 7.89989 4.7933 9.03746C4.61204 10.2844 5.1152 11.6314 6.20902 12.2845C7.1872 12.8971 8.71229 12.8564 9.53734 12.0064V12.5689H11.2374V6.31229H8.76542C8.3904 6.31229 8.08413 6.00915 8.08413 5.63413ZM9.57797 7.96552V9.53436C9.57485 10.4032 8.86855 11.1063 7.99975 11.1032C7.13095 11.1063 6.42465 10.4032 6.42153 9.53436C6.42465 8.66556 7.13095 7.96239 7.99975 7.96552H9.57797Z" fill="#BFF007"/>
</g>
</g>
<defs>
<clipPath id="clip0_19701_2078">
<rect width="16" height="16" fill="white"/>
</clipPath>
<clipPath id="clip1_19701_2078">
<rect width="16.001" height="16.001" fill="white" transform="translate(-0.000488281 -0.000488281)"/>
</clipPath>
</defs>
</svg>
