<svg width="16" height="16" viewBox="0 0 16 16" fill="none" xmlns="http://www.w3.org/2000/svg">
<g clip-path="url(#clip0_19747_2529)">
<path d="M5.80579 8.67447C5.41044 9.04511 5.41044 9.66038 5.80579 10.0384L8.71558 12.7664C9.11884 13.1444 9.76722 13.1444 10.1705 12.7664C10.5658 12.3957 10.5658 11.7805 10.1705 11.4024L7.26069 8.67447C6.86534 8.30382 6.20905 8.30382 5.80579 8.67447Z" fill="url(#paint0_linear_19747_2529)"/>
<path d="M15.6977 7.58482C16.1009 7.20676 16.1009 6.59891 15.6977 6.22085C15.3023 5.85021 14.646 5.85021 14.2428 6.22085L10.1706 10.0385C9.76738 10.4165 9.83854 10.3498 9.44319 10.7205C8.54179 11.5655 7.30829 11.4321 6.90503 11.0614L8.71574 12.759C9.11109 13.1296 9.76738 13.1296 10.1706 12.759L15.6977 7.58482Z" fill="url(#paint1_linear_19747_2529)"/>
<path d="M10.1944 7.32563C10.5898 6.95499 10.5898 6.33972 10.1944 5.96167L7.28462 3.23374C6.88136 2.85568 6.23298 2.85568 5.82972 3.23374C5.43437 3.60438 5.43437 4.21965 5.82972 4.5977L8.73951 7.32563C9.14277 7.69627 9.79115 7.69627 10.1944 7.32563Z" fill="url(#paint2_linear_19747_2529)"/>
<path d="M0.302689 8.42246C-0.100571 8.80051 -0.100571 9.40837 0.302689 9.78642C0.698041 10.1571 1.35433 10.1571 1.75758 9.78642L5.82971 5.96139C6.23297 5.58333 6.16181 5.65005 6.55716 5.27941C7.45856 4.43434 8.69206 4.56777 9.09532 4.93842L7.28461 3.24087C6.88926 2.87023 6.23297 2.87023 5.82971 3.24087L0.302689 8.42246Z" fill="url(#paint3_linear_19747_2529)"/>
</g>
<defs>
<linearGradient id="paint0_linear_19747_2529" x1="3.06987" y1="6.16404" x2="10.1464" y2="13.6231" gradientUnits="userSpaceOnUse">
<stop offset="0.1173" stop-color="#6978FF"/>
<stop offset="0.1876" stop-color="#6087FF"/>
<stop offset="0.3484" stop-color="#4DA5FF"/>
<stop offset="0.5073" stop-color="#40BAFF"/>
<stop offset="0.6622" stop-color="#39C7FF"/>
<stop offset="0.8083" stop-color="#36CBFF"/>
<stop offset="1" stop-color="#67FFFC"/>
</linearGradient>
<linearGradient id="paint1_linear_19747_2529" x1="1.45068" y1="18.8189" x2="22.3759" y2="-4.12505" gradientUnits="userSpaceOnUse">
<stop offset="0.386" stop-color="#6978FF"/>
<stop offset="0.4432" stop-color="#6284FF"/>
<stop offset="0.6461" stop-color="#4AABFF"/>
<stop offset="0.8086" stop-color="#3BC2FF"/>
<stop offset="0.9094" stop-color="#36CBFF"/>
<stop offset="1" stop-color="#67FFFC"/>
</linearGradient>
<linearGradient id="paint2_linear_19747_2529" x1="6.8784" y1="3.86402" x2="9.33243" y2="7.35419" gradientUnits="userSpaceOnUse">
<stop offset="0.1173" stop-color="#6978FF"/>
<stop offset="0.1876" stop-color="#6087FF"/>
<stop offset="0.3484" stop-color="#4DA5FF"/>
<stop offset="0.5073" stop-color="#40BAFF"/>
<stop offset="0.6622" stop-color="#39C7FF"/>
<stop offset="0.8083" stop-color="#36CBFF"/>
<stop offset="1" stop-color="#67FFFC"/>
</linearGradient>
<linearGradient id="paint3_linear_19747_2529" x1="-3.16885" y1="15.3553" x2="6.67068" y2="3.00764" gradientUnits="userSpaceOnUse">
<stop offset="0.3128" stop-color="#6978FF"/>
<stop offset="0.3633" stop-color="#6087FF"/>
<stop offset="0.4785" stop-color="#4DA5FF"/>
<stop offset="0.5925" stop-color="#40BAFF"/>
<stop offset="0.7035" stop-color="#39C7FF"/>
<stop offset="0.8083" stop-color="#36CBFF"/>
<stop offset="1" stop-color="#67FFFC"/>
</linearGradient>
<clipPath id="clip0_19747_2529">
<rect width="16" height="16" fill="white"/>
</clipPath>
</defs>
</svg>
