<svg width="16" height="16" viewBox="0 0 16 16" fill="none" xmlns="http://www.w3.org/2000/svg">
<g clip-path="url(#clip0_14305_3092)">
<path d="M12.2235 1.71511L9.29885 6.05536C9.09662 6.35094 9.48553 6.70873 9.76555 6.45983L12.6435 3.95524C12.7213 3.89301 12.8302 3.93968 12.8302 4.04858V11.8735C12.8302 11.9824 12.6902 12.029 12.6279 11.9513L3.91631 1.52843C3.6363 1.18619 3.23183 0.999512 2.78069 0.999512H2.46956C1.66063 0.999512 0.991699 1.66844 0.991699 2.49293V13.5069C0.991699 14.3314 1.66063 15.0003 2.48512 15.0003C2.99848 15.0003 3.48073 14.7359 3.76075 14.2847L6.68537 9.94448C6.8876 9.64891 6.49869 9.29111 6.21867 9.54001L3.34073 12.029C3.26294 12.0913 3.15405 12.0446 3.15405 11.9357V4.12636C3.15405 4.01747 3.29406 3.9708 3.35628 4.04858L12.0679 14.4714C12.3479 14.8137 12.7679 15.0003 13.2035 15.0003H13.5147C14.3391 15.0003 15.0081 14.3314 15.0081 13.5069V2.49293C15.0081 1.66844 14.3391 0.999512 13.5147 0.999512C12.9857 0.999512 12.5035 1.26397 12.2235 1.71511Z" fill="black"/>
</g>
<defs>
<clipPath id="clip0_14305_3092">
<rect width="14.0164" height="14.0008" fill="white" transform="translate(0.991699 0.999512)"/>
</clipPath>
</defs>
</svg>
