<svg width="16" height="16" viewBox="0 0 16 16" fill="none" xmlns="http://www.w3.org/2000/svg">
<g clip-path="url(#clip0_10814_32876)">
<path d="M8.21875 1.12498L8.48716 0.740679L8.21875 0.553223L7.95034 0.740679L8.21875 1.12498ZM4 4.07142L3.7316 3.6871L3.19032 4.06514L3.72568 4.45151L4 4.07142ZM12.4375 4.07142H12.9062V3.82704L12.7059 3.6871L12.4375 4.07142ZM12.4375 10.1607L12.1632 10.5408L12.9062 11.0771V10.1607H12.4375ZM12.0623 11.9286L12.3356 12.3094L12.8647 11.9296L12.3366 11.5485L12.0623 11.9286ZM3.625 5.83926L3.89932 5.45917L3.15625 4.92289V5.83926H3.625ZM7.95766 14.875L7.69406 15.2626L7.96491 15.4468L8.231 15.2558L7.95766 14.875ZM3.625 11.9286H3.15625V12.1767L3.3614 12.3162L3.625 11.9286ZM7.95034 0.740679L3.7316 3.6871L4.2684 4.4557L8.48716 1.50928L7.95034 0.740679ZM12.7059 3.6871L8.48716 0.740679L7.95034 1.50928L12.1691 4.4557L12.7059 3.6871ZM12.9062 10.1607V4.07142H11.9688V10.1607H12.9062ZM3.72568 4.45151L12.1632 10.5408L12.7118 9.7806L4.27432 3.69132L3.72568 4.45151ZM12.3366 11.5485L3.89932 5.45917L3.35068 6.21939L11.788 12.3087L12.3366 11.5485ZM8.231 15.2558L12.3356 12.3094L11.7889 11.5478L7.68431 14.4942L8.231 15.2558ZM3.3614 12.3162L7.69406 15.2626L8.22125 14.4874L3.8886 11.5409L3.3614 12.3162ZM3.15625 5.83926V11.9286H4.09375V5.83926H3.15625Z" fill="black"/>
</g>
<defs>
<clipPath id="clip0_10814_32876">
<rect width="10" height="15.3125" fill="white" transform="translate(3 0.34375)"/>
</clipPath>
</defs>
</svg>
