<svg width="16" height="16" viewBox="0 0 16 16" fill="none" xmlns="http://www.w3.org/2000/svg">
<path d="M12.1149 5.26332C11.8225 5.09622 11.4465 5.09622 11.1123 5.26332L8.77285 6.64191L7.18538 7.5192L4.88773 8.89779C4.5953 9.06489 4.21932 9.06489 3.88512 8.89779L2.08877 7.81162C1.79634 7.64452 1.58747 7.31032 1.58747 6.93434V4.84557C1.58747 4.51136 1.75457 4.17716 2.08877 3.96828L3.88512 2.9239C4.17755 2.75679 4.55352 2.75679 4.88773 2.9239L6.68407 4.01006C6.9765 4.17716 7.18538 4.51136 7.18538 4.88734V6.26593L8.77285 5.34687V3.92651C8.77285 3.5923 8.60574 3.2581 8.27154 3.04922L4.9295 1.08578C4.63708 0.918674 4.2611 0.918674 3.92689 1.08578L0.501306 3.091C0.167102 3.2581 0 3.5923 0 3.92651V7.8534C0 8.1876 0.167102 8.52181 0.501306 8.73068L3.88512 10.6941C4.17755 10.8612 4.55352 10.8612 4.88773 10.6941L7.18538 9.35732L8.77285 8.43826L11.0705 7.10144C11.3629 6.93434 11.7389 6.93434 12.0731 7.10144L13.8695 8.14583C14.1619 8.31293 14.3708 8.64713 14.3708 9.02311V11.1119C14.3708 11.4461 14.2037 11.7803 13.8695 11.9892L12.1149 13.0336C11.8225 13.2007 11.4465 13.2007 11.1123 13.0336L9.31593 11.9892C9.0235 11.8221 8.81462 11.4879 8.81462 11.1119V9.77507L7.22715 10.6941V12.0727C7.22715 12.4069 7.39426 12.7411 7.72846 12.95L11.1123 14.9135C11.4047 15.0806 11.7807 15.0806 12.1149 14.9135L15.4987 12.95C15.7911 12.7829 16 12.4487 16 12.0727V8.10405C16 7.76985 15.8329 7.43565 15.4987 7.22677L12.1149 5.26332Z" fill="#8345E6"/>
</svg>
