<svg width="16" height="16" viewBox="0 0 16 16" fill="none" xmlns="http://www.w3.org/2000/svg">
<g clip-path="url(#clip0_2218_706)">
<path d="M8.00016 0H8C3.58172 0 0 3.58172 0 8C0 12.4183 3.58172 16 8 16H8.00016C12.4184 16 16.0002 12.4183 16.0002 8C16.0002 3.58172 12.4184 0 8.00016 0Z" fill="#141416"/>
<path d="M9.42866 9.69822C6.78281 10.492 4.59411 11.6498 3.22406 13.0064L3.16357 13.0666C3.52789 13.411 3.92737 13.719 4.35921 13.9808L4.45205 13.8674C4.82621 13.411 5.22709 12.97 5.64486 12.5542C6.76593 11.4384 8.04881 10.4724 9.43009 9.69678L9.42866 9.69822Z" fill="#F5F5F5"/>
<path d="M1 8.52246C1.1055 9.93782 1.63158 11.2357 2.45726 12.2913L2.49524 12.2534C3.34343 11.4177 4.44763 10.6574 5.7797 9.99526C6.9472 9.41422 8.28774 8.91582 9.7323 8.52246H1Z" fill="#F5F5F5"/>
<path d="M6.38471 2.7052C8.75206 5.0614 11.7313 6.6196 14.9989 7.2104C14.605 3.7174 11.6286 1 8.01214 1C7.05707 1 6.14699 1.1904 5.31567 1.5334C5.65326 1.9394 6.01335 2.3342 6.38471 2.7052Z" fill="#F5F5F5"/>
<path d="M3.22406 2.99344C4.59411 4.35144 6.78281 5.50784 9.42865 6.30304C8.04737 5.52604 6.76453 4.56144 5.64345 3.44564C5.22709 3.03124 4.82621 2.59024 4.45064 2.13244L4.3578 2.01904C3.92597 2.28084 3.52649 2.58884 3.16357 2.93324L3.22406 2.99344Z" fill="#F5F5F5"/>
<path d="M6.38471 13.2947C6.01195 13.6657 5.65186 14.0606 5.31567 14.4666C6.14558 14.8095 7.05707 14.9999 8.01214 14.9999C11.6286 14.9999 14.605 12.2826 15.0003 8.78809C11.7327 9.37889 8.75342 10.9371 6.38611 13.2934L6.38471 13.2947Z" fill="#F5F5F5"/>
<path d="M5.7797 6.00498C4.44763 5.34278 3.34343 4.58258 2.49524 3.74678L2.45726 3.70898C1.63158 4.76458 1.1055 6.06238 1 7.47778H9.73094C8.2863 7.08438 6.9472 6.58598 5.7783 6.00358L5.7797 6.00498Z" fill="#F5F5F5"/>
</g>
<defs>
<clipPath id="clip0_2218_706">
<rect width="16" height="16" fill="white"/>
</clipPath>
</defs>
</svg>
