<svg width="16" height="16" viewBox="0 0 16 16" fill="none" xmlns="http://www.w3.org/2000/svg">
<path fill-rule="evenodd" clip-rule="evenodd" d="M5.14945 10.7594C5.21069 10.8637 5.20198 10.9941 5.1319 11.0983L2.20698 15.4003C2.12807 15.522 2.11935 15.6697 2.18943 15.7914C2.2595 15.9218 2.39082 15.9913 2.53097 15.9913H3.66938C3.79198 15.9913 3.91458 15.9305 3.9935 15.8175L7.40883 10.7767C7.49646 10.6464 7.63661 10.5768 7.79419 10.5768H8.22337C8.38095 10.5768 8.5211 10.6551 8.6086 10.7767L12.0065 15.8262C12.0766 15.9392 12.208 16 12.3306 16H13.4691C13.6092 16 13.7493 15.9218 13.8106 15.7914C13.8807 15.6611 13.8632 15.5133 13.7931 15.4003L10.8681 11.0896C10.798 10.9941 10.7893 10.8637 10.8506 10.7594C10.9119 10.6464 11.017 10.5856 11.1396 10.5856H15.6147C15.8336 10.5856 16 10.4118 16 10.2031V9.26458C16 9.04731 15.8248 8.88211 15.6147 8.88211H0.385358C0.166415 8.88211 0 9.05595 0 9.26458V10.2031C0 10.4031 0.148865 10.5594 0.341544 10.5856C0.359094 10.5856 0.376644 10.5856 0.394072 10.5856H4.86043C4.98304 10.5856 5.09693 10.6464 5.14945 10.7594ZM8.59989 5.22333L12.0153 0.182597C12.0854 0.0695829 12.2167 0.00875759 12.3393 0.00875759H13.4778C13.618 0.00875759 13.7493 0.0869799 13.8194 0.208631C13.8894 0.330281 13.8807 0.486725 13.8019 0.599739L10.8857 4.90169C10.8156 5.00594 10.8067 5.12771 10.8681 5.24061C10.9293 5.34498 11.0345 5.41445 11.1571 5.41445H15.6147C15.8248 5.41445 16 5.57965 16 5.79692V6.73545C16 6.94409 15.8336 7.11793 15.6147 7.11793H0.420334C0.420334 7.11793 0.394072 7.11793 0.385358 7.11793C0.175129 7.11793 0 6.95272 0 6.73545V5.79692C0 5.58828 0.166415 5.41445 0.385358 5.41445H4.85172C4.98304 5.41445 5.08809 5.35362 5.14074 5.24061C5.20198 5.12771 5.19326 5.00594 5.12319 4.91044L2.19814 0.599739C2.12807 0.486725 2.11064 0.339041 2.18059 0.208631C2.25067 0.0782204 2.38211 0 2.52214 0H3.66066C3.79198 0 3.90587 0.0608253 3.97595 0.165202L7.39141 5.20594C7.47891 5.33622 7.61906 5.40581 7.77664 5.40581H8.20582C8.3634 5.40581 8.50355 5.32759 8.59118 5.20594L8.59989 5.22333Z" fill="#FC6432"/>
</svg>
