<svg width="16" height="16" viewBox="0 0 16 16" fill="none" xmlns="http://www.w3.org/2000/svg">
<path fill-rule="evenodd" clip-rule="evenodd" d="M11.7517 6.67302L11.7514 6.67368C12.4032 7.49215 12.7927 8.5288 12.7927 9.65633C12.7927 10.8006 12.3915 11.8513 11.7221 12.6754L11.6645 12.7463L11.6492 12.6561C11.6362 12.5794 11.621 12.502 11.6032 12.424C11.2682 10.95 10.1767 9.68598 8.38028 8.66253C7.16717 7.97332 6.47278 7.14338 6.29048 6.20048C6.17273 5.59075 6.26027 4.9783 6.42943 4.45375C6.59855 3.92935 6.85013 3.48998 7.06385 3.22547L7.7628 2.36955C7.88535 2.21948 8.1147 2.21948 8.23725 2.36955L11.7517 6.67302ZM12.857 5.81802L8.17313 0.0821343C8.08372 -0.027378 7.91628 -0.0273782 7.82687 0.0821343L3.14287 5.81777L3.12775 5.83703C2.26582 6.90815 1.75 8.26937 1.75 9.75117C1.75 13.2022 4.54817 16 8 16C11.4519 16 14.25 13.2022 14.25 9.75117C14.25 8.26937 13.7342 6.90815 12.8723 5.83703L12.857 5.81802ZM4.2636 6.65452L4.68275 6.14125L4.69542 6.23593C4.70543 6.311 4.7176 6.3864 4.73203 6.46213C5.0031 7.8865 5.97147 9.07413 7.59048 9.99395C8.9978 10.7961 9.8172 11.7184 10.0533 12.7301C10.1518 13.1523 10.1694 13.5676 10.1267 13.9308L10.1241 13.9532L10.1038 13.9632C9.46857 14.2739 8.75455 14.4483 7.99985 14.4483C5.35292 14.4483 3.20703 12.303 3.20703 9.65633C3.20703 8.52002 3.60262 7.47592 4.2636 6.65452Z" fill="#4DA1FF"/>
</svg>
