<svg width="56" height="57" viewBox="0 0 56 57" fill="none" xmlns="http://www.w3.org/2000/svg">
<path d="M0 6.21374C0 2.78199 2.78199 0 6.21374 0H49.7863C53.218 0 56 2.78199 56 6.21374V49.7863C56 53.2181 53.218 56.0001 49.7863 56.0001H6.21374C2.78199 56.0001 0 53.2181 0 49.7863V6.21374Z" fill="#0D0229"/>
<path d="M15.3635 22.2418C15.3635 22.0702 15.5034 21.9316 15.6748 21.9262C20.7738 21.7651 24.8786 17.6604 25.0397 12.5613C25.0451 12.3898 25.1837 12.25 25.3553 12.25H40.3306C40.5022 12.25 40.6413 12.3891 40.6413 12.5607V30.4453C40.6413 30.6168 40.5022 30.756 40.3306 30.756H31.7844C31.6128 30.756 31.4737 30.6168 31.4737 30.4453V23.147C31.4737 22.8329 31.049 22.7099 30.8702 22.968C27.5231 27.8013 21.9745 30.9942 15.6748 31.0961C15.5033 31.0989 15.3635 30.9596 15.3635 30.788V22.2418Z" fill="#E6E0F7"/>
<path d="M40.6413 34.9226C40.6413 34.7511 40.5022 34.6119 40.3306 34.6119H15.6742C15.5027 34.6119 15.3635 34.7511 15.3635 34.9226V43.4689C15.3635 43.6404 15.5027 43.7796 15.6742 43.7796H40.3306C40.5022 43.7796 40.6413 43.6404 40.6413 43.4689V34.9226Z" fill="#E6E0F7"/>
</svg>
